<svg width="1232" height="71" viewBox="0 0 1232 71" fill="none" xmlns="http://www.w3.org/2000/svg">
<mask id="mask0_141_1062" style="mask-type:luminance" maskUnits="userSpaceOnUse" x="0" y="0" width="1232" height="71">
<path d="M1232 0.691406H0V70.6914H1232V0.691406Z" fill="white"/>
</mask>
<g mask="url(#mask0_141_1062)">
<path d="M1232 0.691406H0V8.69141H1232V0.691406Z" fill="#FDFAFA"/>
<path d="M605 0.691406H0V8.69141H605V0.691406Z" fill="#EDE5E5"/>
<path d="M1.02393 23.4195H8.63993V24.2515H1.02393V23.4195ZM1.77593 27.1955L2.44793 26.7155L6.27193 30.4115C6.4426 30.5715 6.60793 30.6888 6.76793 30.7635C6.92793 30.8275 7.14126 30.8595 7.40793 30.8595H7.64793V31.6915H5.66393L1.08793 27.1155V26.3955H2.28793C2.9706 26.3955 3.50926 26.2888 3.90393 26.0755C4.30926 25.8622 4.59726 25.5582 4.76793 25.1635C4.94926 24.7582 5.03993 24.2835 5.03993 23.7395C5.03993 23.2168 4.94926 22.7742 4.76793 22.4115C4.5866 22.0382 4.30393 21.7608 3.91993 21.5795C3.53593 21.3875 3.04526 21.2915 2.44793 21.2915H1.02393V20.3315H8.63993V21.1635H2.97593L3.55193 20.9555C4.2346 21.0622 4.79993 21.2435 5.24793 21.4995C5.69593 21.7555 6.03193 22.0755 6.25593 22.4595C6.47993 22.8328 6.59193 23.2595 6.59193 23.7395C6.59193 24.4435 6.4106 25.0568 6.04793 25.5795C5.69593 26.0915 5.18926 26.4915 4.52793 26.7795C3.87726 27.0568 3.08793 27.1955 2.15993 27.1955H1.77593ZM14.041 30.5395C14.4784 30.5395 14.8304 30.5235 15.097 30.4915C15.3744 30.4595 15.577 30.3955 15.705 30.2995C15.833 30.2035 15.9077 30.0648 15.929 29.8835L16.073 28.5075H17.033V31.6915H9.72106V30.1875C10.3184 29.7715 10.889 29.3715 11.433 28.9875C11.977 28.6035 12.473 28.2302 12.921 27.8675C13.369 27.4942 13.7584 27.1208 14.089 26.7475C14.4304 26.3635 14.6917 25.9688 14.873 25.5635C15.065 25.1582 15.161 24.7262 15.161 24.2675C15.161 23.7982 15.0864 23.4302 14.937 23.1635C14.7877 22.8862 14.569 22.6888 14.281 22.5715C13.993 22.4542 13.6464 22.3955 13.241 22.3955C12.857 22.3955 12.4997 22.4542 12.169 22.5715C11.849 22.6782 11.561 22.8275 11.305 23.0195C11.0597 23.2115 10.8517 23.4248 10.681 23.6595C10.6917 23.5208 10.7237 23.3928 10.777 23.2755C10.8304 23.1582 10.889 23.0622 10.953 22.9875C11.017 22.9022 11.0864 22.8382 11.161 22.7955C11.2357 22.7528 11.305 22.7368 11.369 22.7475V24.6675H9.94506V22.9075C10.105 22.6942 10.345 22.4755 10.665 22.2515C10.9957 22.0275 11.3797 21.8408 11.817 21.6915C12.265 21.5315 12.7504 21.4515 13.273 21.4515C13.9984 21.4515 14.6117 21.5582 15.113 21.7715C15.6144 21.9848 15.9984 22.3048 16.265 22.7315C16.5317 23.1475 16.665 23.6755 16.665 24.3155C16.665 24.8062 16.537 25.2915 16.281 25.7715C16.0357 26.2408 15.6997 26.7048 15.273 27.1635C14.8464 27.6115 14.3557 28.0488 13.801 28.4755C13.257 28.9022 12.6757 29.3235 12.057 29.7395C11.449 30.1448 10.8464 30.5395 10.249 30.9235C10.2064 30.9128 10.1744 30.8862 10.153 30.8435C10.1317 30.7902 10.121 30.7368 10.121 30.6835C10.121 30.6195 10.137 30.5715 10.169 30.5395H14.041ZM22.3862 31.8675C21.8102 31.8675 21.2875 31.7502 20.8182 31.5155C20.3488 31.2808 19.9435 30.9395 19.6022 30.4915C19.2608 30.0328 18.9995 29.4835 18.8182 28.8435C18.6368 28.1928 18.5462 27.4622 18.5462 26.6515C18.5462 25.8408 18.6368 25.1155 18.8182 24.4755C18.9995 23.8355 19.2608 23.2915 19.6022 22.8435C19.9435 22.3848 20.3488 22.0382 20.8182 21.8035C21.2875 21.5688 21.8102 21.4515 22.3862 21.4515C22.9622 21.4515 23.4848 21.5688 23.9542 21.8035C24.4235 22.0382 24.8288 22.3848 25.1702 22.8435C25.5115 23.2915 25.7728 23.8355 25.9542 24.4755C26.1355 25.1155 26.2262 25.8408 26.2262 26.6515C26.2262 27.4622 26.1355 28.1928 25.9542 28.8435C25.7728 29.4835 25.5115 30.0328 25.1702 30.4915C24.8288 30.9395 24.4235 31.2808 23.9542 31.5155C23.4848 31.7502 22.9622 31.8675 22.3862 31.8675ZM22.3862 30.9235C22.7702 30.9235 23.1062 30.8328 23.3942 30.6515C23.6822 30.4595 23.9222 30.1822 24.1142 29.8195C24.3062 29.4568 24.4502 29.0142 24.5462 28.4915C24.6422 27.9582 24.6902 27.3448 24.6902 26.6515C24.6902 25.9688 24.6422 25.3608 24.5462 24.8275C24.4502 24.2942 24.3062 23.8462 24.1142 23.4835C23.9222 23.1208 23.6822 22.8488 23.3942 22.6675C23.1062 22.4755 22.7702 22.3795 22.3862 22.3795C22.0022 22.3795 21.6662 22.4755 21.3782 22.6675C21.0902 22.8488 20.8502 23.1208 20.6582 23.4835C20.4662 23.8462 20.3222 24.2942 20.2262 24.8275C20.1302 25.3608 20.0822 25.9688 20.0822 26.6515C20.0822 27.3342 20.1302 27.9422 20.2262 28.4755C20.3222 29.0088 20.4662 29.4568 20.6582 29.8195C20.8502 30.1822 21.0902 30.4595 21.3782 30.6515C21.6662 30.8328 22.0022 30.9235 22.3862 30.9235ZM31.3393 31.8675C30.7633 31.8675 30.2406 31.7502 29.7713 31.5155C29.3019 31.2808 28.8966 30.9395 28.5553 30.4915C28.2139 30.0328 27.9526 29.4835 27.7713 28.8435C27.5899 28.1928 27.4993 27.4622 27.4993 26.6515C27.4993 25.8408 27.5899 25.1155 27.7713 24.4755C27.9526 23.8355 28.2139 23.2915 28.5553 22.8435C28.8966 22.3848 29.3019 22.0382 29.7713 21.8035C30.2406 21.5688 30.7633 21.4515 31.3393 21.4515C31.9153 21.4515 32.4379 21.5688 32.9073 21.8035C33.3766 22.0382 33.7819 22.3848 34.1233 22.8435C34.4646 23.2915 34.7259 23.8355 34.9073 24.4755C35.0886 25.1155 35.1793 25.8408 35.1793 26.6515C35.1793 27.4622 35.0886 28.1928 34.9073 28.8435C34.7259 29.4835 34.4646 30.0328 34.1233 30.4915C33.7819 30.9395 33.3766 31.2808 32.9073 31.5155C32.4379 31.7502 31.9153 31.8675 31.3393 31.8675ZM31.3393 30.9235C31.7233 30.9235 32.0593 30.8328 32.3473 30.6515C32.6353 30.4595 32.8753 30.1822 33.0673 29.8195C33.2593 29.4568 33.4033 29.0142 33.4993 28.4915C33.5953 27.9582 33.6433 27.3448 33.6433 26.6515C33.6433 25.9688 33.5953 25.3608 33.4993 24.8275C33.4033 24.2942 33.2593 23.8462 33.0673 23.4835C32.8753 23.1208 32.6353 22.8488 32.3473 22.6675C32.0593 22.4755 31.7233 22.3795 31.3393 22.3795C30.9553 22.3795 30.6193 22.4755 30.3313 22.6675C30.0433 22.8488 29.8033 23.1208 29.6113 23.4835C29.4193 23.8462 29.2753 24.2942 29.1793 24.8275C29.0833 25.3608 29.0353 25.9688 29.0353 26.6515C29.0353 27.3342 29.0833 27.9422 29.1793 28.4755C29.2753 29.0088 29.4193 29.4568 29.6113 29.8195C29.8033 30.1822 30.0433 30.4595 30.3313 30.6515C30.6193 30.8328 30.9553 30.9235 31.3393 30.9235ZM37.6364 34.4115L36.5644 33.7875C37.0017 33.5635 37.3751 33.3288 37.6844 33.0835C37.9937 32.8488 38.2337 32.5928 38.4044 32.3155C38.5751 32.0488 38.6657 31.7608 38.6764 31.4515C38.6871 31.4195 38.7031 31.3875 38.7244 31.3555C38.7457 31.3235 38.7671 31.3022 38.7884 31.2915C38.8204 31.2808 38.8524 31.2808 38.8844 31.2915C38.9164 31.2915 38.9484 31.3075 38.9804 31.3395C38.9377 31.4462 38.8791 31.5262 38.8044 31.5795C38.7404 31.6328 38.6604 31.6702 38.5644 31.6915C38.4791 31.7235 38.3724 31.7395 38.2444 31.7395C37.8924 31.7395 37.5991 31.6488 37.3644 31.4675C37.1404 31.2755 37.0284 31.0195 37.0284 30.6995C37.0284 30.3688 37.1404 30.1022 37.3644 29.8995C37.5884 29.6968 37.8764 29.5955 38.2284 29.5955C38.4951 29.5955 38.7244 29.6488 38.9164 29.7555C39.1191 29.8622 39.2737 30.0275 39.3804 30.2515C39.4977 30.4648 39.5564 30.7422 39.5564 31.0835C39.5564 31.5422 39.4871 31.9635 39.3484 32.3475C39.2204 32.7422 39.0124 33.1048 38.7244 33.4355C38.4471 33.7768 38.0844 34.1022 37.6364 34.4115ZM45.058 31.8675C44.482 31.8675 43.9594 31.7502 43.49 31.5155C43.0207 31.2808 42.6154 30.9395 42.274 30.4915C41.9327 30.0328 41.6714 29.4835 41.49 28.8435C41.3087 28.1928 41.218 27.4622 41.218 26.6515C41.218 25.8408 41.3087 25.1155 41.49 24.4755C41.6714 23.8355 41.9327 23.2915 42.274 22.8435C42.6154 22.3848 43.0207 22.0382 43.49 21.8035C43.9594 21.5688 44.482 21.4515 45.058 21.4515C45.634 21.4515 46.1567 21.5688 46.626 21.8035C47.0954 22.0382 47.5007 22.3848 47.842 22.8435C48.1834 23.2915 48.4447 23.8355 48.626 24.4755C48.8074 25.1155 48.898 25.8408 48.898 26.6515C48.898 27.4622 48.8074 28.1928 48.626 28.8435C48.4447 29.4835 48.1834 30.0328 47.842 30.4915C47.5007 30.9395 47.0954 31.2808 46.626 31.5155C46.1567 31.7502 45.634 31.8675 45.058 31.8675ZM45.058 30.9235C45.442 30.9235 45.778 30.8328 46.066 30.6515C46.354 30.4595 46.594 30.1822 46.786 29.8195C46.978 29.4568 47.122 29.0142 47.218 28.4915C47.314 27.9582 47.362 27.3448 47.362 26.6515C47.362 25.9688 47.314 25.3608 47.218 24.8275C47.122 24.2942 46.978 23.8462 46.786 23.4835C46.594 23.1208 46.354 22.8488 46.066 22.6675C45.778 22.4755 45.442 22.3795 45.058 22.3795C44.674 22.3795 44.338 22.4755 44.05 22.6675C43.762 22.8488 43.522 23.1208 43.33 23.4835C43.138 23.8462 42.994 24.2942 42.898 24.8275C42.802 25.3608 42.754 25.9688 42.754 26.6515C42.754 27.3342 42.802 27.9422 42.898 28.4755C42.994 29.0088 43.138 29.4568 43.33 29.8195C43.522 30.1822 43.762 30.4595 44.05 30.6515C44.338 30.8328 44.674 30.9235 45.058 30.9235ZM54.0112 31.8675C53.4352 31.8675 52.9125 31.7502 52.4432 31.5155C51.9738 31.2808 51.5685 30.9395 51.2272 30.4915C50.8858 30.0328 50.6245 29.4835 50.4432 28.8435C50.2618 28.1928 50.1712 27.4622 50.1712 26.6515C50.1712 25.8408 50.2618 25.1155 50.4432 24.4755C50.6245 23.8355 50.8858 23.2915 51.2272 22.8435C51.5685 22.3848 51.9738 22.0382 52.4432 21.8035C52.9125 21.5688 53.4352 21.4515 54.0112 21.4515C54.5872 21.4515 55.1098 21.5688 55.5792 21.8035C56.0485 22.0382 56.4538 22.3848 56.7952 22.8435C57.1365 23.2915 57.3978 23.8355 57.5792 24.4755C57.7605 25.1155 57.8512 25.8408 57.8512 26.6515C57.8512 27.4622 57.7605 28.1928 57.5792 28.8435C57.3978 29.4835 57.1365 30.0328 56.7952 30.4915C56.4538 30.9395 56.0485 31.2808 55.5792 31.5155C55.1098 31.7502 54.5872 31.8675 54.0112 31.8675ZM54.0112 30.9235C54.3952 30.9235 54.7312 30.8328 55.0192 30.6515C55.3072 30.4595 55.5472 30.1822 55.7392 29.8195C55.9312 29.4568 56.0752 29.0142 56.1712 28.4915C56.2672 27.9582 56.3152 27.3448 56.3152 26.6515C56.3152 25.9688 56.2672 25.3608 56.1712 24.8275C56.0752 24.2942 55.9312 23.8462 55.7392 23.4835C55.5472 23.1208 55.3072 22.8488 55.0192 22.6675C54.7312 22.4755 54.3952 22.3795 54.0112 22.3795C53.6272 22.3795 53.2912 22.4755 53.0032 22.6675C52.7152 22.8488 52.4752 23.1208 52.2832 23.4835C52.0912 23.8462 51.9472 24.2942 51.8512 24.8275C51.7552 25.3608 51.7072 25.9688 51.7072 26.6515C51.7072 27.3342 51.7552 27.9422 51.8512 28.4755C51.9472 29.0088 52.0912 29.4568 52.2832 29.8195C52.4752 30.1822 52.7152 30.4595 53.0032 30.6515C53.2912 30.8328 53.6272 30.9235 54.0112 30.9235ZM62.9643 31.8675C62.3883 31.8675 61.8656 31.7502 61.3963 31.5155C60.9269 31.2808 60.5216 30.9395 60.1803 30.4915C59.8389 30.0328 59.5776 29.4835 59.3963 28.8435C59.2149 28.1928 59.1243 27.4622 59.1243 26.6515C59.1243 25.8408 59.2149 25.1155 59.3963 24.4755C59.5776 23.8355 59.8389 23.2915 60.1803 22.8435C60.5216 22.3848 60.9269 22.0382 61.3963 21.8035C61.8656 21.5688 62.3883 21.4515 62.9643 21.4515C63.5403 21.4515 64.0629 21.5688 64.5323 21.8035C65.0016 22.0382 65.4069 22.3848 65.7483 22.8435C66.0896 23.2915 66.3509 23.8355 66.5323 24.4755C66.7136 25.1155 66.8043 25.8408 66.8043 26.6515C66.8043 27.4622 66.7136 28.1928 66.5323 28.8435C66.3509 29.4835 66.0896 30.0328 65.7483 30.4915C65.4069 30.9395 65.0016 31.2808 64.5323 31.5155C64.0629 31.7502 63.5403 31.8675 62.9643 31.8675ZM62.9643 30.9235C63.3483 30.9235 63.6843 30.8328 63.9723 30.6515C64.2603 30.4595 64.5003 30.1822 64.6923 29.8195C64.8843 29.4568 65.0283 29.0142 65.1243 28.4915C65.2203 27.9582 65.2683 27.3448 65.2683 26.6515C65.2683 25.9688 65.2203 25.3608 65.1243 24.8275C65.0283 24.2942 64.8843 23.8462 64.6923 23.4835C64.5003 23.1208 64.2603 22.8488 63.9723 22.6675C63.6843 22.4755 63.3483 22.3795 62.9643 22.3795C62.5803 22.3795 62.2443 22.4755 61.9563 22.6675C61.6683 22.8488 61.4283 23.1208 61.2363 23.4835C61.0443 23.8462 60.9003 24.2942 60.8043 24.8275C60.7083 25.3608 60.6603 25.9688 60.6603 26.6515C60.6603 27.3342 60.7083 27.9422 60.8043 28.4755C60.9003 29.0088 61.0443 29.4568 61.2363 29.8195C61.4283 30.1822 61.6683 30.4595 61.9563 30.6515C62.2443 30.8328 62.5803 30.9235 62.9643 30.9235Z" fill="black"/>
<path d="M4.80021 65.2835V56.2595H3.87221C3.40288 56.2595 3.01888 56.2808 2.72021 56.3235C2.42154 56.3662 2.20288 56.4408 2.06421 56.5475C1.92554 56.6542 1.84554 56.8035 1.82421 56.9955L1.66421 58.7235H0.720215V55.3315H10.3522V58.7235H9.42421L9.24821 56.9955C9.23755 56.8035 9.15755 56.6542 9.00821 56.5475C8.86954 56.4408 8.65088 56.3662 8.35221 56.3235C8.06421 56.2808 7.68021 56.2595 7.20021 56.2595H6.28821V65.2835C6.28821 65.5182 6.41621 65.6728 6.67221 65.7475C6.93888 65.8222 7.26955 65.8595 7.66422 65.8595H7.95222V66.6915H3.13621V65.8595H3.40821C3.80288 65.8595 4.13354 65.8222 4.40021 65.7475C4.66688 65.6728 4.80021 65.5182 4.80021 65.2835ZM16.619 61.5555V62.4035C16.0003 62.4782 15.467 62.5635 15.019 62.6595C14.571 62.7555 14.1923 62.8675 13.883 62.9955C13.5736 63.1235 13.323 63.2675 13.131 63.4275C12.9496 63.5768 12.8163 63.7528 12.731 63.9555C12.6563 64.1582 12.619 64.3822 12.619 64.6275C12.619 64.9048 12.6776 65.1448 12.795 65.3475C12.9123 65.5395 13.083 65.6888 13.307 65.7955C13.531 65.9022 13.787 65.9555 14.075 65.9555C14.427 65.9555 14.747 65.8702 15.035 65.6995C15.323 65.5288 15.595 65.2835 15.851 64.9635C16.107 64.6435 16.3523 64.2488 16.587 63.7795V64.7875C16.395 65.2142 16.1603 65.5822 15.883 65.8915C15.6056 66.2008 15.2856 66.4408 14.9229 66.6115C14.571 66.7822 14.171 66.8675 13.723 66.8675C13.2323 66.8675 12.7896 66.7822 12.395 66.6115C12.011 66.4302 11.707 66.1742 11.483 65.8435C11.259 65.5022 11.147 65.0968 11.147 64.6275C11.147 64.1902 11.2483 63.8062 11.451 63.4755C11.6643 63.1448 11.9896 62.8622 12.427 62.6275C12.875 62.3822 13.4403 62.1742 14.123 62.0035C14.8163 61.8328 15.6483 61.6835 16.619 61.5555ZM16.507 66.6915L16.379 64.8835L16.267 64.8035V60.7395C16.267 60.3235 16.2083 59.9928 16.091 59.7475C15.9843 59.4915 15.8083 59.3102 15.563 59.2035C15.3176 59.0968 14.9923 59.0435 14.587 59.0435C13.9896 59.0435 13.499 59.1395 13.115 59.3315C12.731 59.5235 12.443 59.7368 12.251 59.9715C12.2403 59.8648 12.251 59.7635 12.283 59.6675C12.3256 59.5715 12.379 59.4862 12.443 59.4115C12.5176 59.3262 12.603 59.2568 12.699 59.2035C12.8056 59.1395 12.9176 59.0915 13.035 59.0595V60.8515H11.627V58.9955C11.787 58.8782 12.0056 58.7502 12.283 58.6115C12.5603 58.4728 12.9016 58.3555 13.307 58.2595C13.7123 58.1528 14.1656 58.0995 14.667 58.0995C15.083 58.0995 15.467 58.1422 15.819 58.2275C16.1816 58.3128 16.5016 58.4515 16.779 58.6435C17.067 58.8355 17.2856 59.0915 17.435 59.4115C17.595 59.7208 17.675 60.1048 17.675 60.5635V65.2675C17.675 65.4168 17.7283 65.5342 17.835 65.6195C17.9523 65.7048 18.107 65.7688 18.2989 65.8115C18.5016 65.8435 18.7363 65.8702 19.003 65.8915L19.051 65.9075V66.6915H16.507ZM25.8723 58.1475V59.6515C25.7977 59.6195 25.707 59.5982 25.6003 59.5875C25.4937 59.5768 25.3817 59.5662 25.2643 59.5555C25.1577 59.5448 25.051 59.5395 24.9443 59.5395C24.6563 59.5395 24.395 59.5715 24.1603 59.6355C23.9363 59.6995 23.7283 59.8008 23.5363 59.9395C23.355 60.0675 23.179 60.2382 23.0083 60.4515C22.8483 60.6648 22.6777 60.9208 22.4963 61.2195V60.3715C22.7203 59.8915 22.9657 59.4808 23.2323 59.1395C23.5097 58.7982 23.8137 58.5368 24.1443 58.3555C24.4857 58.1742 24.8643 58.0835 25.2803 58.0835C25.4083 58.0835 25.5257 58.0888 25.6323 58.0995C25.739 58.1102 25.819 58.1262 25.8723 58.1475ZM19.9683 66.6915V65.9395H20.0163C20.4217 65.9395 20.747 65.8915 20.9923 65.7955C21.2377 65.6888 21.3603 65.4755 21.3603 65.1555V59.8115C21.3603 59.6515 21.3123 59.5342 21.2163 59.4595C21.131 59.3742 20.9977 59.3048 20.8163 59.2515C20.635 59.1982 20.4057 59.1448 20.1283 59.0915L19.9683 59.0595V58.2595H22.5603L22.6883 60.4675L22.7843 60.3715V65.5235C22.7843 65.6408 22.859 65.7315 23.0083 65.7955C23.1577 65.8595 23.3337 65.9022 23.5363 65.9235C23.739 65.9342 23.915 65.9395 24.0643 65.9395H24.4003V66.6915H19.9683ZM35.5221 59.2835C35.0421 59.2515 34.6314 59.2408 34.2901 59.2515C33.9487 59.2515 33.6607 59.2835 33.4261 59.3475C33.1914 59.4008 32.9994 59.5022 32.8501 59.6515L32.6101 59.5235C32.7594 59.1928 32.9301 58.9102 33.1221 58.6755C33.3141 58.4408 33.5274 58.2488 33.7621 58.0995C34.0074 57.9502 34.2741 57.8542 34.5621 57.8115C34.8501 57.7582 35.1701 57.7475 35.5221 57.7795V59.2835ZM30.5461 64.1475C29.8954 64.1475 29.3194 64.0248 28.8181 63.7795C28.3274 63.5342 27.9381 63.1875 27.6501 62.7395C27.3727 62.2808 27.2341 61.7475 27.2341 61.1395C27.2341 60.5422 27.3727 60.0142 27.6501 59.5555C27.9381 59.0968 28.3327 58.7395 28.8341 58.4835C29.3354 58.2275 29.9061 58.0995 30.5461 58.0995C31.1967 58.0995 31.7727 58.2275 32.2741 58.4835C32.7754 58.7395 33.1647 59.0968 33.4421 59.5555C33.7301 60.0142 33.8741 60.5422 33.8741 61.1395C33.8741 61.7475 33.7301 62.2808 33.4421 62.7395C33.1647 63.1875 32.7754 63.5342 32.2741 63.7795C31.7727 64.0248 31.1967 64.1475 30.5461 64.1475ZM30.5461 63.2035C30.9514 63.2035 31.2981 63.1288 31.5861 62.9795C31.8741 62.8195 32.0927 62.5848 32.2421 62.2755C32.3914 61.9662 32.4661 61.5875 32.4661 61.1395C32.4661 60.6915 32.3914 60.3128 32.2421 60.0035C32.0927 59.6835 31.8741 59.4435 31.5861 59.2835C31.2981 59.1128 30.9514 59.0275 30.5461 59.0275C30.1514 59.0275 29.8101 59.1128 29.5221 59.2835C29.2341 59.4435 29.0154 59.6835 28.8661 60.0035C28.7167 60.3128 28.6421 60.6915 28.6421 61.1395C28.6421 61.5875 28.7167 61.9662 28.8661 62.2755C29.0154 62.5848 29.2341 62.8195 29.5221 62.9795C29.8101 63.1288 30.1514 63.2035 30.5461 63.2035ZM29.9861 70.5475C29.2927 70.5475 28.6687 70.4835 28.1141 70.3555C27.5594 70.2275 27.1221 70.0088 26.8021 69.6995C26.4927 69.4008 26.3381 69.0115 26.3381 68.5315C26.3381 68.2328 26.4074 67.9715 26.5461 67.7475C26.6847 67.5235 26.8927 67.3102 27.1701 67.1075C27.4474 66.9048 27.8047 66.7022 28.2421 66.4995L28.7541 66.8355C28.4767 67.0062 28.2527 67.1715 28.0821 67.3315C27.9221 67.5022 27.8047 67.6728 27.7301 67.8435C27.6554 68.0142 27.6181 68.1955 27.6181 68.3875C27.6181 68.6435 27.6981 68.8568 27.8581 69.0275C28.0287 69.2088 28.2901 69.3475 28.6421 69.4435C28.9941 69.5395 29.4581 69.5875 30.0341 69.5875H31.1221C31.6767 69.5875 32.1567 69.5235 32.5621 69.3955C32.9674 69.2675 33.2821 69.0808 33.5061 68.8355C33.7301 68.5902 33.8421 68.3022 33.8421 67.9715C33.8421 67.6622 33.7301 67.4328 33.5061 67.2835C33.2927 67.1342 32.8981 67.0595 32.3221 67.0595H28.6901H28.6421C28.2367 66.9422 27.9007 66.8088 27.6341 66.6595C27.3674 66.4995 27.1754 66.3182 27.0581 66.1155C26.9407 65.9128 26.8821 65.6888 26.8821 65.4435C26.8821 65.1662 26.9514 64.9102 27.0901 64.6755C27.2287 64.4408 27.4314 64.2168 27.6981 64.0035C27.9647 63.7902 28.2954 63.5875 28.6901 63.3955L29.2021 63.7635C28.9887 63.9128 28.8074 64.0568 28.6581 64.1955C28.5087 64.3235 28.3967 64.4568 28.3221 64.5955C28.2474 64.7235 28.2101 64.8622 28.2101 65.0115C28.2101 65.2462 28.3167 65.4222 28.5301 65.5395C28.7434 65.6462 29.0581 65.6995 29.4741 65.6995H32.3541C32.9621 65.6995 33.4741 65.7742 33.8901 65.9235C34.3061 66.0622 34.6207 66.2862 34.8341 66.5955C35.0581 66.8942 35.1701 67.2782 35.1701 67.7475C35.1701 68.3875 34.9834 68.9155 34.6101 69.3315C34.2474 69.7475 33.7567 70.0515 33.1381 70.2435C32.5301 70.4462 31.8634 70.5475 31.1381 70.5475H29.9861ZM37.5051 62.5475C37.5051 63.1342 37.5744 63.6408 37.7131 64.0675C37.8624 64.4942 38.0651 64.8462 38.3211 65.1235C38.5771 65.3902 38.8757 65.5928 39.2171 65.7315C39.5584 65.8595 39.9317 65.9235 40.3371 65.9235C40.7744 65.9235 41.1531 65.8435 41.4731 65.6835C41.8037 65.5128 42.0864 65.3048 42.3211 65.0595C42.5557 64.8142 42.7531 64.5582 42.9131 64.2915L43.6811 64.9315C43.4784 65.2942 43.2171 65.6248 42.8971 65.9235C42.5771 66.2222 42.1984 66.4568 41.7611 66.6275C41.3344 66.7875 40.8491 66.8675 40.3051 66.8675C39.5051 66.8675 38.7797 66.6968 38.1291 66.3555C37.4891 66.0142 36.9824 65.5182 36.6091 64.8675C36.2357 64.2168 36.0491 63.4382 36.0491 62.5315C36.0491 61.6462 36.2197 60.8728 36.5611 60.2115C36.9131 59.5502 37.3877 59.0328 37.9851 58.6595C38.5824 58.2862 39.2597 58.0995 40.0171 58.0995C40.6251 58.0995 41.1531 58.2008 41.6011 58.4035C42.0597 58.5955 42.4437 58.8942 42.7531 59.2995C43.0624 59.6942 43.2971 60.1902 43.4571 60.7875C43.6171 61.3742 43.6971 62.0675 43.6971 62.8675H37.1851V61.9555H42.6411L42.2091 62.3075C42.1877 61.7208 42.1291 61.2248 42.0331 60.8195C41.9477 60.4035 41.8197 60.0675 41.6491 59.8115C41.4784 59.5448 41.2544 59.3528 40.9771 59.2355C40.7104 59.1075 40.3904 59.0435 40.0171 59.0435C39.6544 59.0435 39.3184 59.1182 39.0091 59.2675C38.6997 59.4168 38.4331 59.6408 38.2091 59.9395C37.9851 60.2382 37.8091 60.6062 37.6811 61.0435C37.5637 61.4808 37.5051 61.9822 37.5051 62.5475ZM44.5672 59.2035V58.3395H44.7112C45.0525 58.3395 45.3405 58.3182 45.5752 58.2755C45.8205 58.2222 46.0019 58.1262 46.1192 57.9875C46.2472 57.8488 46.3112 57.6462 46.3112 57.3795L47.3512 58.2595H50.2952V59.2035H44.5672ZM47.6232 64.0195C47.6232 64.4782 47.6872 64.8462 47.8152 65.1235C47.9432 65.3902 48.1245 65.5822 48.3592 65.6995C48.6045 65.8062 48.8872 65.8595 49.2072 65.8595C49.4632 65.8595 49.7032 65.8435 49.9272 65.8115C50.1512 65.7688 50.3165 65.7315 50.4232 65.6995V66.6435C50.3165 66.6862 50.1885 66.7235 50.0392 66.7555C49.8899 66.7875 49.7299 66.8142 49.5592 66.8355C49.3992 66.8568 49.2285 66.8675 49.0472 66.8675C48.5565 66.8675 48.0925 66.7875 47.6552 66.6275C47.2285 66.4675 46.8765 66.1848 46.5992 65.7795C46.3325 65.3742 46.1992 64.7928 46.1992 64.0355V58.4995L46.3112 58.3715V55.8755H47.6232V64.0195Z" fill="#5C5C5C"/>
<path d="M319.024 23.4195H326.64V24.2515H319.024V23.4195ZM319.776 27.1955L320.448 26.7155L324.272 30.4115C324.443 30.5715 324.608 30.6888 324.768 30.7635C324.928 30.8275 325.141 30.8595 325.408 30.8595H325.648V31.6915H323.664L319.088 27.1155V26.3955H320.288C320.971 26.3955 321.509 26.2888 321.904 26.0755C322.309 25.8622 322.597 25.5582 322.768 25.1635C322.949 24.7582 323.04 24.2835 323.04 23.7395C323.04 23.2168 322.949 22.7742 322.768 22.4115C322.587 22.0382 322.304 21.7608 321.92 21.5795C321.536 21.3875 321.045 21.2915 320.448 21.2915H319.024V20.3315H326.64V21.1635H320.976L321.552 20.9555C322.235 21.0622 322.8 21.2435 323.248 21.4995C323.696 21.7555 324.032 22.0755 324.256 22.4595C324.48 22.8328 324.592 23.2595 324.592 23.7395C324.592 24.4435 324.411 25.0568 324.048 25.5795C323.696 26.0915 323.189 26.4915 322.528 26.7795C321.877 27.0568 321.088 27.1955 320.16 27.1955H319.776ZM332.569 30.3155C332.569 30.4648 332.644 30.5822 332.793 30.6675C332.942 30.7528 333.15 30.8115 333.417 30.8435C333.694 30.8755 334.025 30.8915 334.409 30.8915H335.065V31.6915H328.537V30.8915H329.401C329.753 30.8915 330.052 30.8755 330.297 30.8435C330.553 30.8115 330.745 30.7528 330.873 30.6675C331.012 30.5822 331.081 30.4648 331.081 30.3155V22.7795L331.337 22.5875C331.273 22.8115 331.145 23.0088 330.953 23.1795C330.761 23.3502 330.526 23.4995 330.249 23.6275C329.972 23.7448 329.662 23.8355 329.321 23.8995C328.98 23.9528 328.622 23.9742 328.249 23.9635V22.9555C328.654 22.9448 329.028 22.9128 329.369 22.8595C329.71 22.8062 330.02 22.7262 330.297 22.6195C330.574 22.5128 330.82 22.3795 331.033 22.2195C331.246 22.0595 331.422 21.8675 331.561 21.6435H332.569V30.3155ZM340.386 31.8675C339.81 31.8675 339.288 31.7502 338.818 31.5155C338.349 31.2808 337.944 30.9395 337.602 30.4915C337.261 30.0328 337 29.4835 336.818 28.8435C336.637 28.1928 336.546 27.4622 336.546 26.6515C336.546 25.8408 336.637 25.1155 336.818 24.4755C337 23.8355 337.261 23.2915 337.602 22.8435C337.944 22.3848 338.349 22.0382 338.818 21.8035C339.288 21.5688 339.81 21.4515 340.386 21.4515C340.962 21.4515 341.485 21.5688 341.954 21.8035C342.424 22.0382 342.829 22.3848 343.17 22.8435C343.512 23.2915 343.773 23.8355 343.954 24.4755C344.136 25.1155 344.226 25.8408 344.226 26.6515C344.226 27.4622 344.136 28.1928 343.954 28.8435C343.773 29.4835 343.512 30.0328 343.17 30.4915C342.829 30.9395 342.424 31.2808 341.954 31.5155C341.485 31.7502 340.962 31.8675 340.386 31.8675ZM340.386 30.9235C340.77 30.9235 341.106 30.8328 341.394 30.6515C341.682 30.4595 341.922 30.1822 342.114 29.8195C342.306 29.4568 342.45 29.0142 342.546 28.4915C342.642 27.9582 342.69 27.3448 342.69 26.6515C342.69 25.9688 342.642 25.3608 342.546 24.8275C342.45 24.2942 342.306 23.8462 342.114 23.4835C341.922 23.1208 341.682 22.8488 341.394 22.6675C341.106 22.4755 340.77 22.3795 340.386 22.3795C340.002 22.3795 339.666 22.4755 339.378 22.6675C339.09 22.8488 338.85 23.1208 338.658 23.4835C338.466 23.8462 338.322 24.2942 338.226 24.8275C338.13 25.3608 338.082 25.9688 338.082 26.6515C338.082 27.3342 338.13 27.9422 338.226 28.4755C338.322 29.0088 338.466 29.4568 338.658 29.8195C338.85 30.1822 339.09 30.4595 339.378 30.6515C339.666 30.8328 340.002 30.9235 340.386 30.9235ZM349.339 31.8675C348.763 31.8675 348.241 31.7502 347.771 31.5155C347.302 31.2808 346.897 30.9395 346.555 30.4915C346.214 30.0328 345.953 29.4835 345.771 28.8435C345.59 28.1928 345.499 27.4622 345.499 26.6515C345.499 25.8408 345.59 25.1155 345.771 24.4755C345.953 23.8355 346.214 23.2915 346.555 22.8435C346.897 22.3848 347.302 22.0382 347.771 21.8035C348.241 21.5688 348.763 21.4515 349.339 21.4515C349.915 21.4515 350.438 21.5688 350.907 21.8035C351.377 22.0382 351.782 22.3848 352.123 22.8435C352.465 23.2915 352.726 23.8355 352.907 24.4755C353.089 25.1155 353.179 25.8408 353.179 26.6515C353.179 27.4622 353.089 28.1928 352.907 28.8435C352.726 29.4835 352.465 30.0328 352.123 30.4915C351.782 30.9395 351.377 31.2808 350.907 31.5155C350.438 31.7502 349.915 31.8675 349.339 31.8675ZM349.339 30.9235C349.723 30.9235 350.059 30.8328 350.347 30.6515C350.635 30.4595 350.875 30.1822 351.067 29.8195C351.259 29.4568 351.403 29.0142 351.499 28.4915C351.595 27.9582 351.643 27.3448 351.643 26.6515C351.643 25.9688 351.595 25.3608 351.499 24.8275C351.403 24.2942 351.259 23.8462 351.067 23.4835C350.875 23.1208 350.635 22.8488 350.347 22.6675C350.059 22.4755 349.723 22.3795 349.339 22.3795C348.955 22.3795 348.619 22.4755 348.331 22.6675C348.043 22.8488 347.803 23.1208 347.611 23.4835C347.419 23.8462 347.275 24.2942 347.179 24.8275C347.083 25.3608 347.035 25.9688 347.035 26.6515C347.035 27.3342 347.083 27.9422 347.179 28.4755C347.275 29.0088 347.419 29.4568 347.611 29.8195C347.803 30.1822 348.043 30.4595 348.331 30.6515C348.619 30.8328 348.955 30.9235 349.339 30.9235ZM355.637 34.4115L354.565 33.7875C355.002 33.5635 355.375 33.3288 355.685 33.0835C355.994 32.8488 356.234 32.5928 356.405 32.3155C356.575 32.0488 356.666 31.7608 356.677 31.4515C356.687 31.4195 356.703 31.3875 356.725 31.3555C356.746 31.3235 356.767 31.3022 356.789 31.2915C356.821 31.2808 356.853 31.2808 356.885 31.2915C356.917 31.2915 356.949 31.3075 356.981 31.3395C356.938 31.4462 356.879 31.5262 356.805 31.5795C356.741 31.6328 356.661 31.6702 356.565 31.6915C356.479 31.7235 356.373 31.7395 356.245 31.7395C355.893 31.7395 355.599 31.6488 355.365 31.4675C355.141 31.2755 355.029 31.0195 355.029 30.6995C355.029 30.3688 355.141 30.1022 355.365 29.8995C355.589 29.6968 355.877 29.5955 356.229 29.5955C356.495 29.5955 356.725 29.6488 356.917 29.7555C357.119 29.8622 357.274 30.0275 357.381 30.2515C357.498 30.4648 357.557 30.7422 357.557 31.0835C357.557 31.5422 357.487 31.9635 357.349 32.3475C357.221 32.7422 357.013 33.1048 356.725 33.4355C356.447 33.7768 356.085 34.1022 355.637 34.4115ZM363.058 31.8675C362.482 31.8675 361.959 31.7502 361.49 31.5155C361.021 31.2808 360.615 30.9395 360.274 30.4915C359.933 30.0328 359.671 29.4835 359.49 28.8435C359.309 28.1928 359.218 27.4622 359.218 26.6515C359.218 25.8408 359.309 25.1155 359.49 24.4755C359.671 23.8355 359.933 23.2915 360.274 22.8435C360.615 22.3848 361.021 22.0382 361.49 21.8035C361.959 21.5688 362.482 21.4515 363.058 21.4515C363.634 21.4515 364.157 21.5688 364.626 21.8035C365.095 22.0382 365.501 22.3848 365.842 22.8435C366.183 23.2915 366.445 23.8355 366.626 24.4755C366.807 25.1155 366.898 25.8408 366.898 26.6515C366.898 27.4622 366.807 28.1928 366.626 28.8435C366.445 29.4835 366.183 30.0328 365.842 30.4915C365.501 30.9395 365.095 31.2808 364.626 31.5155C364.157 31.7502 363.634 31.8675 363.058 31.8675ZM363.058 30.9235C363.442 30.9235 363.778 30.8328 364.066 30.6515C364.354 30.4595 364.594 30.1822 364.786 29.8195C364.978 29.4568 365.122 29.0142 365.218 28.4915C365.314 27.9582 365.362 27.3448 365.362 26.6515C365.362 25.9688 365.314 25.3608 365.218 24.8275C365.122 24.2942 364.978 23.8462 364.786 23.4835C364.594 23.1208 364.354 22.8488 364.066 22.6675C363.778 22.4755 363.442 22.3795 363.058 22.3795C362.674 22.3795 362.338 22.4755 362.05 22.6675C361.762 22.8488 361.522 23.1208 361.33 23.4835C361.138 23.8462 360.994 24.2942 360.898 24.8275C360.802 25.3608 360.754 25.9688 360.754 26.6515C360.754 27.3342 360.802 27.9422 360.898 28.4755C360.994 29.0088 361.138 29.4568 361.33 29.8195C361.522 30.1822 361.762 30.4595 362.05 30.6515C362.338 30.8328 362.674 30.9235 363.058 30.9235ZM372.011 31.8675C371.435 31.8675 370.913 31.7502 370.443 31.5155C369.974 31.2808 369.569 30.9395 369.227 30.4915C368.886 30.0328 368.625 29.4835 368.443 28.8435C368.262 28.1928 368.171 27.4622 368.171 26.6515C368.171 25.8408 368.262 25.1155 368.443 24.4755C368.625 23.8355 368.886 23.2915 369.227 22.8435C369.569 22.3848 369.974 22.0382 370.443 21.8035C370.913 21.5688 371.435 21.4515 372.011 21.4515C372.587 21.4515 373.11 21.5688 373.579 21.8035C374.049 22.0382 374.454 22.3848 374.795 22.8435C375.137 23.2915 375.398 23.8355 375.579 24.4755C375.761 25.1155 375.851 25.8408 375.851 26.6515C375.851 27.4622 375.761 28.1928 375.579 28.8435C375.398 29.4835 375.137 30.0328 374.795 30.4915C374.454 30.9395 374.049 31.2808 373.579 31.5155C373.11 31.7502 372.587 31.8675 372.011 31.8675ZM372.011 30.9235C372.395 30.9235 372.731 30.8328 373.019 30.6515C373.307 30.4595 373.547 30.1822 373.739 29.8195C373.931 29.4568 374.075 29.0142 374.171 28.4915C374.267 27.9582 374.315 27.3448 374.315 26.6515C374.315 25.9688 374.267 25.3608 374.171 24.8275C374.075 24.2942 373.931 23.8462 373.739 23.4835C373.547 23.1208 373.307 22.8488 373.019 22.6675C372.731 22.4755 372.395 22.3795 372.011 22.3795C371.627 22.3795 371.291 22.4755 371.003 22.6675C370.715 22.8488 370.475 23.1208 370.283 23.4835C370.091 23.8462 369.947 24.2942 369.851 24.8275C369.755 25.3608 369.707 25.9688 369.707 26.6515C369.707 27.3342 369.755 27.9422 369.851 28.4755C369.947 29.0088 370.091 29.4568 370.283 29.8195C370.475 30.1822 370.715 30.4595 371.003 30.6515C371.291 30.8328 371.627 30.9235 372.011 30.9235ZM380.964 31.8675C380.388 31.8675 379.866 31.7502 379.396 31.5155C378.927 31.2808 378.522 30.9395 378.18 30.4915C377.839 30.0328 377.578 29.4835 377.396 28.8435C377.215 28.1928 377.124 27.4622 377.124 26.6515C377.124 25.8408 377.215 25.1155 377.396 24.4755C377.578 23.8355 377.839 23.2915 378.18 22.8435C378.522 22.3848 378.927 22.0382 379.396 21.8035C379.866 21.5688 380.388 21.4515 380.964 21.4515C381.54 21.4515 382.063 21.5688 382.532 21.8035C383.002 22.0382 383.407 22.3848 383.748 22.8435C384.09 23.2915 384.351 23.8355 384.532 24.4755C384.714 25.1155 384.804 25.8408 384.804 26.6515C384.804 27.4622 384.714 28.1928 384.532 28.8435C384.351 29.4835 384.09 30.0328 383.748 30.4915C383.407 30.9395 383.002 31.2808 382.532 31.5155C382.063 31.7502 381.54 31.8675 380.964 31.8675ZM380.964 30.9235C381.348 30.9235 381.684 30.8328 381.972 30.6515C382.26 30.4595 382.5 30.1822 382.692 29.8195C382.884 29.4568 383.028 29.0142 383.124 28.4915C383.22 27.9582 383.268 27.3448 383.268 26.6515C383.268 25.9688 383.22 25.3608 383.124 24.8275C383.028 24.2942 382.884 23.8462 382.692 23.4835C382.5 23.1208 382.26 22.8488 381.972 22.6675C381.684 22.4755 381.348 22.3795 380.964 22.3795C380.58 22.3795 380.244 22.4755 379.956 22.6675C379.668 22.8488 379.428 23.1208 379.236 23.4835C379.044 23.8462 378.9 24.2942 378.804 24.8275C378.708 25.3608 378.66 25.9688 378.66 26.6515C378.66 27.3342 378.708 27.9422 378.804 28.4755C378.9 29.0088 379.044 29.4568 379.236 29.8195C379.428 30.1822 379.668 30.4595 379.956 30.6515C380.244 30.8328 380.58 30.9235 380.964 30.9235Z" fill="black"/>
<path d="M323.936 61.5555L325.344 61.2515L327.632 65.2355C327.739 65.4062 327.851 65.5395 327.968 65.6355C328.096 65.7208 328.24 65.7795 328.4 65.8115C328.571 65.8435 328.752 65.8595 328.944 65.8595H329.088V66.6915H326.704L323.936 61.5555ZM321.808 65.6995C321.808 65.7315 321.845 65.7582 321.92 65.7795C322.005 65.7902 322.112 65.8062 322.24 65.8275C322.368 65.8382 322.512 65.8488 322.672 65.8595C322.832 65.8595 322.987 65.8595 323.136 65.8595H323.392V66.6915H318.8V65.8595H318.976C319.371 65.8595 319.696 65.8222 319.952 65.7475C320.208 65.6728 320.336 65.5182 320.336 65.2835V56.7395C320.336 56.5048 320.208 56.3502 319.952 56.2755C319.696 56.2008 319.371 56.1635 318.976 56.1635H318.8V55.3315H323.68C324.533 55.3315 325.259 55.4595 325.856 55.7155C326.453 55.9715 326.912 56.3395 327.232 56.8195C327.563 57.2995 327.728 57.8702 327.728 58.5315C327.728 59.0648 327.611 59.5448 327.376 59.9715C327.152 60.3875 326.832 60.7395 326.416 61.0275C326 61.3155 325.499 61.5342 324.912 61.6835C324.795 61.7155 324.672 61.7475 324.544 61.7795C324.427 61.8115 324.304 61.8382 324.176 61.8595C324.059 61.8702 323.931 61.8755 323.792 61.8755H321.552V60.9635H323.568C324.165 60.9635 324.651 60.8675 325.024 60.6755C325.397 60.4835 325.675 60.2115 325.856 59.8595C326.037 59.4968 326.128 59.0702 326.128 58.5795C326.128 58.0995 326.037 57.6888 325.856 57.3475C325.675 57.0062 325.397 56.7448 325.024 56.5635C324.661 56.3822 324.203 56.2915 323.648 56.2915H321.808V65.6995ZM335.728 61.5555V62.4035C335.109 62.4782 334.576 62.5635 334.128 62.6595C333.68 62.7555 333.301 62.8675 332.992 62.9955C332.683 63.1235 332.432 63.2675 332.24 63.4275C332.059 63.5768 331.925 63.7528 331.84 63.9555C331.765 64.1582 331.728 64.3822 331.728 64.6275C331.728 64.9048 331.787 65.1448 331.904 65.3475C332.021 65.5395 332.192 65.6888 332.416 65.7955C332.64 65.9022 332.896 65.9555 333.184 65.9555C333.536 65.9555 333.856 65.8702 334.144 65.6995C334.432 65.5288 334.704 65.2835 334.96 64.9635C335.216 64.6435 335.461 64.2488 335.696 63.7795V64.7875C335.504 65.2142 335.269 65.5822 334.992 65.8915C334.715 66.2008 334.395 66.4408 334.032 66.6115C333.68 66.7822 333.28 66.8675 332.832 66.8675C332.341 66.8675 331.899 66.7822 331.504 66.6115C331.12 66.4302 330.816 66.1742 330.592 65.8435C330.368 65.5022 330.256 65.0968 330.256 64.6275C330.256 64.1902 330.357 63.8062 330.56 63.4755C330.773 63.1448 331.099 62.8622 331.536 62.6275C331.984 62.3822 332.549 62.1742 333.232 62.0035C333.925 61.8328 334.757 61.6835 335.728 61.5555ZM335.616 66.6915L335.488 64.8835L335.376 64.8035V60.7395C335.376 60.3235 335.317 59.9928 335.2 59.7475C335.093 59.4915 334.917 59.3102 334.672 59.2035C334.427 59.0968 334.101 59.0435 333.696 59.0435C333.099 59.0435 332.608 59.1395 332.224 59.3315C331.84 59.5235 331.552 59.7368 331.36 59.9715C331.349 59.8648 331.36 59.7635 331.392 59.6675C331.435 59.5715 331.488 59.4862 331.552 59.4115C331.627 59.3262 331.712 59.2568 331.808 59.2035C331.915 59.1395 332.027 59.0915 332.144 59.0595V60.8515H330.736V58.9955C330.896 58.8782 331.115 58.7502 331.392 58.6115C331.669 58.4728 332.011 58.3555 332.416 58.2595C332.821 58.1528 333.275 58.0995 333.776 58.0995C334.192 58.0995 334.576 58.1422 334.928 58.2275C335.291 58.3128 335.611 58.4515 335.888 58.6435C336.176 58.8355 336.395 59.0915 336.544 59.4115C336.704 59.7208 336.784 60.1048 336.784 60.5635V65.2675C336.784 65.4168 336.837 65.5342 336.944 65.6195C337.061 65.7048 337.216 65.7688 337.408 65.8115C337.611 65.8435 337.845 65.8702 338.112 65.8915L338.16 65.9075V66.6915H335.616ZM341.078 56.4995C340.79 56.4995 340.55 56.4142 340.358 56.2435C340.166 56.0622 340.07 55.8115 340.07 55.4915C340.07 55.1715 340.166 54.9262 340.358 54.7555C340.55 54.5848 340.79 54.4995 341.078 54.4995C341.376 54.4995 341.622 54.5848 341.814 54.7555C342.006 54.9262 342.102 55.1715 342.102 55.4915C342.102 55.8115 342.006 56.0622 341.814 56.2435C341.622 56.4142 341.376 56.4995 341.078 56.4995ZM341.894 58.2595V65.2035C341.894 65.5022 342.016 65.6995 342.262 65.7955C342.507 65.8915 342.832 65.9395 343.238 65.9395H343.286V66.6915H339.094V65.9395H339.126C339.531 65.9395 339.856 65.8915 340.102 65.7955C340.358 65.6995 340.486 65.5022 340.486 65.2035V59.8115C340.486 59.5768 340.384 59.4168 340.182 59.3315C339.979 59.2462 339.67 59.1662 339.254 59.0915L339.078 59.0595V58.2595H341.894ZM349.781 64.4835C349.781 64.2382 349.717 64.0355 349.589 63.8755C349.472 63.7048 349.307 63.5715 349.093 63.4755C348.891 63.3688 348.656 63.2782 348.389 63.2035C348.133 63.1288 347.861 63.0595 347.573 62.9955C347.232 62.9208 346.891 62.8302 346.549 62.7235C346.219 62.6062 345.915 62.4622 345.637 62.2915C345.36 62.1102 345.141 61.8755 344.981 61.5875C344.821 61.2995 344.741 60.9422 344.741 60.5155C344.741 60.0248 344.859 59.5982 345.093 59.2355C345.339 58.8728 345.691 58.5955 346.149 58.4035C346.608 58.2008 347.168 58.0995 347.829 58.0995C348.341 58.0995 348.784 58.1315 349.157 58.1955C349.541 58.2595 349.861 58.3395 350.117 58.4355C350.373 58.5315 350.565 58.6222 350.693 58.7075V60.6275H349.285V59.0115C349.403 59.0115 349.499 59.0275 349.573 59.0595C349.659 59.0915 349.723 59.1395 349.765 59.2035C349.819 59.2675 349.851 59.3475 349.861 59.4435C349.883 59.5395 349.888 59.6462 349.877 59.7635C349.749 59.6035 349.579 59.4702 349.365 59.3635C349.163 59.2462 348.933 59.1608 348.677 59.1075C348.421 59.0542 348.139 59.0275 347.829 59.0275C347.221 59.0275 346.773 59.1502 346.485 59.3955C346.197 59.6302 346.053 59.9448 346.053 60.3395C346.053 60.5955 346.112 60.8088 346.229 60.9795C346.357 61.1395 346.528 61.2728 346.741 61.3795C346.955 61.4862 347.195 61.5768 347.461 61.6515C347.739 61.7262 348.032 61.8008 348.341 61.8755C348.672 61.9502 349.003 62.0408 349.333 62.1475C349.664 62.2542 349.963 62.3982 350.229 62.5795C350.507 62.7608 350.725 62.9955 350.885 63.2835C351.045 63.5608 351.125 63.9128 351.125 64.3395C351.125 64.8195 350.997 65.2515 350.741 65.6355C350.485 66.0195 350.112 66.3235 349.621 66.5475C349.131 66.7608 348.528 66.8675 347.813 66.8675C347.291 66.8675 346.816 66.8302 346.389 66.7555C345.973 66.6808 345.605 66.5795 345.285 66.4515C344.965 66.3235 344.683 66.1848 344.437 66.0355V64.0355H345.861V66.1795C345.701 66.0942 345.573 66.0088 345.477 65.9235C345.392 65.8275 345.333 65.7368 345.301 65.6515C345.269 65.5555 345.253 65.4595 345.253 65.3635C345.264 65.2675 345.28 65.1715 345.301 65.0755C345.472 65.2568 345.68 65.4115 345.925 65.5395C346.181 65.6568 346.464 65.7528 346.773 65.8275C347.093 65.8915 347.435 65.9235 347.797 65.9235C348.235 65.9235 348.597 65.8702 348.885 65.7635C349.173 65.6568 349.392 65.4968 349.541 65.2835C349.701 65.0702 349.781 64.8035 349.781 64.4835ZM353.942 62.5475C353.942 63.1342 354.012 63.6408 354.15 64.0675C354.3 64.4942 354.502 64.8462 354.758 65.1235C355.014 65.3902 355.313 65.5928 355.654 65.7315C355.996 65.8595 356.369 65.9235 356.774 65.9235C357.212 65.9235 357.59 65.8435 357.91 65.6835C358.241 65.5128 358.524 65.3048 358.758 65.0595C358.993 64.8142 359.19 64.5582 359.35 64.2915L360.118 64.9315C359.916 65.2942 359.654 65.6248 359.334 65.9235C359.014 66.2222 358.636 66.4568 358.198 66.6275C357.772 66.7875 357.286 66.8675 356.742 66.8675C355.942 66.8675 355.217 66.6968 354.566 66.3555C353.926 66.0142 353.42 65.5182 353.046 64.8675C352.673 64.2168 352.486 63.4382 352.486 62.5315C352.486 61.6462 352.657 60.8728 352.998 60.2115C353.35 59.5502 353.825 59.0328 354.422 58.6595C355.02 58.2862 355.697 58.0995 356.454 58.0995C357.062 58.0995 357.59 58.2008 358.038 58.4035C358.497 58.5955 358.881 58.8942 359.19 59.2995C359.5 59.6942 359.734 60.1902 359.894 60.7875C360.054 61.3742 360.134 62.0675 360.134 62.8675H353.622V61.9555H359.078L358.646 62.3075C358.625 61.7208 358.566 61.2248 358.47 60.8195C358.385 60.4035 358.257 60.0675 358.086 59.8115C357.916 59.5448 357.692 59.3528 357.414 59.2355C357.148 59.1075 356.828 59.0435 356.454 59.0435C356.092 59.0435 355.756 59.1182 355.446 59.2675C355.137 59.4168 354.87 59.6408 354.646 59.9395C354.422 60.2382 354.246 60.6062 354.118 61.0435C354.001 61.4808 353.942 61.9822 353.942 62.5475ZM369.707 65.2675C369.707 65.5022 369.825 65.6568 370.059 65.7315C370.305 65.8062 370.625 65.8595 371.019 65.8915L371.083 65.9075V66.6915H368.491L368.363 64.8515L368.283 64.8195V56.2435C368.283 56.0835 368.235 55.9608 368.139 55.8755C368.054 55.7902 367.915 55.7208 367.723 55.6675C367.542 55.6142 367.313 55.5662 367.035 55.5235L366.859 55.4915V54.6915H369.707V65.2675ZM365.531 58.0995C365.99 58.0995 366.395 58.1742 366.747 58.3235C367.11 58.4622 367.435 58.6755 367.723 58.9635C368.022 59.2408 368.305 59.5928 368.571 60.0195L368.539 61.2035C368.283 60.7128 368.006 60.3128 367.707 60.0035C367.419 59.6835 367.099 59.4488 366.747 59.2995C366.406 59.1395 366.027 59.0595 365.611 59.0595C365.206 59.0595 364.843 59.1395 364.523 59.2995C364.214 59.4488 363.953 59.6728 363.739 59.9715C363.537 60.2702 363.382 60.6382 363.275 61.0755C363.169 61.5022 363.115 61.9928 363.115 62.5475C363.115 63.0702 363.163 63.5395 363.259 63.9555C363.366 64.3715 363.515 64.7288 363.707 65.0275C363.91 65.3155 364.161 65.5342 364.459 65.6835C364.769 65.8328 365.126 65.9075 365.531 65.9075C365.969 65.9075 366.363 65.8275 366.715 65.6675C367.078 65.5075 367.409 65.2675 367.707 64.9475C368.006 64.6168 368.289 64.2115 368.555 63.7315L368.571 64.8355C368.294 65.2728 368.001 65.6462 367.691 65.9555C367.393 66.2542 367.057 66.4835 366.683 66.6435C366.31 66.7928 365.883 66.8675 365.403 66.8675C364.625 66.8675 363.953 66.6862 363.387 66.3235C362.822 65.9608 362.385 65.4542 362.075 64.8035C361.766 64.1528 361.611 63.4008 361.611 62.5475C361.611 61.6728 361.771 60.9048 362.091 60.2435C362.411 59.5715 362.865 59.0488 363.451 58.6755C364.038 58.2915 364.731 58.0995 365.531 58.0995Z" fill="#5C5C5C"/>
<path d="M636.464 29.8354V28.3634L640.688 21.6434H641.792L641.44 22.3474L637.12 29.2434L637.088 28.4914H644.8V29.8354H636.464ZM643.088 32.7794H641.232V22.1874L641.328 21.6434H643.088V32.7794ZM649.193 32.9554C648.478 32.9554 647.87 32.8541 647.369 32.6514C646.868 32.4487 646.452 32.1661 646.121 31.8034C645.801 31.4407 645.54 31.0354 645.337 30.5874L646.345 29.9314C646.484 30.2301 646.66 30.5287 646.873 30.8274C647.097 31.1261 647.385 31.3767 647.737 31.5794C648.089 31.7714 648.542 31.8674 649.097 31.8674C649.566 31.8674 649.966 31.7661 650.297 31.5634C650.638 31.3501 650.9 31.0354 651.081 30.6194C651.262 30.2034 651.353 29.6861 651.353 29.0674C651.353 28.4914 651.268 28.0221 651.097 27.6594C650.937 27.2967 650.708 27.0301 650.409 26.8594C650.11 26.6781 649.764 26.5874 649.369 26.5874C649.07 26.5874 648.793 26.6301 648.537 26.7154C648.292 26.8007 648.068 26.9341 647.865 27.1154C647.662 27.2861 647.47 27.5047 647.289 27.7714H646.281V21.6274H652.553L652.185 23.1154H647.033L647.433 21.9474V27.0674C647.412 27.1207 647.369 27.1634 647.305 27.1954C647.252 27.2274 647.198 27.2434 647.145 27.2434C647.092 27.2327 647.06 27.1847 647.049 27.0994C647.241 26.7687 647.465 26.4861 647.721 26.2514C647.988 26.0061 648.297 25.8247 648.649 25.7074C649.001 25.5794 649.396 25.5154 649.833 25.5154C650.548 25.5154 651.161 25.6701 651.673 25.9794C652.185 26.2887 652.574 26.7101 652.841 27.2434C653.118 27.7767 653.257 28.3847 653.257 29.0674C653.257 29.8674 653.086 30.5607 652.745 31.1474C652.414 31.7341 651.945 32.1821 651.337 32.4914C650.729 32.8007 650.014 32.9554 649.193 32.9554Z" fill="black"/>
<path d="M636.8 56.1632V55.3312H641.712C642.629 55.3312 643.456 55.4592 644.192 55.7152C644.939 55.9605 645.579 56.3232 646.112 56.8032C646.645 57.2832 647.051 57.8752 647.328 58.5792C647.616 59.2832 647.76 60.0779 647.76 60.9632C647.76 61.8592 647.616 62.6592 647.328 63.3632C647.051 64.0672 646.645 64.6699 646.112 65.1712C645.579 65.6619 644.939 66.0405 644.192 66.3072C643.456 66.5632 642.629 66.6912 641.712 66.6912H636.8V65.8592H636.992C637.387 65.8592 637.712 65.8219 637.968 65.7472C638.224 65.6725 638.352 65.5179 638.352 65.2832V56.7392C638.352 56.5152 638.224 56.3659 637.968 56.2912C637.712 56.2059 637.387 56.1632 636.992 56.1632H636.8ZM641.712 56.2912H639.824V65.7312H641.712C642.427 65.7312 643.056 65.6299 643.6 65.4272C644.155 65.2245 644.619 64.9205 644.992 64.5152C645.376 64.1099 645.664 63.6139 645.856 63.0272C646.059 62.4299 646.16 61.7419 646.16 60.9632C646.16 60.1952 646.059 59.5179 645.856 58.9312C645.664 58.3445 645.376 57.8592 644.992 57.4752C644.619 57.0805 644.155 56.7872 643.6 56.5952C643.056 56.3925 642.427 56.2912 641.712 56.2912ZM654.994 61.5552V62.4032C654.375 62.4779 653.842 62.5632 653.394 62.6592C652.946 62.7552 652.567 62.8672 652.258 62.9952C651.948 63.1232 651.698 63.2672 651.506 63.4272C651.324 63.5765 651.191 63.7525 651.106 63.9552C651.031 64.1579 650.994 64.3819 650.994 64.6272C650.994 64.9045 651.052 65.1445 651.17 65.3472C651.287 65.5392 651.458 65.6885 651.682 65.7952C651.906 65.9019 652.162 65.9552 652.45 65.9552C652.802 65.9552 653.122 65.8699 653.41 65.6992C653.698 65.5285 653.97 65.2832 654.226 64.9632C654.482 64.6432 654.727 64.2485 654.962 63.7792V64.7872C654.77 65.2139 654.535 65.5819 654.258 65.8912C653.98 66.2005 653.66 66.4405 653.298 66.6112C652.946 66.7819 652.546 66.8672 652.098 66.8672C651.607 66.8672 651.164 66.7819 650.77 66.6112C650.386 66.4299 650.082 66.1739 649.858 65.8432C649.634 65.5019 649.522 65.0965 649.522 64.6272C649.522 64.1899 649.623 63.8059 649.826 63.4752C650.039 63.1445 650.364 62.8619 650.802 62.6272C651.25 62.3819 651.815 62.1739 652.498 62.0032C653.191 61.8325 654.023 61.6832 654.994 61.5552ZM654.882 66.6912L654.754 64.8832L654.642 64.8032V60.7392C654.642 60.3232 654.583 59.9925 654.466 59.7472C654.359 59.4912 654.183 59.3099 653.938 59.2032C653.692 59.0965 653.367 59.0432 652.962 59.0432C652.364 59.0432 651.874 59.1392 651.49 59.3312C651.106 59.5232 650.818 59.7365 650.626 59.9712C650.615 59.8645 650.626 59.7632 650.658 59.6672C650.7 59.5712 650.754 59.4859 650.818 59.4112C650.892 59.3259 650.978 59.2565 651.074 59.2032C651.18 59.1392 651.292 59.0912 651.41 59.0592V60.8512H650.002V58.9952C650.162 58.8779 650.38 58.7499 650.658 58.6112C650.935 58.4725 651.276 58.3552 651.682 58.2592C652.087 58.1525 652.54 58.0992 653.042 58.0992C653.458 58.0992 653.842 58.1419 654.194 58.2272C654.556 58.3125 654.876 58.4512 655.154 58.6432C655.442 58.8352 655.66 59.0912 655.81 59.4112C655.97 59.7205 656.05 60.1045 656.05 60.5632V65.2672C656.05 65.4165 656.103 65.5339 656.21 65.6192C656.327 65.7045 656.482 65.7685 656.674 65.8112C656.876 65.8432 657.111 65.8699 657.378 65.8912L657.426 65.9072V66.6912H654.882ZM662.817 65.9872L662.641 66.5792L661.841 67.0112L658.769 59.6032C658.716 59.4539 658.63 59.3419 658.513 59.2672C658.406 59.1925 658.268 59.1392 658.097 59.1072C657.937 59.0752 657.75 59.0592 657.537 59.0592H657.457V58.2592H661.521V59.0592H661.457C661.244 59.0592 661.03 59.0645 660.817 59.0752C660.614 59.0859 660.444 59.1019 660.305 59.1232C660.166 59.1339 660.097 59.1552 660.097 59.1872L662.817 65.9872ZM663.025 66.4192C662.726 67.1339 662.433 67.7472 662.145 68.2592C661.857 68.7712 661.558 69.1819 661.249 69.4912C660.95 69.8005 660.625 70.0299 660.273 70.1792C659.932 70.3285 659.542 70.4032 659.105 70.4032C658.828 70.4032 658.582 70.3712 658.369 70.3072C658.166 70.2539 658.006 70.1899 657.889 70.1152V68.8352C657.921 68.8459 657.996 68.8725 658.113 68.9152C658.23 68.9685 658.374 69.0165 658.545 69.0592C658.726 69.1019 658.918 69.1232 659.121 69.1232C659.388 69.1232 659.644 69.0859 659.889 69.0112C660.134 68.9365 660.38 68.7819 660.625 68.5472C660.881 68.3232 661.137 67.9925 661.393 67.5552C661.66 67.1179 661.932 66.5419 662.209 65.8272L662.321 65.5552L664.817 59.3952C664.817 59.3312 664.753 59.2779 664.625 59.2352C664.497 59.1819 664.332 59.1392 664.129 59.1072C663.926 59.0752 663.718 59.0592 663.505 59.0592H663.425V58.2592H667.089V59.0592H667.025C666.854 59.0592 666.689 59.0805 666.529 59.1232C666.369 59.1552 666.22 59.2245 666.081 59.3312C665.953 59.4379 665.846 59.5925 665.761 59.7952L663.025 66.4192ZM673.094 64.4832C673.094 64.2379 673.03 64.0352 672.902 63.8752C672.784 63.7045 672.619 63.5712 672.406 63.4752C672.203 63.3685 671.968 63.2779 671.702 63.2032C671.446 63.1285 671.174 63.0592 670.886 62.9952C670.544 62.9205 670.203 62.8299 669.862 62.7232C669.531 62.6059 669.227 62.4619 668.95 62.2912C668.672 62.1099 668.454 61.8752 668.294 61.5872C668.134 61.2992 668.054 60.9419 668.054 60.5152C668.054 60.0245 668.171 59.5979 668.406 59.2352C668.651 58.8725 669.003 58.5952 669.462 58.4032C669.92 58.2005 670.48 58.0992 671.142 58.0992C671.654 58.0992 672.096 58.1312 672.47 58.1952C672.854 58.2592 673.174 58.3392 673.43 58.4352C673.686 58.5312 673.878 58.6219 674.006 58.7072V60.6272H672.598V59.0112C672.715 59.0112 672.811 59.0272 672.886 59.0592C672.971 59.0912 673.035 59.1392 673.078 59.2032C673.131 59.2672 673.163 59.3472 673.174 59.4432C673.195 59.5392 673.2 59.6459 673.19 59.7632C673.062 59.6032 672.891 59.4699 672.678 59.3632C672.475 59.2459 672.246 59.1605 671.99 59.1072C671.734 59.0539 671.451 59.0272 671.142 59.0272C670.534 59.0272 670.086 59.1499 669.798 59.3952C669.51 59.6299 669.366 59.9445 669.366 60.3392C669.366 60.5952 669.424 60.8085 669.542 60.9792C669.67 61.1392 669.84 61.2725 670.054 61.3792C670.267 61.4859 670.507 61.5765 670.774 61.6512C671.051 61.7259 671.344 61.8005 671.654 61.8752C671.984 61.9499 672.315 62.0405 672.646 62.1472C672.976 62.2539 673.275 62.3979 673.542 62.5792C673.819 62.7605 674.038 62.9952 674.198 63.2832C674.358 63.5605 674.438 63.9125 674.438 64.3392C674.438 64.8192 674.31 65.2512 674.054 65.6352C673.798 66.0192 673.424 66.3232 672.934 66.5472C672.443 66.7605 671.84 66.8672 671.126 66.8672C670.603 66.8672 670.128 66.8299 669.702 66.7552C669.286 66.6805 668.918 66.5792 668.598 66.4512C668.278 66.3232 667.995 66.1845 667.75 66.0352V64.0352H669.174V66.1792C669.014 66.0939 668.886 66.0085 668.79 65.9232C668.704 65.8272 668.646 65.7365 668.614 65.6512C668.582 65.5552 668.566 65.4592 668.566 65.3632C668.576 65.2672 668.592 65.1712 668.614 65.0752C668.784 65.2565 668.992 65.4112 669.238 65.5392C669.494 65.6565 669.776 65.7525 670.086 65.8272C670.406 65.8912 670.747 65.9232 671.11 65.9232C671.547 65.9232 671.91 65.8699 672.198 65.7632C672.486 65.6565 672.704 65.4965 672.854 65.2832C673.014 65.0699 673.094 64.8032 673.094 64.4832ZM684.675 55.3312V56.1632H684.483C684.067 56.1632 683.72 56.2005 683.443 56.2752C683.176 56.3499 683.043 56.5045 683.043 56.7392V65.7312H685.475C685.933 65.7312 686.307 65.7152 686.595 65.6832C686.883 65.6405 687.096 65.5712 687.235 65.4752C687.373 65.3685 687.453 65.2192 687.475 65.0272L687.651 63.0432H688.643V66.6912H680.019V65.8592H680.195C680.589 65.8592 680.915 65.8219 681.171 65.7472C681.427 65.6725 681.555 65.5179 681.555 65.2832V56.7392C681.555 56.5045 681.427 56.3499 681.171 56.2752C680.915 56.2005 680.589 56.1632 680.195 56.1632H680.019V55.3312H684.675ZM691.646 62.5472C691.646 63.1339 691.715 63.6405 691.854 64.0672C692.003 64.4939 692.206 64.8459 692.462 65.1232C692.718 65.3899 693.016 65.5925 693.358 65.7312C693.699 65.8592 694.072 65.9232 694.478 65.9232C694.915 65.9232 695.294 65.8432 695.614 65.6832C695.944 65.5125 696.227 65.3045 696.462 65.0592C696.696 64.8139 696.894 64.5579 697.054 64.2912L697.822 64.9312C697.619 65.2939 697.358 65.6245 697.038 65.9232C696.718 66.2219 696.339 66.4565 695.902 66.6272C695.475 66.7872 694.99 66.8672 694.446 66.8672C693.646 66.8672 692.92 66.6965 692.27 66.3552C691.63 66.0139 691.123 65.5179 690.75 64.8672C690.376 64.2165 690.19 63.4379 690.19 62.5312C690.19 61.6459 690.36 60.8725 690.702 60.2112C691.054 59.5499 691.528 59.0325 692.126 58.6592C692.723 58.2859 693.4 58.0992 694.158 58.0992C694.766 58.0992 695.294 58.2005 695.742 58.4032C696.2 58.5952 696.584 58.8939 696.894 59.2992C697.203 59.6939 697.438 60.1899 697.598 60.7872C697.758 61.3739 697.838 62.0672 697.838 62.8672H691.326V61.9552H696.782L696.35 62.3072C696.328 61.7205 696.27 61.2245 696.174 60.8192C696.088 60.4032 695.96 60.0672 695.79 59.8112C695.619 59.5445 695.395 59.3525 695.118 59.2352C694.851 59.1072 694.531 59.0432 694.158 59.0432C693.795 59.0432 693.459 59.1179 693.15 59.2672C692.84 59.4165 692.574 59.6405 692.35 59.9392C692.126 60.2379 691.95 60.6059 691.822 61.0432C691.704 61.4805 691.646 61.9819 691.646 62.5472ZM699.094 58.2592H704.71V59.2032H699.094V58.2592ZM705.366 54.6112V55.6672C705.195 55.6139 704.982 55.5605 704.726 55.5072C704.48 55.4539 704.208 55.4272 703.91 55.4272C703.579 55.4272 703.286 55.4805 703.03 55.5872C702.784 55.6832 702.592 55.8699 702.454 56.1472C702.315 56.4139 702.246 56.7979 702.246 57.2992V65.7792C702.246 65.8112 702.32 65.8432 702.47 65.8752C702.619 65.8965 702.806 65.9125 703.03 65.9232C703.264 65.9339 703.504 65.9392 703.75 65.9392H704.07V66.6912H699.158V65.9392H699.398C699.846 65.9392 700.192 65.8912 700.438 65.7952C700.694 65.6885 700.822 65.4752 700.822 65.1552V57.2512C700.822 56.5152 700.966 55.9499 701.254 55.5552C701.552 55.1499 701.936 54.8672 702.406 54.7072C702.886 54.5365 703.387 54.4512 703.91 54.4512C704.198 54.4512 704.475 54.4672 704.742 54.4992C705.019 54.5312 705.227 54.5685 705.366 54.6112ZM705.598 59.2032V58.3392H705.742C706.084 58.3392 706.372 58.3179 706.606 58.2752C706.852 58.2219 707.033 58.1259 707.15 57.9872C707.278 57.8485 707.342 57.6459 707.342 57.3792L708.382 58.2592H711.326V59.2032H705.598ZM708.654 64.0192C708.654 64.4779 708.718 64.8459 708.846 65.1232C708.974 65.3899 709.156 65.5819 709.39 65.6992C709.636 65.8059 709.918 65.8592 710.238 65.8592C710.494 65.8592 710.734 65.8432 710.958 65.8112C711.182 65.7685 711.348 65.7312 711.454 65.6992V66.6432C711.348 66.6859 711.22 66.7232 711.07 66.7552C710.921 66.7872 710.761 66.8139 710.59 66.8352C710.43 66.8565 710.26 66.8672 710.078 66.8672C709.588 66.8672 709.124 66.7872 708.686 66.6272C708.26 66.4672 707.908 66.1845 707.63 65.7792C707.364 65.3739 707.23 64.7925 707.23 64.0352V58.4992L707.342 58.3712V55.8752H708.654V64.0192Z" fill="#5C5C5C"/>
<path d="M1232 16.6914H954V70.6914H1232V16.6914Z" fill="#F3F0F0"/>
<path d="M1026.16 40.7592H1031.77V41.7032H1026.16V40.7592ZM1032.43 37.1112V38.1672C1032.26 38.1139 1032.04 38.0605 1031.79 38.0072C1031.54 37.9539 1031.27 37.9272 1030.97 37.9272C1030.64 37.9272 1030.35 37.9805 1030.09 38.0872C1029.85 38.1832 1029.65 38.3699 1029.52 38.6472C1029.38 38.9139 1029.31 39.2979 1029.31 39.7992V48.2792C1029.31 48.3112 1029.38 48.3432 1029.53 48.3752C1029.68 48.3965 1029.87 48.4125 1030.09 48.4232C1030.33 48.4339 1030.57 48.4392 1030.81 48.4392H1031.13V49.1912H1026.22V48.4392H1026.46C1026.91 48.4392 1027.25 48.3912 1027.5 48.2952C1027.76 48.1885 1027.88 47.9752 1027.88 47.6552V39.7512C1027.88 39.0152 1028.03 38.4499 1028.32 38.0552C1028.61 37.6499 1029 37.3672 1029.47 37.2072C1029.95 37.0365 1030.45 36.9512 1030.97 36.9512C1031.26 36.9512 1031.54 36.9672 1031.8 36.9992C1032.08 37.0312 1032.29 37.0685 1032.43 37.1112ZM1035.4 40.7592V46.6952C1035.4 47.0579 1035.45 47.3619 1035.53 47.6072C1035.63 47.8419 1035.77 48.0179 1035.96 48.1352C1036.17 48.2525 1036.44 48.3112 1036.78 48.3112C1037.13 48.3112 1037.47 48.2419 1037.79 48.1032C1038.11 47.9645 1038.42 47.7619 1038.72 47.4952C1039.03 47.2179 1039.32 46.8712 1039.61 46.4552V47.3992C1039.31 47.8259 1039 48.1832 1038.68 48.4712C1038.36 48.7592 1038.02 48.9779 1037.64 49.1272C1037.28 49.2765 1036.88 49.3512 1036.44 49.3512C1035.94 49.3512 1035.51 49.2659 1035.13 49.0952C1034.77 48.9139 1034.49 48.6365 1034.28 48.2632C1034.08 47.8899 1033.98 47.4312 1033.98 46.8872V42.3112C1033.98 42.0765 1033.88 41.9112 1033.68 41.8152C1033.48 41.7192 1033.18 41.6445 1032.76 41.5912L1032.54 41.5592V40.7592H1035.4ZM1040.75 40.7592V47.7672C1040.75 47.9165 1040.8 48.0339 1040.91 48.1192C1041.03 48.2045 1041.18 48.2685 1041.37 48.3112C1041.57 48.3432 1041.8 48.3699 1042.06 48.3912L1042.14 48.4072V49.1912H1039.55L1039.42 47.3992L1039.32 47.2552V42.3112C1039.32 42.0765 1039.22 41.9112 1039.02 41.8152C1038.82 41.7192 1038.5 41.6499 1038.08 41.6072L1037.69 41.5592V40.7592H1040.75ZM1043.17 49.1912V48.4392H1043.22C1043.49 48.4392 1043.72 48.4179 1043.92 48.3752C1044.13 48.3325 1044.28 48.2525 1044.39 48.1352C1044.5 48.0179 1044.56 47.8579 1044.56 47.6552V42.3112C1044.56 42.1512 1044.52 42.0339 1044.42 41.9592C1044.33 41.8739 1044.2 41.8045 1044.02 41.7512C1043.84 41.6979 1043.61 41.6445 1043.33 41.5912L1043.17 41.5592V40.7592H1045.76L1045.89 42.5352L1045.99 42.6472V48.2792C1045.99 48.3112 1046.05 48.3432 1046.18 48.3752C1046.31 48.3965 1046.46 48.4125 1046.64 48.4232C1046.82 48.4339 1046.99 48.4392 1047.14 48.4392H1047.19V49.1912H1043.17ZM1052.76 49.1912H1048.74V48.4392H1048.79C1048.94 48.4392 1049.1 48.4339 1049.28 48.4232C1049.46 48.4125 1049.62 48.3965 1049.75 48.3752C1049.89 48.3432 1049.96 48.3112 1049.96 48.2792V43.2392C1049.96 42.8765 1049.91 42.5779 1049.83 42.3432C1049.74 42.1085 1049.6 41.9325 1049.4 41.8152C1049.19 41.6979 1048.92 41.6392 1048.58 41.6392C1048.23 41.6392 1047.89 41.7085 1047.56 41.8472C1047.22 41.9859 1046.9 42.1939 1046.6 42.4712C1046.3 42.7485 1046 43.0952 1045.7 43.5112V42.5832C1046 42.1459 1046.31 41.7832 1046.63 41.4952C1046.96 41.1965 1047.31 40.9725 1047.68 40.8232C1048.06 40.6739 1048.46 40.5992 1048.9 40.5992C1049.42 40.5992 1049.86 40.6899 1050.23 40.8712C1050.59 41.0419 1050.87 41.3139 1051.08 41.6872C1051.28 42.0499 1051.38 42.5085 1051.38 43.0632V47.6552C1051.38 47.8579 1051.43 48.0179 1051.54 48.1352C1051.66 48.2525 1051.81 48.3325 1052 48.3752C1052.21 48.4179 1052.45 48.4392 1052.72 48.4392H1052.76V49.1912ZM1062.02 47.7672C1062.02 48.0019 1062.14 48.1565 1062.37 48.2312C1062.62 48.3059 1062.94 48.3592 1063.33 48.3912L1063.4 48.4072V49.1912H1060.8L1060.68 47.3512L1060.6 47.3192V38.7432C1060.6 38.5832 1060.55 38.4605 1060.45 38.3752C1060.37 38.2899 1060.23 38.2205 1060.04 38.1672C1059.85 38.1139 1059.63 38.0659 1059.35 38.0232L1059.17 37.9912V37.1912H1062.02V47.7672ZM1057.84 40.5992C1058.3 40.5992 1058.71 40.6739 1059.06 40.8232C1059.42 40.9619 1059.75 41.1752 1060.04 41.4632C1060.33 41.7405 1060.62 42.0925 1060.88 42.5192L1060.85 43.7032C1060.6 43.2125 1060.32 42.8125 1060.02 42.5032C1059.73 42.1832 1059.41 41.9485 1059.06 41.7992C1058.72 41.6392 1058.34 41.5592 1057.92 41.5592C1057.52 41.5592 1057.16 41.6392 1056.84 41.7992C1056.53 41.9485 1056.27 42.1725 1056.05 42.4712C1055.85 42.7699 1055.69 43.1379 1055.59 43.5752C1055.48 44.0019 1055.43 44.4925 1055.43 45.0472C1055.43 45.5699 1055.48 46.0392 1055.57 46.4552C1055.68 46.8712 1055.83 47.2285 1056.02 47.5272C1056.22 47.8152 1056.47 48.0339 1056.77 48.1832C1057.08 48.3325 1057.44 48.4072 1057.84 48.4072C1058.28 48.4072 1058.68 48.3272 1059.03 48.1672C1059.39 48.0072 1059.72 47.7672 1060.02 47.4472C1060.32 47.1165 1060.6 46.7112 1060.87 46.2312L1060.88 47.3352C1060.61 47.7725 1060.31 48.1459 1060 48.4552C1059.71 48.7539 1059.37 48.9832 1059 49.1432C1058.62 49.2925 1058.2 49.3672 1057.72 49.3672C1056.94 49.3672 1056.27 49.1859 1055.7 48.8232C1055.13 48.4605 1054.7 47.9539 1054.39 47.3032C1054.08 46.6525 1053.92 45.9005 1053.92 45.0472C1053.92 44.1725 1054.08 43.4045 1054.4 42.7432C1054.72 42.0712 1055.18 41.5485 1055.76 41.1752C1056.35 40.7912 1057.04 40.5992 1057.84 40.5992ZM1068.08 41.7032V40.8392H1068.23C1068.57 40.8392 1068.86 40.8179 1069.09 40.7752C1069.34 40.7219 1069.52 40.6259 1069.63 40.4872C1069.76 40.3485 1069.83 40.1459 1069.83 39.8792L1070.87 40.7592H1073.81V41.7032H1068.08ZM1071.14 46.5192C1071.14 46.9779 1071.2 47.3459 1071.33 47.6232C1071.46 47.8899 1071.64 48.0819 1071.87 48.1992C1072.12 48.3059 1072.4 48.3592 1072.72 48.3592C1072.98 48.3592 1073.22 48.3432 1073.44 48.3112C1073.67 48.2685 1073.83 48.2312 1073.94 48.1992V49.1432C1073.83 49.1859 1073.7 49.2232 1073.55 49.2552C1073.41 49.2872 1073.25 49.3139 1073.07 49.3352C1072.91 49.3565 1072.74 49.3672 1072.56 49.3672C1072.07 49.3672 1071.61 49.2872 1071.17 49.1272C1070.74 48.9672 1070.39 48.6845 1070.11 48.2792C1069.85 47.8739 1069.71 47.2925 1069.71 46.5352V40.9992L1069.83 40.8712V38.3752H1071.14V46.5192ZM1077.88 37.1912V48.2792C1077.88 48.3112 1077.94 48.3432 1078.07 48.3752C1078.2 48.3965 1078.35 48.4125 1078.53 48.4232C1078.72 48.4339 1078.88 48.4392 1079.03 48.4392H1079.09V49.1912H1075.06V48.4392H1075.11C1075.38 48.4392 1075.61 48.4179 1075.81 48.3752C1076.02 48.3325 1076.17 48.2525 1076.28 48.1352C1076.4 48.0179 1076.45 47.8579 1076.45 47.6552V38.7432C1076.45 38.5832 1076.41 38.4605 1076.33 38.3752C1076.24 38.2899 1076.11 38.2205 1075.93 38.1672C1075.74 38.1139 1075.52 38.0659 1075.24 38.0232L1075.06 37.9912V37.1912H1077.88ZM1084.66 49.1912H1080.65V48.4392H1080.69C1080.84 48.4392 1081.01 48.4339 1081.19 48.4232C1081.37 48.4125 1081.53 48.3965 1081.65 48.3752C1081.79 48.3432 1081.86 48.3112 1081.86 48.2792V43.2392C1081.86 42.8765 1081.81 42.5779 1081.72 42.3432C1081.63 42.1085 1081.49 41.9325 1081.29 41.8152C1081.09 41.6979 1080.82 41.6392 1080.47 41.6392C1080.12 41.6392 1079.78 41.7085 1079.45 41.8472C1079.12 41.9859 1078.8 42.1939 1078.49 42.4712C1078.19 42.7485 1077.89 43.0952 1077.59 43.5112V42.5672C1077.9 42.1299 1078.21 41.7672 1078.53 41.4792C1078.86 41.1912 1079.21 40.9725 1079.57 40.8232C1079.95 40.6739 1080.35 40.5992 1080.79 40.5992C1081.31 40.5992 1081.76 40.6899 1082.12 40.8712C1082.49 41.0419 1082.78 41.3139 1082.98 41.6872C1083.18 42.0499 1083.29 42.5085 1083.29 43.0632V47.6552C1083.29 47.9752 1083.41 48.1885 1083.65 48.2952C1083.9 48.3912 1084.22 48.4392 1084.61 48.4392H1084.66V49.1912ZM1087.7 38.9992C1087.41 38.9992 1087.17 38.9139 1086.98 38.7432C1086.79 38.5619 1086.69 38.3112 1086.69 37.9912C1086.69 37.6712 1086.79 37.4259 1086.98 37.2552C1087.17 37.0845 1087.41 36.9992 1087.7 36.9992C1088 36.9992 1088.25 37.0845 1088.44 37.2552C1088.63 37.4259 1088.73 37.6712 1088.73 37.9912C1088.73 38.3112 1088.63 38.5619 1088.44 38.7432C1088.25 38.9139 1088 38.9992 1087.7 38.9992ZM1088.52 40.7592V47.7032C1088.52 48.0019 1088.64 48.1992 1088.89 48.2952C1089.13 48.3912 1089.46 48.4392 1089.86 48.4392H1089.91V49.1912H1085.72V48.4392H1085.75C1086.16 48.4392 1086.48 48.3912 1086.73 48.2952C1086.98 48.1992 1087.11 48.0019 1087.11 47.7032V42.3112C1087.11 42.0765 1087.01 41.9165 1086.81 41.8312C1086.6 41.7459 1086.29 41.6659 1085.88 41.5912L1085.7 41.5592V40.7592H1088.52ZM1096.41 46.9832C1096.41 46.7379 1096.34 46.5352 1096.21 46.3752C1096.1 46.2045 1095.93 46.0712 1095.72 45.9752C1095.52 45.8685 1095.28 45.7779 1095.01 45.7032C1094.76 45.6285 1094.49 45.5592 1094.2 45.4952C1093.86 45.4205 1093.52 45.3299 1093.17 45.2232C1092.84 45.1059 1092.54 44.9619 1092.26 44.7912C1091.98 44.6099 1091.77 44.3752 1091.61 44.0872C1091.45 43.7992 1091.37 43.4419 1091.37 43.0152C1091.37 42.5245 1091.48 42.0979 1091.72 41.7352C1091.96 41.3725 1092.32 41.0952 1092.77 40.9032C1093.23 40.7005 1093.79 40.5992 1094.45 40.5992C1094.97 40.5992 1095.41 40.6312 1095.78 40.6952C1096.17 40.7592 1096.49 40.8392 1096.74 40.9352C1097 41.0312 1097.19 41.1219 1097.32 41.2072V43.1272H1095.91V41.5112C1096.03 41.5112 1096.12 41.5272 1096.2 41.5592C1096.28 41.5912 1096.35 41.6392 1096.39 41.7032C1096.44 41.7672 1096.48 41.8472 1096.49 41.9432C1096.51 42.0392 1096.51 42.1459 1096.5 42.2632C1096.37 42.1032 1096.2 41.9699 1095.99 41.8632C1095.79 41.7459 1095.56 41.6605 1095.3 41.6072C1095.05 41.5539 1094.76 41.5272 1094.45 41.5272C1093.85 41.5272 1093.4 41.6499 1093.11 41.8952C1092.82 42.1299 1092.68 42.4445 1092.68 42.8392C1092.68 43.0952 1092.74 43.3085 1092.85 43.4792C1092.98 43.6392 1093.15 43.7725 1093.37 43.8792C1093.58 43.9859 1093.82 44.0765 1094.09 44.1512C1094.36 44.2259 1094.66 44.3005 1094.97 44.3752C1095.3 44.4499 1095.63 44.5405 1095.96 44.6472C1096.29 44.7539 1096.59 44.8979 1096.85 45.0792C1097.13 45.2605 1097.35 45.4952 1097.51 45.7832C1097.67 46.0605 1097.75 46.4125 1097.75 46.8392C1097.75 47.3192 1097.62 47.7512 1097.37 48.1352C1097.11 48.5192 1096.74 48.8232 1096.25 49.0472C1095.76 49.2605 1095.15 49.3672 1094.44 49.3672C1093.92 49.3672 1093.44 49.3299 1093.01 49.2552C1092.6 49.1805 1092.23 49.0792 1091.91 48.9512C1091.59 48.8232 1091.31 48.6845 1091.06 48.5352V46.5352H1092.49V48.6792C1092.33 48.5939 1092.2 48.5085 1092.1 48.4232C1092.02 48.3272 1091.96 48.2365 1091.93 48.1512C1091.89 48.0552 1091.88 47.9592 1091.88 47.8632C1091.89 47.7672 1091.9 47.6712 1091.93 47.5752C1092.1 47.7565 1092.3 47.9112 1092.55 48.0392C1092.81 48.1565 1093.09 48.2525 1093.4 48.3272C1093.72 48.3912 1094.06 48.4232 1094.42 48.4232C1094.86 48.4232 1095.22 48.3699 1095.51 48.2632C1095.8 48.1565 1096.02 47.9965 1096.17 47.7832C1096.33 47.5699 1096.41 47.3032 1096.41 46.9832ZM1107.57 52.7592H1103.16V52.0072H1103.19C1103.45 52.0072 1103.68 51.9859 1103.88 51.9432C1104.08 51.9005 1104.23 51.8205 1104.34 51.7032C1104.45 51.5859 1104.5 51.4259 1104.5 51.2232V42.3112C1104.5 42.1512 1104.46 42.0339 1104.37 41.9592C1104.29 41.8739 1104.15 41.8045 1103.97 41.7512C1103.79 41.6979 1103.56 41.6445 1103.28 41.5912L1103.12 41.5592V40.7592H1105.7L1105.83 42.7432L1105.92 42.8712V51.8472C1105.92 51.8792 1105.99 51.9059 1106.13 51.9272C1106.28 51.9592 1106.45 51.9805 1106.63 51.9912C1106.82 52.0019 1106.99 52.0072 1107.14 52.0072H1107.57V52.7592ZM1108.68 49.3672C1108.23 49.3672 1107.82 49.2925 1107.46 49.1432C1107.11 48.9939 1106.78 48.7805 1106.48 48.5032C1106.18 48.2152 1105.9 47.8579 1105.64 47.4312L1105.67 46.2632C1105.93 46.7432 1106.21 47.1432 1106.5 47.4632C1106.8 47.7725 1107.12 48.0072 1107.46 48.1672C1107.81 48.3272 1108.2 48.4072 1108.61 48.4072C1109.02 48.4072 1109.37 48.3325 1109.68 48.1832C1109.99 48.0232 1110.25 47.7939 1110.45 47.4952C1110.66 47.1859 1110.82 46.8179 1110.93 46.3912C1111.04 45.9645 1111.09 45.4792 1111.09 44.9352C1111.09 44.4019 1111.04 43.9272 1110.93 43.5112C1110.84 43.0952 1110.69 42.7432 1110.48 42.4552C1110.29 42.1565 1110.05 41.9325 1109.75 41.7832C1109.45 41.6339 1109.1 41.5592 1108.69 41.5592C1108.26 41.5592 1107.87 41.6392 1107.51 41.7992C1107.16 41.9592 1106.82 42.2045 1106.52 42.5352C1106.22 42.8552 1105.93 43.2605 1105.65 43.7512L1105.64 42.6312C1105.92 42.1832 1106.22 41.8099 1106.52 41.5112C1106.82 41.2125 1107.17 40.9885 1107.54 40.8392C1107.91 40.6792 1108.34 40.5992 1108.82 40.5992C1109.61 40.5992 1110.28 40.7805 1110.84 41.1432C1111.4 41.5059 1111.83 42.0125 1112.13 42.6632C1112.44 43.3032 1112.6 44.0605 1112.6 44.9352C1112.6 45.7992 1112.44 46.5672 1112.12 47.2392C1111.81 47.9005 1111.36 48.4232 1110.77 48.8072C1110.18 49.1805 1109.49 49.3672 1108.68 49.3672ZM1119.89 40.6472V42.1512C1119.81 42.1192 1119.72 42.0979 1119.62 42.0872C1119.51 42.0765 1119.4 42.0659 1119.28 42.0552C1119.17 42.0445 1119.07 42.0392 1118.96 42.0392C1118.67 42.0392 1118.41 42.0712 1118.18 42.1352C1117.95 42.1992 1117.74 42.3005 1117.55 42.4392C1117.37 42.5672 1117.19 42.7379 1117.02 42.9512C1116.86 43.1645 1116.69 43.4205 1116.51 43.7192V42.8712C1116.74 42.3912 1116.98 41.9805 1117.25 41.6392C1117.53 41.2979 1117.83 41.0365 1118.16 40.8552C1118.5 40.6739 1118.88 40.5832 1119.3 40.5832C1119.42 40.5832 1119.54 40.5885 1119.65 40.5992C1119.75 40.6099 1119.83 40.6259 1119.89 40.6472ZM1113.98 49.1912V48.4392H1114.03C1114.44 48.4392 1114.76 48.3912 1115.01 48.2952C1115.25 48.1885 1115.38 47.9752 1115.38 47.6552V42.3112C1115.38 42.1512 1115.33 42.0339 1115.23 41.9592C1115.15 41.8739 1115.01 41.8045 1114.83 41.7512C1114.65 41.6979 1114.42 41.6445 1114.14 41.5912L1113.98 41.5592V40.7592H1116.58L1116.7 42.9672L1116.8 42.8712V48.0232C1116.8 48.1405 1116.87 48.2312 1117.02 48.2952C1117.17 48.3592 1117.35 48.4019 1117.55 48.4232C1117.75 48.4339 1117.93 48.4392 1118.08 48.4392H1118.42V49.1912H1113.98ZM1129.44 44.9832C1129.44 45.8579 1129.26 46.6259 1128.89 47.2872C1128.54 47.9485 1128.04 48.4605 1127.39 48.8232C1126.75 49.1859 1126.01 49.3672 1125.16 49.3672C1124.31 49.3672 1123.56 49.1859 1122.92 48.8232C1122.28 48.4605 1121.78 47.9485 1121.42 47.2872C1121.07 46.6259 1120.89 45.8579 1120.89 44.9832C1120.89 44.3219 1120.99 43.7245 1121.2 43.1912C1121.4 42.6472 1121.69 42.1832 1122.08 41.7992C1122.46 41.4152 1122.91 41.1219 1123.42 40.9192C1123.94 40.7059 1124.52 40.5992 1125.16 40.5992C1125.8 40.5992 1126.38 40.7059 1126.89 40.9192C1127.42 41.1219 1127.87 41.4152 1128.25 41.7992C1128.64 42.1832 1128.93 42.6472 1129.13 43.1912C1129.34 43.7245 1129.44 44.3219 1129.44 44.9832ZM1122.4 44.9832C1122.4 45.7192 1122.5 46.3432 1122.72 46.8552C1122.93 47.3672 1123.24 47.7565 1123.66 48.0232C1124.08 48.2899 1124.58 48.4232 1125.16 48.4232C1125.76 48.4232 1126.26 48.2899 1126.67 48.0232C1127.08 47.7565 1127.4 47.3672 1127.61 46.8552C1127.83 46.3432 1127.93 45.7192 1127.93 44.9832C1127.93 44.2579 1127.83 43.6392 1127.61 43.1272C1127.4 42.6152 1127.08 42.2259 1126.67 41.9592C1126.26 41.6819 1125.76 41.5432 1125.16 41.5432C1124.58 41.5432 1124.08 41.6819 1123.66 41.9592C1123.24 42.2259 1122.93 42.6152 1122.72 43.1272C1122.5 43.6392 1122.4 44.2579 1122.4 44.9832ZM1132.2 50.0872V42.3112C1132.2 42.1512 1132.15 42.0285 1132.04 41.9432C1131.95 41.8472 1131.8 41.7725 1131.6 41.7192C1131.39 41.6659 1131.15 41.6232 1130.86 41.5912L1130.6 41.5592V40.7592H1133.63V50.0872C1133.63 50.6632 1133.54 51.1432 1133.36 51.5272C1133.18 51.9112 1132.96 52.2099 1132.67 52.4232C1132.38 52.6472 1132.05 52.8072 1131.69 52.9032C1131.34 52.9992 1130.98 53.0472 1130.6 53.0472C1130.34 53.0472 1130.08 53.0259 1129.82 52.9832C1129.56 52.9512 1129.36 52.9032 1129.21 52.8392V51.8312C1129.39 51.8845 1129.6 51.9325 1129.82 51.9752C1130.04 52.0179 1130.29 52.0392 1130.57 52.0392C1130.9 52.0392 1131.19 51.9805 1131.44 51.8632C1131.68 51.7565 1131.87 51.5592 1132 51.2712C1132.13 50.9832 1132.2 50.5885 1132.2 50.0872ZM1132.81 38.9992C1132.51 38.9992 1132.27 38.9139 1132.08 38.7432C1131.88 38.5619 1131.79 38.3112 1131.79 37.9912C1131.79 37.6712 1131.88 37.4259 1132.08 37.2552C1132.27 37.0845 1132.51 36.9992 1132.81 36.9992C1133.1 36.9992 1133.34 37.0845 1133.53 37.2552C1133.72 37.4259 1133.82 37.6712 1133.82 37.9912C1133.82 38.3112 1133.72 38.5619 1133.53 38.7432C1133.34 38.9139 1133.1 38.9992 1132.81 38.9992ZM1137.44 45.0472C1137.44 45.6339 1137.51 46.1405 1137.65 46.5672C1137.8 46.9939 1138 47.3459 1138.26 47.6232C1138.51 47.8899 1138.81 48.0925 1139.15 48.2312C1139.5 48.3592 1139.87 48.4232 1140.27 48.4232C1140.71 48.4232 1141.09 48.3432 1141.41 48.1832C1141.74 48.0125 1142.02 47.8045 1142.26 47.5592C1142.49 47.3139 1142.69 47.0579 1142.85 46.7912L1143.62 47.4312C1143.42 47.7939 1143.15 48.1245 1142.83 48.4232C1142.51 48.7219 1142.14 48.9565 1141.7 49.1272C1141.27 49.2872 1140.79 49.3672 1140.24 49.3672C1139.44 49.3672 1138.72 49.1965 1138.07 48.8552C1137.43 48.5139 1136.92 48.0179 1136.55 47.3672C1136.17 46.7165 1135.99 45.9379 1135.99 45.0312C1135.99 44.1459 1136.16 43.3725 1136.5 42.7112C1136.85 42.0499 1137.33 41.5325 1137.92 41.1592C1138.52 40.7859 1139.2 40.5992 1139.95 40.5992C1140.56 40.5992 1141.09 40.7005 1141.54 40.9032C1142 41.0952 1142.38 41.3939 1142.69 41.7992C1143 42.1939 1143.23 42.6899 1143.39 43.2872C1143.55 43.8739 1143.63 44.5672 1143.63 45.3672H1137.12V44.4552H1142.58L1142.15 44.8072C1142.13 44.2205 1142.07 43.7245 1141.97 43.3192C1141.89 42.9032 1141.76 42.5672 1141.59 42.3112C1141.42 42.0445 1141.19 41.8525 1140.91 41.7352C1140.65 41.6072 1140.33 41.5432 1139.95 41.5432C1139.59 41.5432 1139.26 41.6179 1138.95 41.7672C1138.64 41.9165 1138.37 42.1405 1138.15 42.4392C1137.92 42.7379 1137.75 43.1059 1137.62 43.5432C1137.5 43.9805 1137.44 44.4819 1137.44 45.0472ZM1149.48 48.4232C1149.95 48.4232 1150.35 48.3432 1150.68 48.1832C1151.02 48.0125 1151.31 47.7992 1151.56 47.5432C1151.8 47.2765 1152.01 47.0099 1152.18 46.7432L1152.92 47.3992C1152.7 47.7725 1152.42 48.1085 1152.09 48.4072C1151.77 48.7059 1151.38 48.9405 1150.94 49.1112C1150.5 49.2819 1150 49.3672 1149.43 49.3672C1148.56 49.3672 1147.79 49.1859 1147.14 48.8232C1146.49 48.4499 1145.99 47.9379 1145.64 47.2872C1145.29 46.6259 1145.11 45.8579 1145.11 44.9832C1145.11 44.0872 1145.29 43.3139 1145.66 42.6632C1146.03 42.0125 1146.55 41.5059 1147.21 41.1432C1147.87 40.7805 1148.65 40.5992 1149.54 40.5992C1150.1 40.5992 1150.58 40.6525 1151 40.7592C1151.43 40.8552 1151.78 40.9725 1152.07 41.1112C1152.36 41.2499 1152.57 41.3725 1152.71 41.4792V43.7672H1151.27V41.7832C1151.39 41.8045 1151.5 41.8365 1151.59 41.8792C1151.69 41.9112 1151.77 41.9645 1151.83 42.0392C1151.9 42.1032 1151.94 42.1779 1151.98 42.2632C1152.01 42.3485 1152.02 42.4445 1152.01 42.5512C1151.79 42.2632 1151.46 42.0232 1151.02 41.8312C1150.57 41.6392 1150.08 41.5432 1149.54 41.5432C1148.88 41.5432 1148.33 41.6819 1147.9 41.9592C1147.47 42.2365 1147.15 42.6365 1146.94 43.1592C1146.72 43.6712 1146.62 44.2792 1146.62 44.9832C1146.62 45.5272 1146.67 46.0125 1146.79 46.4392C1146.92 46.8659 1147.1 47.2285 1147.34 47.5272C1147.57 47.8152 1147.86 48.0392 1148.22 48.1992C1148.58 48.3485 1149 48.4232 1149.48 48.4232ZM1153.72 41.7032V40.8392H1153.87C1154.21 40.8392 1154.5 40.8179 1154.73 40.7752C1154.98 40.7219 1155.16 40.6259 1155.28 40.4872C1155.4 40.3485 1155.47 40.1459 1155.47 39.8792L1156.51 40.7592H1159.45V41.7032H1153.72ZM1156.78 46.5192C1156.78 46.9779 1156.84 47.3459 1156.97 47.6232C1157.1 47.8899 1157.28 48.0819 1157.52 48.1992C1157.76 48.3059 1158.04 48.3592 1158.36 48.3592C1158.62 48.3592 1158.86 48.3432 1159.08 48.3112C1159.31 48.2685 1159.47 48.2312 1159.58 48.1992V49.1432C1159.47 49.1859 1159.34 49.2232 1159.2 49.2552C1159.05 49.2872 1158.89 49.3139 1158.72 49.3352C1158.56 49.3565 1158.38 49.3672 1158.2 49.3672C1157.71 49.3672 1157.25 49.2872 1156.81 49.1272C1156.38 48.9672 1156.03 48.6845 1155.76 48.2792C1155.49 47.8739 1155.36 47.2925 1155.36 46.5352V40.9992L1155.47 40.8712V38.3752H1156.78V46.5192Z" fill="#5C5C5C"/>
</g>
</svg>
