<svg width="406" height="301" viewBox="0 0 406 301" fill="none" xmlns="http://www.w3.org/2000/svg">
<g clip-path="url(#clip0_144_3843)">
<g clip-path="url(#clip1_144_3843)">
<rect width="406" height="8" transform="translate(0 0.074707)" fill="#FDFAFA"/>
<rect width="224" height="8" transform="translate(0 0.074707)" fill="#EDE5E5"/>
</g>
<path d="M0.868 21.8647H7.56V22.5927H0.868V21.8647ZM1.554 25.1547L2.128 24.7767L5.39 27.9127C5.53933 28.0527 5.684 28.1554 5.824 28.2207C5.964 28.2767 6.15533 28.3047 6.398 28.3047H6.636V29.0747H4.914L0.938 25.1267V24.4827H2.044C2.64133 24.4827 3.108 24.3894 3.444 24.2027C3.78933 24.016 4.032 23.7454 4.172 23.3907C4.32133 23.036 4.396 22.616 4.396 22.1307C4.396 21.664 4.32133 21.272 4.172 20.9547C4.02267 20.6374 3.78467 20.3994 3.458 20.2407C3.13133 20.0727 2.70667 19.9887 2.184 19.9887H0.868V19.1347H7.56V19.8627H2.576L3.08 19.6947C3.67733 19.788 4.172 19.9467 4.564 20.1707C4.956 20.3854 5.25 20.6607 5.446 20.9967C5.642 21.3234 5.74 21.7014 5.74 22.1307C5.74 22.756 5.586 23.2974 5.278 23.7547C4.97 24.2027 4.52667 24.548 3.948 24.7907C3.37867 25.0334 2.688 25.1547 1.876 25.1547H1.554ZM12.258 28.0667C12.6407 28.0667 12.9487 28.0527 13.182 28.0247C13.4247 27.9967 13.602 27.9407 13.714 27.8567C13.826 27.7727 13.8913 27.6514 13.91 27.4927L14.036 26.2327H14.89V29.0747H8.53398V27.7447C9.07532 27.334 9.58398 26.956 10.06 26.6107C10.536 26.256 10.97 25.9154 11.362 25.5887C11.754 25.262 12.09 24.9354 12.37 24.6087C12.6593 24.282 12.8787 23.9414 13.028 23.5867C13.1867 23.232 13.266 22.854 13.266 22.4527C13.266 22.0234 13.196 21.692 13.056 21.4587C12.9253 21.216 12.734 21.0434 12.482 20.9407C12.23 20.838 11.9267 20.7867 11.572 20.7867C11.2453 20.7867 10.9373 20.8334 10.648 20.9267C10.368 21.02 10.1207 21.146 9.90598 21.3047C9.69132 21.454 9.50932 21.6267 9.35998 21.8227C9.36932 21.7107 9.39732 21.608 9.44398 21.5147C9.49998 21.412 9.55598 21.3234 9.61198 21.2487C9.67732 21.174 9.74265 21.1227 9.80798 21.0947C9.87332 21.0574 9.92932 21.0527 9.97598 21.0807V22.8447H8.71598V21.1787C8.85598 21.0014 9.06598 20.8194 9.34598 20.6327C9.62598 20.446 9.95732 20.2874 10.34 20.1567C10.732 20.026 11.1567 19.9607 11.614 19.9607C12.2487 19.9607 12.7853 20.054 13.224 20.2407C13.6627 20.4274 13.9987 20.7074 14.232 21.0807C14.4653 21.4447 14.582 21.9114 14.582 22.4807C14.582 22.9194 14.47 23.3487 14.246 23.7687C14.0313 24.1794 13.7373 24.5854 13.364 24.9867C13 25.388 12.5753 25.78 12.09 26.1627C11.614 26.536 11.11 26.9094 10.578 27.2827C10.046 27.6467 9.51398 28.0107 8.98198 28.3747C8.94465 28.3747 8.91665 28.356 8.89798 28.3187C8.87932 28.272 8.86998 28.2254 8.86998 28.1787C8.86998 28.132 8.88865 28.0947 8.92598 28.0667H12.258ZM19.588 29.2287C19.084 29.2287 18.6266 29.126 18.216 28.9207C17.8146 28.7154 17.4646 28.4167 17.166 28.0247C16.8766 27.6234 16.6526 27.1334 16.494 26.5547C16.3353 25.976 16.256 25.3227 16.256 24.5947C16.256 23.8574 16.3353 23.204 16.494 22.6347C16.6526 22.056 16.8766 21.566 17.166 21.1647C17.4646 20.7634 17.8146 20.4647 18.216 20.2687C18.6266 20.0634 19.084 19.9607 19.588 19.9607C20.092 19.9607 20.5493 20.0634 20.96 20.2687C21.3706 20.4647 21.7206 20.7634 22.01 21.1647C22.3086 21.566 22.5326 22.056 22.682 22.6347C22.8406 23.204 22.92 23.8574 22.92 24.5947C22.92 25.3227 22.8406 25.976 22.682 26.5547C22.5326 27.1334 22.3086 27.6234 22.01 28.0247C21.7206 28.4167 21.3706 28.7154 20.96 28.9207C20.5493 29.126 20.092 29.2287 19.588 29.2287ZM19.588 28.4027C19.9333 28.4027 20.2273 28.3234 20.47 28.1647C20.722 28.006 20.9273 27.768 21.086 27.4507C21.254 27.124 21.3753 26.7227 21.45 26.2467C21.534 25.7707 21.576 25.22 21.576 24.5947C21.576 23.96 21.534 23.4047 21.45 22.9287C21.3753 22.4527 21.254 22.056 21.086 21.7387C20.9273 21.412 20.722 21.1694 20.47 21.0107C20.2273 20.852 19.9333 20.7727 19.588 20.7727C19.2426 20.7727 18.944 20.852 18.692 21.0107C18.4493 21.1694 18.244 21.412 18.076 21.7387C17.9173 22.056 17.796 22.4527 17.712 22.9287C17.6373 23.4047 17.6 23.96 17.6 24.5947C17.6 25.22 17.6373 25.7707 17.712 26.2467C17.796 26.7227 17.9173 27.124 18.076 27.4507C18.244 27.768 18.4493 28.006 18.692 28.1647C18.944 28.3234 19.2426 28.4027 19.588 28.4027ZM27.422 29.2287C26.918 29.2287 26.4606 29.126 26.05 28.9207C25.6486 28.7154 25.2986 28.4167 25 28.0247C24.7106 27.6234 24.4866 27.1334 24.328 26.5547C24.1693 25.976 24.09 25.3227 24.09 24.5947C24.09 23.8574 24.1693 23.204 24.328 22.6347C24.4866 22.056 24.7106 21.566 25 21.1647C25.2986 20.7634 25.6486 20.4647 26.05 20.2687C26.4606 20.0634 26.918 19.9607 27.422 19.9607C27.926 19.9607 28.3833 20.0634 28.794 20.2687C29.2046 20.4647 29.5546 20.7634 29.844 21.1647C30.1426 21.566 30.3666 22.056 30.516 22.6347C30.6746 23.204 30.754 23.8574 30.754 24.5947C30.754 25.3227 30.6746 25.976 30.516 26.5547C30.3666 27.1334 30.1426 27.6234 29.844 28.0247C29.5546 28.4167 29.2046 28.7154 28.794 28.9207C28.3833 29.126 27.926 29.2287 27.422 29.2287ZM27.422 28.4027C27.7673 28.4027 28.0613 28.3234 28.304 28.1647C28.556 28.006 28.7613 27.768 28.92 27.4507C29.088 27.124 29.2093 26.7227 29.284 26.2467C29.368 25.7707 29.41 25.22 29.41 24.5947C29.41 23.96 29.368 23.4047 29.284 22.9287C29.2093 22.4527 29.088 22.056 28.92 21.7387C28.7613 21.412 28.556 21.1694 28.304 21.0107C28.0613 20.852 27.7673 20.7727 27.422 20.7727C27.0766 20.7727 26.778 20.852 26.526 21.0107C26.2833 21.1694 26.078 21.412 25.91 21.7387C25.7513 22.056 25.63 22.4527 25.546 22.9287C25.4713 23.4047 25.434 23.96 25.434 24.5947C25.434 25.22 25.4713 25.7707 25.546 26.2467C25.63 26.7227 25.7513 27.124 25.91 27.4507C26.078 27.768 26.2833 28.006 26.526 28.1647C26.778 28.3234 27.0766 28.4027 27.422 28.4027ZM32.9459 31.4967L32.0079 30.8807C32.4279 30.694 32.7779 30.498 33.0579 30.2927C33.3473 30.0967 33.5619 29.8727 33.7019 29.6207C33.8513 29.378 33.9306 29.1074 33.9399 28.8087C33.9493 28.7807 33.9586 28.7527 33.9679 28.7247C33.9866 28.6967 34.0053 28.678 34.0239 28.6687C34.0519 28.65 34.0753 28.6407 34.0939 28.6407C34.1219 28.6407 34.1453 28.65 34.1639 28.6687C34.1359 28.7714 34.0893 28.8554 34.0239 28.9207C33.9586 28.9767 33.8793 29.0187 33.7859 29.0467C33.7019 29.0747 33.6039 29.0887 33.4919 29.0887C33.1839 29.0887 32.9273 29.0047 32.7219 28.8367C32.5259 28.6687 32.4279 28.44 32.4279 28.1507C32.4279 27.8614 32.5306 27.6234 32.7359 27.4367C32.9413 27.25 33.2073 27.1567 33.5339 27.1567C33.7673 27.1567 33.9726 27.208 34.1499 27.3107C34.3366 27.404 34.4813 27.5534 34.5839 27.7587C34.6866 27.9547 34.7379 28.2114 34.7379 28.5287C34.7379 28.9487 34.6773 29.336 34.5559 29.6907C34.4346 30.0454 34.2386 30.3674 33.9679 30.6567C33.7066 30.9554 33.3659 31.2354 32.9459 31.4967ZM39.5626 29.2287C39.0586 29.2287 38.6012 29.126 38.1906 28.9207C37.7892 28.7154 37.4392 28.4167 37.1406 28.0247C36.8512 27.6234 36.6272 27.1334 36.4686 26.5547C36.3099 25.976 36.2306 25.3227 36.2306 24.5947C36.2306 23.8574 36.3099 23.204 36.4686 22.6347C36.6272 22.056 36.8512 21.566 37.1406 21.1647C37.4392 20.7634 37.7892 20.4647 38.1906 20.2687C38.6012 20.0634 39.0586 19.9607 39.5626 19.9607C40.0666 19.9607 40.5239 20.0634 40.9346 20.2687C41.3452 20.4647 41.6952 20.7634 41.9846 21.1647C42.2832 21.566 42.5072 22.056 42.6566 22.6347C42.8152 23.204 42.8946 23.8574 42.8946 24.5947C42.8946 25.3227 42.8152 25.976 42.6566 26.5547C42.5072 27.1334 42.2832 27.6234 41.9846 28.0247C41.6952 28.4167 41.3452 28.7154 40.9346 28.9207C40.5239 29.126 40.0666 29.2287 39.5626 29.2287ZM39.5626 28.4027C39.9079 28.4027 40.2019 28.3234 40.4446 28.1647C40.6966 28.006 40.9019 27.768 41.0606 27.4507C41.2286 27.124 41.3499 26.7227 41.4246 26.2467C41.5086 25.7707 41.5506 25.22 41.5506 24.5947C41.5506 23.96 41.5086 23.4047 41.4246 22.9287C41.3499 22.4527 41.2286 22.056 41.0606 21.7387C40.9019 21.412 40.6966 21.1694 40.4446 21.0107C40.2019 20.852 39.9079 20.7727 39.5626 20.7727C39.2172 20.7727 38.9186 20.852 38.6666 21.0107C38.4239 21.1694 38.2186 21.412 38.0506 21.7387C37.8919 22.056 37.7706 22.4527 37.6866 22.9287C37.6119 23.4047 37.5746 23.96 37.5746 24.5947C37.5746 25.22 37.6119 25.7707 37.6866 26.2467C37.7706 26.7227 37.8919 27.124 38.0506 27.4507C38.2186 27.768 38.4239 28.006 38.6666 28.1647C38.9186 28.3234 39.2172 28.4027 39.5626 28.4027ZM47.3966 29.2287C46.8926 29.2287 46.4352 29.126 46.0246 28.9207C45.6232 28.7154 45.2732 28.4167 44.9746 28.0247C44.6852 27.6234 44.4612 27.1334 44.3026 26.5547C44.1439 25.976 44.0646 25.3227 44.0646 24.5947C44.0646 23.8574 44.1439 23.204 44.3026 22.6347C44.4612 22.056 44.6852 21.566 44.9746 21.1647C45.2732 20.7634 45.6232 20.4647 46.0246 20.2687C46.4352 20.0634 46.8926 19.9607 47.3966 19.9607C47.9006 19.9607 48.3579 20.0634 48.7686 20.2687C49.1792 20.4647 49.5292 20.7634 49.8186 21.1647C50.1172 21.566 50.3412 22.056 50.4906 22.6347C50.6492 23.204 50.7286 23.8574 50.7286 24.5947C50.7286 25.3227 50.6492 25.976 50.4906 26.5547C50.3412 27.1334 50.1172 27.6234 49.8186 28.0247C49.5292 28.4167 49.1792 28.7154 48.7686 28.9207C48.3579 29.126 47.9006 29.2287 47.3966 29.2287ZM47.3966 28.4027C47.7419 28.4027 48.0359 28.3234 48.2786 28.1647C48.5306 28.006 48.7359 27.768 48.8946 27.4507C49.0626 27.124 49.1839 26.7227 49.2586 26.2467C49.3426 25.7707 49.3846 25.22 49.3846 24.5947C49.3846 23.96 49.3426 23.4047 49.2586 22.9287C49.1839 22.4527 49.0626 22.056 48.8946 21.7387C48.7359 21.412 48.5306 21.1694 48.2786 21.0107C48.0359 20.852 47.7419 20.7727 47.3966 20.7727C47.0512 20.7727 46.7526 20.852 46.5006 21.0107C46.2579 21.1694 46.0526 21.412 45.8846 21.7387C45.7259 22.056 45.6046 22.4527 45.5206 22.9287C45.4459 23.4047 45.4086 23.96 45.4086 24.5947C45.4086 25.22 45.4459 25.7707 45.5206 26.2467C45.6046 26.7227 45.7259 27.124 45.8846 27.4507C46.0526 27.768 46.2579 28.006 46.5006 28.1647C46.7526 28.3234 47.0512 28.4027 47.3966 28.4027ZM55.2305 29.2287C54.7265 29.2287 54.2692 29.126 53.8585 28.9207C53.4572 28.7154 53.1072 28.4167 52.8085 28.0247C52.5192 27.6234 52.2952 27.1334 52.1365 26.5547C51.9779 25.976 51.8985 25.3227 51.8985 24.5947C51.8985 23.8574 51.9779 23.204 52.1365 22.6347C52.2952 22.056 52.5192 21.566 52.8085 21.1647C53.1072 20.7634 53.4572 20.4647 53.8585 20.2687C54.2692 20.0634 54.7265 19.9607 55.2305 19.9607C55.7345 19.9607 56.1919 20.0634 56.6025 20.2687C57.0132 20.4647 57.3632 20.7634 57.6525 21.1647C57.9512 21.566 58.1752 22.056 58.3245 22.6347C58.4832 23.204 58.5625 23.8574 58.5625 24.5947C58.5625 25.3227 58.4832 25.976 58.3245 26.5547C58.1752 27.1334 57.9512 27.6234 57.6525 28.0247C57.3632 28.4167 57.0132 28.7154 56.6025 28.9207C56.1919 29.126 55.7345 29.2287 55.2305 29.2287ZM55.2305 28.4027C55.5759 28.4027 55.8699 28.3234 56.1125 28.1647C56.3645 28.006 56.5699 27.768 56.7285 27.4507C56.8965 27.124 57.0179 26.7227 57.0925 26.2467C57.1765 25.7707 57.2185 25.22 57.2185 24.5947C57.2185 23.96 57.1765 23.4047 57.0925 22.9287C57.0179 22.4527 56.8965 22.056 56.7285 21.7387C56.5699 21.412 56.3645 21.1694 56.1125 21.0107C55.8699 20.852 55.5759 20.7727 55.2305 20.7727C54.8852 20.7727 54.5865 20.852 54.3345 21.0107C54.0919 21.1694 53.8865 21.412 53.7185 21.7387C53.5599 22.056 53.4385 22.4527 53.3545 22.9287C53.2799 23.4047 53.2425 23.96 53.2425 24.5947C53.2425 25.22 53.2799 25.7707 53.3545 26.2467C53.4385 26.7227 53.5599 27.124 53.7185 27.4507C53.8865 27.768 54.0919 28.006 54.3345 28.1647C54.5865 28.3234 54.8852 28.4027 55.2305 28.4027Z" fill="black"/>
<path d="M4.284 59.8007V51.9607H3.486C3.05667 51.9607 2.71133 51.9794 2.45 52.0167C2.18867 52.054 1.99733 52.124 1.876 52.2267C1.75467 52.3294 1.68467 52.4647 1.666 52.6327L1.512 54.2007H0.672V51.1347H9.198V54.2007H8.358L8.204 52.6327C8.18533 52.4647 8.11067 52.3294 7.98 52.2267C7.85867 52.124 7.66733 52.054 7.406 52.0167C7.14467 51.9794 6.804 51.9607 6.384 51.9607H5.586V59.8007C5.586 60.006 5.70267 60.1414 5.936 60.2067C6.16933 60.272 6.45867 60.3047 6.804 60.3047H7.056V61.0747H2.8V60.3047H3.052C3.39733 60.3047 3.68667 60.272 3.92 60.2067C4.16267 60.1414 4.284 60.006 4.284 59.8007ZM14.8855 56.4967V57.2387C14.3162 57.3134 13.8262 57.3974 13.4155 57.4907C13.0048 57.584 12.6642 57.6867 12.3935 57.7987C12.1228 57.9107 11.9082 58.0367 11.7495 58.1767C11.5908 58.3167 11.4788 58.4754 11.4135 58.6527C11.3482 58.83 11.3155 59.0214 11.3155 59.2267C11.3155 59.488 11.3668 59.7074 11.4695 59.8847C11.5815 60.062 11.7355 60.1974 11.9315 60.2907C12.1275 60.3747 12.3562 60.4167 12.6175 60.4167C12.9162 60.4167 13.1915 60.3467 13.4435 60.2067C13.6955 60.0667 13.9382 59.8567 14.1715 59.5767C14.4048 59.2967 14.6335 58.9467 14.8575 58.5267L14.8715 59.3527C14.6848 59.7354 14.4655 60.0667 14.2135 60.3467C13.9708 60.6267 13.6908 60.846 13.3735 61.0047C13.0655 61.154 12.7155 61.2287 12.3235 61.2287C11.8755 61.2287 11.4788 61.154 11.1335 61.0047C10.7882 60.846 10.5175 60.6174 10.3215 60.3187C10.1255 60.02 10.0275 59.6607 10.0275 59.2407C10.0275 58.8487 10.1162 58.508 10.2935 58.2187C10.4708 57.9294 10.7508 57.6774 11.1335 57.4627C11.5255 57.248 12.0295 57.0614 12.6455 56.9027C13.2615 56.744 14.0082 56.6087 14.8855 56.4967ZM14.8575 61.0747L14.6895 59.4507L14.6195 59.3667V55.7127C14.6195 55.358 14.5728 55.0734 14.4795 54.8587C14.3862 54.644 14.2275 54.49 14.0035 54.3967C13.7888 54.3034 13.4948 54.2567 13.1215 54.2567C12.5615 54.2567 12.1042 54.336 11.7495 54.4947C11.3948 54.6534 11.1288 54.8214 10.9515 54.9987C10.9515 54.924 10.9702 54.8494 11.0075 54.7747C11.0448 54.6907 11.0962 54.616 11.1615 54.5507C11.2268 54.476 11.3015 54.4154 11.3855 54.3687C11.4788 54.322 11.5815 54.2894 11.6935 54.2707V55.8947H10.4615V54.1867C10.5922 54.084 10.7788 53.9767 11.0215 53.8647C11.2735 53.7434 11.5815 53.6407 11.9455 53.5567C12.3095 53.4634 12.7202 53.4167 13.1775 53.4167C13.5508 53.4167 13.9008 53.454 14.2275 53.5287C14.5542 53.6034 14.8388 53.7247 15.0815 53.8927C15.3242 54.0607 15.5155 54.28 15.6555 54.5507C15.7955 54.8214 15.8655 55.1527 15.8655 55.5447V59.7727C15.8655 59.9034 15.9122 60.006 16.0055 60.0807C16.0988 60.1554 16.2295 60.2114 16.3975 60.2487C16.5655 60.2767 16.7708 60.3047 17.0135 60.3327L17.0835 60.3467V61.0747H14.8575ZM23.2156 53.4587V54.8027C23.1503 54.784 23.0709 54.77 22.9776 54.7607C22.8843 54.7514 22.7863 54.742 22.6836 54.7327C22.5903 54.7234 22.4969 54.7187 22.4036 54.7187C22.1423 54.7187 21.9089 54.7467 21.7036 54.8027C21.4983 54.8494 21.3069 54.9287 21.1296 55.0407C20.9616 55.1434 20.7983 55.2787 20.6396 55.4467C20.4903 55.6147 20.3269 55.82 20.1496 56.0627V55.4187C20.3829 54.98 20.6209 54.6114 20.8636 54.3127C21.1156 54.014 21.3909 53.79 21.6896 53.6407C21.9883 53.482 22.3243 53.4027 22.6976 53.4027C22.8096 53.4027 22.9123 53.4074 23.0056 53.4167C23.1083 53.426 23.1783 53.44 23.2156 53.4587ZM17.9376 61.0747V60.4027H17.9796C18.3436 60.4027 18.6283 60.3514 18.8336 60.2487C19.0483 60.146 19.1556 59.936 19.1556 59.6187V54.9427C19.1556 54.8027 19.1136 54.7 19.0296 54.6347C18.9549 54.56 18.8383 54.4994 18.6796 54.4527C18.5209 54.406 18.3203 54.3594 18.0776 54.3127L17.9376 54.2847V53.5567H20.1776L20.3456 55.4327L20.4016 55.3767V60.0947C20.4016 60.1787 20.4669 60.244 20.5976 60.2907C20.7283 60.3374 20.8823 60.37 21.0596 60.3887C21.2369 60.398 21.3909 60.4027 21.5216 60.4027H21.8296V61.0747H17.9376ZM31.9219 54.3967C31.4925 54.378 31.1239 54.3734 30.8159 54.3827C30.5172 54.392 30.2605 54.42 30.0459 54.4667C29.8405 54.5134 29.6679 54.5927 29.5279 54.7047L29.3179 54.6487C29.4392 54.35 29.5839 54.0934 29.7519 53.8787C29.9199 53.664 30.1065 53.4914 30.3119 53.3607C30.5265 53.23 30.7645 53.1414 31.0259 53.0947C31.2965 53.048 31.5952 53.0387 31.9219 53.0667V54.3967ZM27.4279 58.7927C26.8492 58.7927 26.3359 58.6854 25.8879 58.4707C25.4492 58.2467 25.1039 57.934 24.8519 57.5327C24.6092 57.1314 24.4879 56.66 24.4879 56.1187C24.4879 55.5867 24.6139 55.12 24.8659 54.7187C25.1179 54.308 25.4632 53.9907 25.9019 53.7667C26.3499 53.5334 26.8585 53.4167 27.4279 53.4167C28.0065 53.4167 28.5199 53.5334 28.9679 53.7667C29.4159 53.9907 29.7659 54.308 30.0179 54.7187C30.2699 55.12 30.3959 55.5867 30.3959 56.1187C30.3959 56.66 30.2699 57.1314 30.0179 57.5327C29.7659 57.934 29.4159 58.2467 28.9679 58.4707C28.5292 58.6854 28.0159 58.7927 27.4279 58.7927ZM27.4279 57.9667C27.8012 57.9667 28.1139 57.8967 28.3659 57.7567C28.6272 57.6167 28.8232 57.4114 28.9539 57.1407C29.0845 56.8607 29.1499 56.52 29.1499 56.1187C29.1499 55.7174 29.0845 55.3767 28.9539 55.0967C28.8232 54.8167 28.6272 54.6067 28.3659 54.4667C28.1139 54.3174 27.8012 54.2427 27.4279 54.2427C27.0639 54.2427 26.7559 54.3174 26.5039 54.4667C26.2519 54.6067 26.0605 54.8167 25.9299 55.0967C25.7992 55.3767 25.7339 55.7174 25.7339 56.1187C25.7339 56.52 25.7992 56.8607 25.9299 57.1407C26.0605 57.4114 26.2519 57.6167 26.5039 57.7567C26.7559 57.8967 27.0639 57.9667 27.4279 57.9667ZM26.8119 64.4907C26.2052 64.4907 25.6639 64.43 25.1879 64.3087C24.7212 64.1967 24.3525 64.01 24.0819 63.7487C23.8112 63.4967 23.6759 63.1607 23.6759 62.7407C23.6759 62.47 23.7365 62.232 23.8579 62.0267C23.9792 61.8214 24.1659 61.63 24.4179 61.4527C24.6699 61.2754 24.9872 61.0887 25.3699 60.8927L25.7899 61.1587C25.5472 61.3267 25.3512 61.4854 25.2019 61.6347C25.0619 61.7934 24.9592 61.9474 24.8939 62.0967C24.8379 62.246 24.8099 62.4094 24.8099 62.5867C24.8099 62.8107 24.8752 62.9974 25.0059 63.1467C25.1459 63.3054 25.3652 63.4267 25.6639 63.5107C25.9625 63.604 26.3592 63.6507 26.8539 63.6507H28.0439C28.5385 63.6507 28.9585 63.59 29.3039 63.4687C29.6492 63.3567 29.9152 63.1934 30.1019 62.9787C30.2885 62.764 30.3819 62.5074 30.3819 62.2087C30.3819 61.9287 30.2885 61.7187 30.1019 61.5787C29.9152 61.448 29.5839 61.3827 29.1079 61.3827H25.9019H25.8739C25.4819 61.2987 25.1552 61.196 24.8939 61.0747C24.6419 60.944 24.4552 60.7854 24.3339 60.5987C24.2219 60.412 24.1659 60.202 24.1659 59.9687C24.1659 59.7167 24.2265 59.488 24.3479 59.2827C24.4785 59.068 24.6605 58.8674 24.8939 58.6807C25.1365 58.4847 25.4259 58.3027 25.7619 58.1347L26.1819 58.4287C25.9859 58.5687 25.8225 58.704 25.6919 58.8347C25.5705 58.956 25.4772 59.0774 25.4119 59.1987C25.3465 59.3107 25.3139 59.4367 25.3139 59.5767C25.3139 59.7914 25.4025 59.95 25.5799 60.0527C25.7665 60.146 26.0372 60.1927 26.3919 60.1927H29.1219C29.6445 60.1927 30.0832 60.258 30.4379 60.3887C30.7925 60.5194 31.0632 60.72 31.2499 60.9907C31.4459 61.252 31.5439 61.5927 31.5439 62.0127C31.5439 62.5727 31.3852 63.0347 31.0679 63.3987C30.7505 63.772 30.3259 64.0474 29.7939 64.2247C29.2619 64.402 28.6785 64.4907 28.0439 64.4907H26.8119ZM33.7058 57.3927C33.7058 57.934 33.7664 58.396 33.8878 58.7787C34.0184 59.1614 34.2004 59.4694 34.4338 59.7027C34.6671 59.936 34.9331 60.1087 35.2318 60.2207C35.5398 60.3327 35.8711 60.3887 36.2258 60.3887C36.6178 60.3887 36.9584 60.3187 37.2478 60.1787C37.5371 60.0387 37.7844 59.8614 37.9898 59.6467C38.2044 59.432 38.3864 59.2034 38.5358 58.9607L39.2078 59.5067C39.0304 59.8334 38.7971 60.132 38.5078 60.4027C38.2184 60.664 37.8778 60.8694 37.4858 61.0187C37.1031 61.1587 36.6738 61.2287 36.1978 61.2287C35.4884 61.2287 34.8491 61.0794 34.2798 60.7807C33.7104 60.482 33.2578 60.0434 32.9218 59.4647C32.5951 58.886 32.4318 58.1907 32.4318 57.3787C32.4318 56.5854 32.5811 55.8947 32.8798 55.3067C33.1878 54.7094 33.6031 54.2474 34.1258 53.9207C34.6578 53.5847 35.2644 53.4167 35.9458 53.4167C36.4964 53.4167 36.9724 53.5054 37.3738 53.6827C37.7751 53.86 38.1111 54.126 38.3818 54.4807C38.6524 54.8354 38.8578 55.2787 38.9978 55.8107C39.1378 56.3427 39.2078 56.9634 39.2078 57.6727H33.4118V56.8607H38.2838L37.9198 57.1687C37.9011 56.6367 37.8498 56.1887 37.7658 55.8247C37.6911 55.4514 37.5744 55.1527 37.4158 54.9287C37.2664 54.6954 37.0704 54.5274 36.8278 54.4247C36.5851 54.322 36.2911 54.2707 35.9458 54.2707C35.6191 54.2707 35.3158 54.336 35.0358 54.4667C34.7651 54.588 34.5271 54.7794 34.3218 55.0407C34.1258 55.302 33.9718 55.6287 33.8598 56.0207C33.7571 56.4127 33.7058 56.87 33.7058 57.3927ZM40.0222 54.3967V53.6267H40.1762C40.4935 53.6267 40.7595 53.608 40.9742 53.5707C41.1888 53.524 41.3475 53.4354 41.4502 53.3047C41.5622 53.174 41.6182 52.978 41.6182 52.7167L42.5282 53.5567H45.2022V54.3967H40.0222ZM42.7662 58.7927C42.7662 59.1847 42.8222 59.4927 42.9342 59.7167C43.0462 59.9407 43.2095 60.0994 43.4242 60.1927C43.6388 60.286 43.8955 60.3327 44.1942 60.3327C44.4368 60.3327 44.6608 60.3187 44.8662 60.2907C45.0715 60.2534 45.2115 60.2254 45.2862 60.2067V61.0467C45.1928 61.0747 45.0762 61.1027 44.9362 61.1307C44.7962 61.1587 44.6515 61.182 44.5022 61.2007C44.3528 61.2194 44.1988 61.2287 44.0402 61.2287C43.6015 61.2287 43.1908 61.1634 42.8082 61.0327C42.4255 60.902 42.1128 60.664 41.8702 60.3187C41.6368 59.964 41.5202 59.46 41.5202 58.8067V53.7667L41.6182 53.6547V51.4147H42.7662V58.7927Z" fill="#5C5C5C"/>
<path d="M0.868 101.865H7.56V102.593H0.868V101.865ZM1.554 105.155L2.128 104.777L5.39 107.913C5.53933 108.053 5.684 108.155 5.824 108.221C5.964 108.277 6.15533 108.305 6.398 108.305H6.636V109.075H4.914L0.938 105.127V104.483H2.044C2.64133 104.483 3.108 104.389 3.444 104.203C3.78933 104.016 4.032 103.745 4.172 103.391C4.32133 103.036 4.396 102.616 4.396 102.131C4.396 101.664 4.32133 101.272 4.172 100.955C4.02267 100.637 3.78467 100.399 3.458 100.241C3.13133 100.073 2.70667 99.9887 2.184 99.9887H0.868V99.1347H7.56V99.8627H2.576L3.08 99.6947C3.67733 99.788 4.172 99.9467 4.564 100.171C4.956 100.385 5.25 100.661 5.446 100.997C5.642 101.323 5.74 101.701 5.74 102.131C5.74 102.756 5.586 103.297 5.278 103.755C4.97 104.203 4.52667 104.548 3.948 104.791C3.37867 105.033 2.688 105.155 1.876 105.155H1.554ZM12.748 107.843C12.748 107.973 12.8133 108.076 12.944 108.151C13.0747 108.225 13.2613 108.277 13.504 108.305C13.7467 108.333 14.0313 108.347 14.358 108.347H14.932V109.075H9.21998V108.347H9.98998C10.298 108.347 10.5593 108.333 10.774 108.305C10.998 108.277 11.166 108.225 11.278 108.151C11.3993 108.076 11.46 107.973 11.46 107.843V101.123L11.684 100.955C11.6187 101.169 11.502 101.356 11.334 101.515C11.1753 101.673 10.97 101.809 10.718 101.921C10.4753 102.033 10.2047 102.117 9.90598 102.173C9.60732 102.219 9.29465 102.243 8.96798 102.243V101.333C9.32265 101.323 9.64932 101.295 9.94798 101.249C10.256 101.202 10.5313 101.132 10.774 101.039C11.0167 100.945 11.2313 100.824 11.418 100.675C11.6047 100.525 11.7587 100.348 11.88 100.143H12.748V107.843ZM19.588 109.229C19.084 109.229 18.6266 109.126 18.216 108.921C17.8146 108.715 17.4646 108.417 17.166 108.025C16.8766 107.623 16.6526 107.133 16.494 106.555C16.3353 105.976 16.256 105.323 16.256 104.595C16.256 103.857 16.3353 103.204 16.494 102.635C16.6526 102.056 16.8766 101.566 17.166 101.165C17.4646 100.763 17.8146 100.465 18.216 100.269C18.6266 100.063 19.084 99.9607 19.588 99.9607C20.092 99.9607 20.5493 100.063 20.96 100.269C21.3706 100.465 21.7206 100.763 22.01 101.165C22.3086 101.566 22.5326 102.056 22.682 102.635C22.8406 103.204 22.92 103.857 22.92 104.595C22.92 105.323 22.8406 105.976 22.682 106.555C22.5326 107.133 22.3086 107.623 22.01 108.025C21.7206 108.417 21.3706 108.715 20.96 108.921C20.5493 109.126 20.092 109.229 19.588 109.229ZM19.588 108.403C19.9333 108.403 20.2273 108.323 20.47 108.165C20.722 108.006 20.9273 107.768 21.086 107.451C21.254 107.124 21.3753 106.723 21.45 106.247C21.534 105.771 21.576 105.22 21.576 104.595C21.576 103.96 21.534 103.405 21.45 102.929C21.3753 102.453 21.254 102.056 21.086 101.739C20.9273 101.412 20.722 101.169 20.47 101.011C20.2273 100.852 19.9333 100.773 19.588 100.773C19.2426 100.773 18.944 100.852 18.692 101.011C18.4493 101.169 18.244 101.412 18.076 101.739C17.9173 102.056 17.796 102.453 17.712 102.929C17.6373 103.405 17.6 103.96 17.6 104.595C17.6 105.22 17.6373 105.771 17.712 106.247C17.796 106.723 17.9173 107.124 18.076 107.451C18.244 107.768 18.4493 108.006 18.692 108.165C18.944 108.323 19.2426 108.403 19.588 108.403ZM27.422 109.229C26.918 109.229 26.4606 109.126 26.05 108.921C25.6486 108.715 25.2986 108.417 25 108.025C24.7106 107.623 24.4866 107.133 24.328 106.555C24.1693 105.976 24.09 105.323 24.09 104.595C24.09 103.857 24.1693 103.204 24.328 102.635C24.4866 102.056 24.7106 101.566 25 101.165C25.2986 100.763 25.6486 100.465 26.05 100.269C26.4606 100.063 26.918 99.9607 27.422 99.9607C27.926 99.9607 28.3833 100.063 28.794 100.269C29.2046 100.465 29.5546 100.763 29.844 101.165C30.1426 101.566 30.3666 102.056 30.516 102.635C30.6746 103.204 30.754 103.857 30.754 104.595C30.754 105.323 30.6746 105.976 30.516 106.555C30.3666 107.133 30.1426 107.623 29.844 108.025C29.5546 108.417 29.2046 108.715 28.794 108.921C28.3833 109.126 27.926 109.229 27.422 109.229ZM27.422 108.403C27.7673 108.403 28.0613 108.323 28.304 108.165C28.556 108.006 28.7613 107.768 28.92 107.451C29.088 107.124 29.2093 106.723 29.284 106.247C29.368 105.771 29.41 105.22 29.41 104.595C29.41 103.96 29.368 103.405 29.284 102.929C29.2093 102.453 29.088 102.056 28.92 101.739C28.7613 101.412 28.556 101.169 28.304 101.011C28.0613 100.852 27.7673 100.773 27.422 100.773C27.0766 100.773 26.778 100.852 26.526 101.011C26.2833 101.169 26.078 101.412 25.91 101.739C25.7513 102.056 25.63 102.453 25.546 102.929C25.4713 103.405 25.434 103.96 25.434 104.595C25.434 105.22 25.4713 105.771 25.546 106.247C25.63 106.723 25.7513 107.124 25.91 107.451C26.078 107.768 26.2833 108.006 26.526 108.165C26.778 108.323 27.0766 108.403 27.422 108.403ZM32.9459 111.497L32.0079 110.881C32.4279 110.694 32.7779 110.498 33.0579 110.293C33.3473 110.097 33.5619 109.873 33.7019 109.621C33.8513 109.378 33.9306 109.107 33.9399 108.809C33.9493 108.781 33.9586 108.753 33.9679 108.725C33.9866 108.697 34.0053 108.678 34.0239 108.669C34.0519 108.65 34.0753 108.641 34.0939 108.641C34.1219 108.641 34.1453 108.65 34.1639 108.669C34.1359 108.771 34.0893 108.855 34.0239 108.921C33.9586 108.977 33.8793 109.019 33.7859 109.047C33.7019 109.075 33.6039 109.089 33.4919 109.089C33.1839 109.089 32.9273 109.005 32.7219 108.837C32.5259 108.669 32.4279 108.44 32.4279 108.151C32.4279 107.861 32.5306 107.623 32.7359 107.437C32.9413 107.25 33.2073 107.157 33.5339 107.157C33.7673 107.157 33.9726 107.208 34.1499 107.311C34.3366 107.404 34.4813 107.553 34.5839 107.759C34.6866 107.955 34.7379 108.211 34.7379 108.529C34.7379 108.949 34.6773 109.336 34.5559 109.691C34.4346 110.045 34.2386 110.367 33.9679 110.657C33.7066 110.955 33.3659 111.235 32.9459 111.497ZM39.5626 109.229C39.0586 109.229 38.6012 109.126 38.1906 108.921C37.7892 108.715 37.4392 108.417 37.1406 108.025C36.8512 107.623 36.6272 107.133 36.4686 106.555C36.3099 105.976 36.2306 105.323 36.2306 104.595C36.2306 103.857 36.3099 103.204 36.4686 102.635C36.6272 102.056 36.8512 101.566 37.1406 101.165C37.4392 100.763 37.7892 100.465 38.1906 100.269C38.6012 100.063 39.0586 99.9607 39.5626 99.9607C40.0666 99.9607 40.5239 100.063 40.9346 100.269C41.3452 100.465 41.6952 100.763 41.9846 101.165C42.2832 101.566 42.5072 102.056 42.6566 102.635C42.8152 103.204 42.8946 103.857 42.8946 104.595C42.8946 105.323 42.8152 105.976 42.6566 106.555C42.5072 107.133 42.2832 107.623 41.9846 108.025C41.6952 108.417 41.3452 108.715 40.9346 108.921C40.5239 109.126 40.0666 109.229 39.5626 109.229ZM39.5626 108.403C39.9079 108.403 40.2019 108.323 40.4446 108.165C40.6966 108.006 40.9019 107.768 41.0606 107.451C41.2286 107.124 41.3499 106.723 41.4246 106.247C41.5086 105.771 41.5506 105.22 41.5506 104.595C41.5506 103.96 41.5086 103.405 41.4246 102.929C41.3499 102.453 41.2286 102.056 41.0606 101.739C40.9019 101.412 40.6966 101.169 40.4446 101.011C40.2019 100.852 39.9079 100.773 39.5626 100.773C39.2172 100.773 38.9186 100.852 38.6666 101.011C38.4239 101.169 38.2186 101.412 38.0506 101.739C37.8919 102.056 37.7706 102.453 37.6866 102.929C37.6119 103.405 37.5746 103.96 37.5746 104.595C37.5746 105.22 37.6119 105.771 37.6866 106.247C37.7706 106.723 37.8919 107.124 38.0506 107.451C38.2186 107.768 38.4239 108.006 38.6666 108.165C38.9186 108.323 39.2172 108.403 39.5626 108.403ZM47.3966 109.229C46.8926 109.229 46.4352 109.126 46.0246 108.921C45.6232 108.715 45.2732 108.417 44.9746 108.025C44.6852 107.623 44.4612 107.133 44.3026 106.555C44.1439 105.976 44.0646 105.323 44.0646 104.595C44.0646 103.857 44.1439 103.204 44.3026 102.635C44.4612 102.056 44.6852 101.566 44.9746 101.165C45.2732 100.763 45.6232 100.465 46.0246 100.269C46.4352 100.063 46.8926 99.9607 47.3966 99.9607C47.9006 99.9607 48.3579 100.063 48.7686 100.269C49.1792 100.465 49.5292 100.763 49.8186 101.165C50.1172 101.566 50.3412 102.056 50.4906 102.635C50.6492 103.204 50.7286 103.857 50.7286 104.595C50.7286 105.323 50.6492 105.976 50.4906 106.555C50.3412 107.133 50.1172 107.623 49.8186 108.025C49.5292 108.417 49.1792 108.715 48.7686 108.921C48.3579 109.126 47.9006 109.229 47.3966 109.229ZM47.3966 108.403C47.7419 108.403 48.0359 108.323 48.2786 108.165C48.5306 108.006 48.7359 107.768 48.8946 107.451C49.0626 107.124 49.1839 106.723 49.2586 106.247C49.3426 105.771 49.3846 105.22 49.3846 104.595C49.3846 103.96 49.3426 103.405 49.2586 102.929C49.1839 102.453 49.0626 102.056 48.8946 101.739C48.7359 101.412 48.5306 101.169 48.2786 101.011C48.0359 100.852 47.7419 100.773 47.3966 100.773C47.0512 100.773 46.7526 100.852 46.5006 101.011C46.2579 101.169 46.0526 101.412 45.8846 101.739C45.7259 102.056 45.6046 102.453 45.5206 102.929C45.4459 103.405 45.4086 103.96 45.4086 104.595C45.4086 105.22 45.4459 105.771 45.5206 106.247C45.6046 106.723 45.7259 107.124 45.8846 107.451C46.0526 107.768 46.2579 108.006 46.5006 108.165C46.7526 108.323 47.0512 108.403 47.3966 108.403ZM55.2305 109.229C54.7265 109.229 54.2692 109.126 53.8585 108.921C53.4572 108.715 53.1072 108.417 52.8085 108.025C52.5192 107.623 52.2952 107.133 52.1365 106.555C51.9779 105.976 51.8985 105.323 51.8985 104.595C51.8985 103.857 51.9779 103.204 52.1365 102.635C52.2952 102.056 52.5192 101.566 52.8085 101.165C53.1072 100.763 53.4572 100.465 53.8585 100.269C54.2692 100.063 54.7265 99.9607 55.2305 99.9607C55.7345 99.9607 56.1919 100.063 56.6025 100.269C57.0132 100.465 57.3632 100.763 57.6525 101.165C57.9512 101.566 58.1752 102.056 58.3245 102.635C58.4832 103.204 58.5625 103.857 58.5625 104.595C58.5625 105.323 58.4832 105.976 58.3245 106.555C58.1752 107.133 57.9512 107.623 57.6525 108.025C57.3632 108.417 57.0132 108.715 56.6025 108.921C56.1919 109.126 55.7345 109.229 55.2305 109.229ZM55.2305 108.403C55.5759 108.403 55.8699 108.323 56.1125 108.165C56.3645 108.006 56.5699 107.768 56.7285 107.451C56.8965 107.124 57.0179 106.723 57.0925 106.247C57.1765 105.771 57.2185 105.22 57.2185 104.595C57.2185 103.96 57.1765 103.405 57.0925 102.929C57.0179 102.453 56.8965 102.056 56.7285 101.739C56.5699 101.412 56.3645 101.169 56.1125 101.011C55.8699 100.852 55.5759 100.773 55.2305 100.773C54.8852 100.773 54.5865 100.852 54.3345 101.011C54.0919 101.169 53.8865 101.412 53.7185 101.739C53.5599 102.056 53.4385 102.453 53.3545 102.929C53.2799 103.405 53.2425 103.96 53.2425 104.595C53.2425 105.22 53.2799 105.771 53.3545 106.247C53.4385 106.723 53.5599 107.124 53.7185 107.451C53.8865 107.768 54.0919 108.006 54.3345 108.165C54.5865 108.323 54.8852 108.403 55.2305 108.403Z" fill="black"/>
<path d="M5.292 136.581L6.51 136.273L8.484 139.689C8.596 139.857 8.708 139.987 8.82 140.081C8.94133 140.174 9.07667 140.235 9.226 140.263C9.37533 140.291 9.54333 140.305 9.73 140.305H9.856V141.075H7.756L5.292 136.581ZM3.374 140.165C3.374 140.193 3.40667 140.216 3.472 140.235C3.54667 140.244 3.64 140.258 3.752 140.277C3.87333 140.286 4.004 140.295 4.144 140.305C4.29333 140.305 4.438 140.305 4.578 140.305H4.816V141.075H0.742V140.305H0.896C1.24133 140.305 1.526 140.272 1.75 140.207C1.974 140.141 2.086 140.006 2.086 139.801V132.395C2.086 132.189 1.974 132.054 1.75 131.989C1.526 131.923 1.24133 131.891 0.896 131.891H0.742V131.135H5.124C5.86133 131.135 6.49133 131.247 7.014 131.471C7.53667 131.685 7.938 131.998 8.218 132.409C8.498 132.819 8.638 133.314 8.638 133.893C8.638 134.369 8.53533 134.793 8.33 135.167C8.12467 135.531 7.83533 135.843 7.462 136.105C7.098 136.357 6.65933 136.543 6.146 136.665C6.05267 136.702 5.95933 136.735 5.866 136.763C5.77267 136.791 5.67933 136.814 5.586 136.833C5.502 136.851 5.41333 136.861 5.32 136.861H3.164V136.063H5.026C5.53933 136.063 5.95933 135.979 6.286 135.811C6.61267 135.643 6.85067 135.405 7 135.097C7.15867 134.779 7.238 134.406 7.238 133.977C7.238 133.547 7.15867 133.183 7 132.885C6.85067 132.586 6.61733 132.362 6.3 132.213C5.98267 132.054 5.58133 131.975 5.096 131.975H3.374V140.165ZM15.7878 136.497V137.239C15.2185 137.313 14.7285 137.397 14.3178 137.491C13.9072 137.584 13.5665 137.687 13.2958 137.799C13.0252 137.911 12.8105 138.037 12.6518 138.177C12.4932 138.317 12.3812 138.475 12.3158 138.653C12.2505 138.83 12.2178 139.021 12.2178 139.227C12.2178 139.488 12.2692 139.707 12.3718 139.885C12.4838 140.062 12.6378 140.197 12.8338 140.291C13.0298 140.375 13.2585 140.417 13.5198 140.417C13.8185 140.417 14.0938 140.347 14.3458 140.207C14.5978 140.067 14.8405 139.857 15.0738 139.577C15.3072 139.297 15.5358 138.947 15.7598 138.527L15.7738 139.353C15.5872 139.735 15.3678 140.067 15.1158 140.347C14.8732 140.627 14.5932 140.846 14.2758 141.005C13.9678 141.154 13.6178 141.229 13.2258 141.229C12.7778 141.229 12.3812 141.154 12.0358 141.005C11.6905 140.846 11.4198 140.617 11.2238 140.319C11.0278 140.02 10.9298 139.661 10.9298 139.241C10.9298 138.849 11.0185 138.508 11.1958 138.219C11.3732 137.929 11.6532 137.677 12.0358 137.463C12.4278 137.248 12.9318 137.061 13.5478 136.903C14.1638 136.744 14.9105 136.609 15.7878 136.497ZM15.7598 141.075L15.5918 139.451L15.5218 139.367V135.713C15.5218 135.358 15.4752 135.073 15.3818 134.859C15.2885 134.644 15.1298 134.49 14.9058 134.397C14.6912 134.303 14.3972 134.257 14.0238 134.257C13.4638 134.257 13.0065 134.336 12.6518 134.495C12.2972 134.653 12.0312 134.821 11.8538 134.999C11.8538 134.924 11.8725 134.849 11.9098 134.775C11.9472 134.691 11.9985 134.616 12.0638 134.551C12.1292 134.476 12.2038 134.415 12.2878 134.369C12.3812 134.322 12.4838 134.289 12.5958 134.271V135.895H11.3638V134.187C11.4945 134.084 11.6812 133.977 11.9238 133.865C12.1758 133.743 12.4838 133.641 12.8478 133.557C13.2118 133.463 13.6225 133.417 14.0798 133.417C14.4532 133.417 14.8032 133.454 15.1298 133.529C15.4565 133.603 15.7412 133.725 15.9838 133.893C16.2265 134.061 16.4178 134.28 16.5578 134.551C16.6978 134.821 16.7678 135.153 16.7678 135.545V139.773C16.7678 139.903 16.8145 140.006 16.9078 140.081C17.0012 140.155 17.1318 140.211 17.2998 140.249C17.4678 140.277 17.6732 140.305 17.9158 140.333L17.9858 140.347V141.075H15.7598ZM20.59 132.017C20.3193 132.017 20.1 131.942 19.932 131.793C19.764 131.643 19.68 131.419 19.68 131.121C19.68 130.831 19.764 130.612 19.932 130.463C20.1 130.313 20.3193 130.239 20.59 130.239C20.8513 130.239 21.066 130.313 21.234 130.463C21.4113 130.612 21.5 130.831 21.5 131.121C21.5 131.419 21.4113 131.643 21.234 131.793C21.066 131.942 20.8513 132.017 20.59 132.017ZM21.304 133.557V139.689C21.304 139.978 21.4113 140.169 21.626 140.263C21.8406 140.356 22.13 140.403 22.494 140.403H22.536V141.075H18.84V140.403H18.882C19.246 140.403 19.5353 140.356 19.75 140.263C19.9646 140.169 20.072 139.978 20.072 139.689V134.943C20.072 134.737 19.9833 134.602 19.806 134.537C19.6286 134.462 19.3533 134.387 18.98 134.313L18.84 134.285V133.557H21.304ZM28.3858 139.101C28.3858 138.877 28.3298 138.69 28.2178 138.541C28.1151 138.391 27.9704 138.27 27.7838 138.177C27.5971 138.083 27.3824 138.004 27.1398 137.939C26.9064 137.873 26.6638 137.813 26.4118 137.757C26.1038 137.691 25.8004 137.612 25.5018 137.519C25.2031 137.416 24.9324 137.285 24.6898 137.127C24.4471 136.968 24.2511 136.763 24.1018 136.511C23.9618 136.259 23.8918 135.937 23.8918 135.545C23.8918 135.115 23.9991 134.742 24.2138 134.425C24.4284 134.107 24.7411 133.86 25.1518 133.683C25.5624 133.505 26.0571 133.417 26.6358 133.417C27.0931 133.417 27.4898 133.445 27.8258 133.501C28.1711 133.547 28.4558 133.613 28.6798 133.697C28.9131 133.771 29.0858 133.841 29.1978 133.907V135.657H27.9658V134.215C28.0591 134.215 28.1384 134.229 28.2038 134.257C28.2784 134.275 28.3344 134.313 28.3718 134.369C28.4184 134.425 28.4511 134.495 28.4698 134.579C28.4978 134.653 28.5071 134.747 28.4978 134.859C28.3858 134.719 28.2364 134.607 28.0498 134.523C27.8631 134.429 27.6484 134.359 27.4058 134.313C27.1724 134.266 26.9158 134.243 26.6358 134.243C26.0851 134.243 25.6791 134.35 25.4178 134.565C25.1658 134.77 25.0398 135.05 25.0398 135.405C25.0398 135.629 25.0911 135.82 25.1938 135.979C25.3058 136.128 25.4551 136.249 25.6418 136.343C25.8284 136.436 26.0431 136.515 26.2858 136.581C26.5378 136.646 26.7991 136.711 27.0698 136.777C27.3684 136.842 27.6671 136.921 27.9658 137.015C28.2644 137.108 28.5304 137.234 28.7638 137.393C29.0064 137.551 29.1978 137.761 29.3378 138.023C29.4871 138.275 29.5618 138.592 29.5618 138.975C29.5618 139.404 29.4498 139.791 29.2258 140.137C29.0018 140.473 28.6704 140.739 28.2318 140.935C27.7931 141.131 27.2518 141.229 26.6078 141.229C26.1411 141.229 25.7211 141.196 25.3478 141.131C24.9838 141.065 24.6571 140.981 24.3678 140.879C24.0878 140.776 23.8451 140.659 23.6398 140.529V138.695H24.8998V140.627C24.7504 140.561 24.6338 140.491 24.5498 140.417C24.4751 140.342 24.4238 140.267 24.3958 140.193C24.3678 140.109 24.3538 140.029 24.3538 139.955C24.3538 139.871 24.3631 139.787 24.3818 139.703C24.5311 139.833 24.7131 139.95 24.9278 140.053C25.1518 140.155 25.4038 140.239 25.6838 140.305C25.9638 140.361 26.2718 140.389 26.6078 140.389C26.9998 140.389 27.3264 140.342 27.5878 140.249C27.8491 140.155 28.0451 140.015 28.1758 139.829C28.3158 139.633 28.3858 139.39 28.3858 139.101ZM32.1062 137.393C32.1062 137.934 32.1668 138.396 32.2882 138.779C32.4188 139.161 32.6008 139.469 32.8342 139.703C33.0675 139.936 33.3335 140.109 33.6322 140.221C33.9402 140.333 34.2715 140.389 34.6262 140.389C35.0182 140.389 35.3588 140.319 35.6482 140.179C35.9375 140.039 36.1848 139.861 36.3902 139.647C36.6048 139.432 36.7868 139.203 36.9362 138.961L37.6082 139.507C37.4308 139.833 37.1975 140.132 36.9082 140.403C36.6188 140.664 36.2782 140.869 35.8862 141.019C35.5035 141.159 35.0742 141.229 34.5982 141.229C33.8888 141.229 33.2495 141.079 32.6802 140.781C32.1108 140.482 31.6582 140.043 31.3222 139.465C30.9955 138.886 30.8322 138.191 30.8322 137.379C30.8322 136.585 30.9815 135.895 31.2802 135.307C31.5882 134.709 32.0035 134.247 32.5262 133.921C33.0582 133.585 33.6648 133.417 34.3462 133.417C34.8968 133.417 35.3728 133.505 35.7742 133.683C36.1755 133.86 36.5115 134.126 36.7822 134.481C37.0528 134.835 37.2582 135.279 37.3982 135.811C37.5382 136.343 37.6082 136.963 37.6082 137.673H31.8122V136.861H36.6842L36.3202 137.169C36.3015 136.637 36.2502 136.189 36.1662 135.825C36.0915 135.451 35.9748 135.153 35.8162 134.929C35.6668 134.695 35.4708 134.527 35.2282 134.425C34.9855 134.322 34.6915 134.271 34.3462 134.271C34.0195 134.271 33.7162 134.336 33.4362 134.467C33.1655 134.588 32.9275 134.779 32.7222 135.041C32.5262 135.302 32.3722 135.629 32.2602 136.021C32.1575 136.413 32.1062 136.87 32.1062 137.393ZM46.1079 139.773C46.1079 139.978 46.2106 140.113 46.4159 140.179C46.6306 140.244 46.9106 140.295 47.2559 140.333L47.3259 140.347V141.075H45.0859L44.9179 139.437L44.8619 139.423V131.849C44.8619 131.709 44.8199 131.606 44.7359 131.541C44.6612 131.466 44.5399 131.405 44.3719 131.359C44.2132 131.312 44.0079 131.265 43.7559 131.219L43.6159 131.191V130.463H46.1079V139.773ZM42.3979 133.417C42.8086 133.417 43.1726 133.487 43.4899 133.627C43.8166 133.767 44.1106 133.967 44.3719 134.229C44.6426 134.49 44.8899 134.817 45.1139 135.209L45.0719 136.133C44.8386 135.713 44.5912 135.367 44.3299 135.097C44.0686 134.817 43.7839 134.611 43.4759 134.481C43.1772 134.35 42.8412 134.285 42.4679 134.285C42.1039 134.285 41.7819 134.355 41.5019 134.495C41.2219 134.625 40.9886 134.821 40.8019 135.083C40.6152 135.344 40.4752 135.671 40.3819 136.063C40.2886 136.445 40.2419 136.884 40.2419 137.379C40.2419 137.855 40.2839 138.279 40.3679 138.653C40.4612 139.026 40.5919 139.343 40.7599 139.605C40.9372 139.857 41.1612 140.048 41.4319 140.179C41.7026 140.309 42.0199 140.375 42.3839 140.375C42.7759 140.375 43.1306 140.309 43.4479 140.179C43.7652 140.039 44.0592 139.833 44.3299 139.563C44.6006 139.283 44.8572 138.937 45.0999 138.527L45.1139 139.381C44.8712 139.773 44.6146 140.109 44.3439 140.389C44.0732 140.659 43.7652 140.869 43.4199 141.019C43.0839 141.159 42.7012 141.229 42.2719 141.229C41.5626 141.229 40.9606 141.07 40.4659 140.753C39.9712 140.426 39.5886 139.973 39.3179 139.395C39.0566 138.816 38.9259 138.144 38.9259 137.379C38.9259 136.604 39.0612 135.923 39.3319 135.335C39.6119 134.737 40.0132 134.271 40.5359 133.935C41.0586 133.589 41.6792 133.417 42.3979 133.417Z" fill="#5C5C5C"/>
<path d="M0.434 187.367V186.065L4.074 180.143H5.04L4.76 180.717L1.022 186.835L0.98 186.191H7.672V187.367H0.434ZM6.188 189.957H4.592V180.563L4.648 180.143H6.188V189.957ZM11.516 190.111C10.8907 190.111 10.3587 190.022 9.91998 189.845C9.49065 189.667 9.13598 189.42 8.85598 189.103C8.57598 188.785 8.35198 188.426 8.18398 188.025L9.06598 187.465C9.18732 187.726 9.34132 187.987 9.52798 188.249C9.71465 188.51 9.95732 188.729 10.256 188.907C10.564 189.075 10.9607 189.159 11.446 189.159C11.8567 189.159 12.2113 189.07 12.51 188.893C12.8087 188.715 13.0327 188.445 13.182 188.081C13.3407 187.707 13.42 187.236 13.42 186.667C13.42 186.144 13.35 185.724 13.21 185.407C13.07 185.089 12.8693 184.856 12.608 184.707C12.356 184.557 12.0573 184.483 11.712 184.483C11.4413 184.483 11.194 184.52 10.97 184.595C10.7553 184.669 10.5593 184.786 10.382 184.945C10.214 185.103 10.0553 185.309 9.90598 185.561H9.00998V180.129H14.47L14.148 181.431H9.66798L10.004 180.409V184.931C9.99465 184.977 9.96665 185.019 9.91998 185.057C9.87332 185.085 9.82665 185.099 9.77998 185.099C9.73332 185.089 9.70532 185.057 9.69598 185.001C9.85465 184.683 10.046 184.417 10.27 184.203C10.5033 183.979 10.7693 183.811 11.068 183.699C11.3667 183.587 11.712 183.531 12.104 183.531C12.7293 183.531 13.2613 183.666 13.7 183.937C14.148 184.198 14.4887 184.562 14.722 185.029C14.9553 185.495 15.072 186.041 15.072 186.667C15.072 187.395 14.9273 188.015 14.638 188.529C14.3487 189.042 13.938 189.434 13.406 189.705C12.874 189.975 12.244 190.111 11.516 190.111Z" fill="black"/>
<path d="M0.742 211.891V211.135H5.04C5.86133 211.135 6.59867 211.242 7.252 211.457C7.90533 211.671 8.46067 211.989 8.918 212.409C9.38467 212.819 9.73933 213.333 9.982 213.949C10.234 214.565 10.36 215.269 10.36 216.063C10.36 216.847 10.234 217.551 9.982 218.177C9.73933 218.793 9.38467 219.32 8.918 219.759C8.46067 220.188 7.90533 220.515 7.252 220.739C6.59867 220.963 5.86133 221.075 5.04 221.075H0.742V220.305H0.896C1.24133 220.305 1.526 220.272 1.75 220.207C1.974 220.141 2.086 220.006 2.086 219.801V212.395C2.086 212.199 1.974 212.068 1.75 212.003C1.526 211.928 1.24133 211.891 0.896 211.891H0.742ZM5.04 211.975H3.388V220.221H5.04C5.67467 220.221 6.23467 220.137 6.72 219.969C7.20533 219.791 7.61133 219.53 7.938 219.185C8.274 218.83 8.526 218.391 8.694 217.869C8.87133 217.346 8.96 216.744 8.96 216.063C8.96 215.372 8.87133 214.77 8.694 214.257C8.526 213.743 8.274 213.319 7.938 212.983C7.61133 212.647 7.20533 212.395 6.72 212.227C6.23467 212.059 5.67467 211.975 5.04 211.975ZM16.8132 216.497V217.239C16.2439 217.313 15.7539 217.397 15.3432 217.491C14.9326 217.584 14.5919 217.687 14.3212 217.799C14.0506 217.911 13.8359 218.037 13.6772 218.177C13.5186 218.317 13.4066 218.475 13.3412 218.653C13.2759 218.83 13.2432 219.021 13.2432 219.227C13.2432 219.488 13.2946 219.707 13.3972 219.885C13.5092 220.062 13.6632 220.197 13.8592 220.291C14.0552 220.375 14.2839 220.417 14.5452 220.417C14.8439 220.417 15.1192 220.347 15.3712 220.207C15.6232 220.067 15.8659 219.857 16.0992 219.577C16.3326 219.297 16.5612 218.947 16.7852 218.527L16.7992 219.353C16.6126 219.735 16.3932 220.067 16.1412 220.347C15.8986 220.627 15.6186 220.846 15.3012 221.005C14.9932 221.154 14.6432 221.229 14.2512 221.229C13.8032 221.229 13.4066 221.154 13.0612 221.005C12.7159 220.846 12.4452 220.617 12.2492 220.319C12.0532 220.02 11.9552 219.661 11.9552 219.241C11.9552 218.849 12.0439 218.508 12.2212 218.219C12.3986 217.929 12.6786 217.677 13.0612 217.463C13.4532 217.248 13.9572 217.061 14.5732 216.903C15.1892 216.744 15.9359 216.609 16.8132 216.497ZM16.7852 221.075L16.6172 219.451L16.5472 219.367V215.713C16.5472 215.358 16.5006 215.073 16.4072 214.859C16.3139 214.644 16.1552 214.49 15.9312 214.397C15.7166 214.303 15.4226 214.257 15.0492 214.257C14.4892 214.257 14.0319 214.336 13.6772 214.495C13.3226 214.653 13.0566 214.821 12.8792 214.999C12.8792 214.924 12.8979 214.849 12.9352 214.775C12.9726 214.691 13.0239 214.616 13.0892 214.551C13.1546 214.476 13.2292 214.415 13.3132 214.369C13.4066 214.322 13.5092 214.289 13.6212 214.271V215.895H12.3892V214.187C12.5199 214.084 12.7066 213.977 12.9492 213.865C13.2012 213.743 13.5092 213.641 13.8732 213.557C14.2372 213.463 14.6479 213.417 15.1052 213.417C15.4786 213.417 15.8286 213.454 16.1552 213.529C16.4819 213.603 16.7666 213.725 17.0092 213.893C17.2519 214.061 17.4432 214.28 17.5832 214.551C17.7232 214.821 17.7932 215.153 17.7932 215.545V219.773C17.7932 219.903 17.8399 220.006 17.9332 220.081C18.0266 220.155 18.1572 220.211 18.3252 220.249C18.4932 220.277 18.6986 220.305 18.9412 220.333L19.0112 220.347V221.075H16.7852ZM23.8499 220.459L23.6959 220.977L23.0099 221.397L20.2939 214.761C20.2379 214.63 20.1585 214.532 20.0559 214.467C19.9625 214.401 19.8412 214.359 19.6919 214.341C19.5519 214.313 19.3839 214.299 19.1879 214.299H19.1039V213.557H22.6879V214.299H22.6179C22.4312 214.299 22.2445 214.303 22.0579 214.313C21.8805 214.313 21.7312 214.322 21.6099 214.341C21.4979 214.35 21.4419 214.373 21.4419 214.411L23.8499 220.459ZM24.0459 220.837C23.7845 221.471 23.5279 222.013 23.2759 222.461C23.0239 222.909 22.7625 223.268 22.4919 223.539C22.2305 223.809 21.9459 224.005 21.6379 224.127C21.3299 224.257 20.9799 224.323 20.5879 224.323C20.3359 224.323 20.1119 224.295 19.9159 224.239C19.7199 224.192 19.5705 224.136 19.4679 224.071V222.951C19.4959 222.96 19.5612 222.983 19.6639 223.021C19.7759 223.067 19.9112 223.109 20.0699 223.147C20.2379 223.184 20.4199 223.203 20.6159 223.203C20.8492 223.203 21.0732 223.17 21.2879 223.105C21.5119 223.039 21.7312 222.909 21.9459 222.713C22.1699 222.517 22.3939 222.223 22.6179 221.831C22.8419 221.448 23.0705 220.944 23.3039 220.319L23.4159 220.081L25.6139 214.593C25.6139 214.527 25.5579 214.476 25.4459 214.439C25.3339 214.392 25.1892 214.359 25.0119 214.341C24.8345 214.313 24.6525 214.299 24.4659 214.299H24.3959V213.557H27.6859V214.299H27.6019C27.4432 214.299 27.2892 214.317 27.1399 214.355C26.9999 214.383 26.8692 214.443 26.7479 214.537C26.6359 214.63 26.5425 214.77 26.4679 214.957L24.0459 220.837ZM33.0889 219.101C33.0889 218.877 33.0329 218.69 32.9209 218.541C32.8182 218.391 32.6736 218.27 32.4869 218.177C32.3002 218.083 32.0856 218.004 31.8429 217.939C31.6096 217.873 31.3669 217.813 31.1149 217.757C30.8069 217.691 30.5036 217.612 30.2049 217.519C29.9062 217.416 29.6356 217.285 29.3929 217.127C29.1502 216.968 28.9542 216.763 28.8049 216.511C28.6649 216.259 28.5949 215.937 28.5949 215.545C28.5949 215.115 28.7022 214.742 28.9169 214.425C29.1316 214.107 29.4442 213.86 29.8549 213.683C30.2656 213.505 30.7602 213.417 31.3389 213.417C31.7962 213.417 32.1929 213.445 32.5289 213.501C32.8742 213.547 33.1589 213.613 33.3829 213.697C33.6162 213.771 33.7889 213.841 33.9009 213.907V215.657H32.6689V214.215C32.7622 214.215 32.8416 214.229 32.9069 214.257C32.9816 214.275 33.0376 214.313 33.0749 214.369C33.1216 214.425 33.1542 214.495 33.1729 214.579C33.2009 214.653 33.2102 214.747 33.2009 214.859C33.0889 214.719 32.9396 214.607 32.7529 214.523C32.5662 214.429 32.3516 214.359 32.1089 214.313C31.8756 214.266 31.6189 214.243 31.3389 214.243C30.7882 214.243 30.3822 214.35 30.1209 214.565C29.8689 214.77 29.7429 215.05 29.7429 215.405C29.7429 215.629 29.7942 215.82 29.8969 215.979C30.0089 216.128 30.1582 216.249 30.3449 216.343C30.5316 216.436 30.7462 216.515 30.9889 216.581C31.2409 216.646 31.5022 216.711 31.7729 216.777C32.0716 216.842 32.3702 216.921 32.6689 217.015C32.9676 217.108 33.2336 217.234 33.4669 217.393C33.7096 217.551 33.9009 217.761 34.0409 218.023C34.1902 218.275 34.2649 218.592 34.2649 218.975C34.2649 219.404 34.1529 219.791 33.9289 220.137C33.7049 220.473 33.3736 220.739 32.9349 220.935C32.4962 221.131 31.9549 221.229 31.3109 221.229C30.8442 221.229 30.4242 221.196 30.0509 221.131C29.6869 221.065 29.3602 220.981 29.0709 220.879C28.7909 220.776 28.5482 220.659 28.3429 220.529V218.695H29.6029V220.627C29.4536 220.561 29.3369 220.491 29.2529 220.417C29.1782 220.342 29.1269 220.267 29.0989 220.193C29.0709 220.109 29.0569 220.029 29.0569 219.955C29.0569 219.871 29.0662 219.787 29.0849 219.703C29.2342 219.833 29.4162 219.95 29.6309 220.053C29.8549 220.155 30.1069 220.239 30.3869 220.305C30.6669 220.361 30.9749 220.389 31.3109 220.389C31.7029 220.389 32.0296 220.342 32.2909 220.249C32.5522 220.155 32.7482 220.015 32.8789 219.829C33.0189 219.633 33.0889 219.39 33.0889 219.101ZM43.3573 211.135V211.891H43.1753C42.8113 211.891 42.508 211.923 42.2653 211.989C42.032 212.054 41.9153 212.189 41.9153 212.395V220.221H44.0573C44.4587 220.221 44.7853 220.207 45.0373 220.179C45.2893 220.141 45.476 220.081 45.5973 219.997C45.728 219.903 45.798 219.773 45.8073 219.605L45.9753 217.855H46.8573V221.075H39.2693V220.305H39.4233C39.7687 220.305 40.0533 220.272 40.2773 220.207C40.5013 220.141 40.6133 220.006 40.6133 219.801V212.395C40.6133 212.189 40.5013 212.054 40.2773 211.989C40.0533 211.923 39.7687 211.891 39.4233 211.891H39.2693V211.135H43.3573ZM49.5241 217.393C49.5241 217.934 49.5848 218.396 49.7061 218.779C49.8368 219.161 50.0188 219.469 50.2521 219.703C50.4855 219.936 50.7515 220.109 51.0501 220.221C51.3581 220.333 51.6895 220.389 52.0441 220.389C52.4361 220.389 52.7768 220.319 53.0661 220.179C53.3555 220.039 53.6028 219.861 53.8081 219.647C54.0228 219.432 54.2048 219.203 54.3541 218.961L55.0261 219.507C54.8488 219.833 54.6155 220.132 54.3261 220.403C54.0368 220.664 53.6961 220.869 53.3041 221.019C52.9215 221.159 52.4921 221.229 52.0161 221.229C51.3068 221.229 50.6675 221.079 50.0981 220.781C49.5288 220.482 49.0761 220.043 48.7401 219.465C48.4135 218.886 48.2501 218.191 48.2501 217.379C48.2501 216.585 48.3995 215.895 48.6981 215.307C49.0061 214.709 49.4215 214.247 49.9441 213.921C50.4761 213.585 51.0828 213.417 51.7641 213.417C52.3148 213.417 52.7908 213.505 53.1921 213.683C53.5935 213.86 53.9295 214.126 54.2001 214.481C54.4708 214.835 54.6761 215.279 54.8161 215.811C54.9561 216.343 55.0261 216.963 55.0261 217.673H49.2301V216.861H54.1021L53.7381 217.169C53.7195 216.637 53.6681 216.189 53.5841 215.825C53.5095 215.451 53.3928 215.153 53.2341 214.929C53.0848 214.695 52.8888 214.527 52.6461 214.425C52.4035 214.322 52.1095 214.271 51.7641 214.271C51.4375 214.271 51.1341 214.336 50.8541 214.467C50.5835 214.588 50.3455 214.779 50.1401 215.041C49.9441 215.302 49.7901 215.629 49.6781 216.021C49.5755 216.413 49.5241 216.87 49.5241 217.393ZM56.1782 213.557H61.1762V214.397H56.1782V213.557ZM61.7922 210.421V211.345C61.6522 211.307 61.4655 211.265 61.2322 211.219C60.9988 211.172 60.7422 211.149 60.4622 211.149C60.1542 211.149 59.8882 211.195 59.6642 211.289C59.4402 211.382 59.2675 211.545 59.1462 211.779C59.0248 212.003 58.9642 212.325 58.9642 212.745V220.263C58.9642 220.291 59.0295 220.319 59.1602 220.347C59.3002 220.365 59.4682 220.379 59.6642 220.389C59.8695 220.398 60.0702 220.403 60.2662 220.403H60.6022V221.075H56.2202V220.403H56.4582C56.8595 220.403 57.1675 220.351 57.3822 220.249C57.6062 220.146 57.7182 219.936 57.7182 219.619V212.675C57.7182 212.04 57.8442 211.555 58.0962 211.219C58.3575 210.873 58.6935 210.631 59.1042 210.491C59.5242 210.351 59.9722 210.281 60.4482 210.281C60.7282 210.281 60.9942 210.295 61.2462 210.323C61.4982 210.351 61.6802 210.383 61.7922 210.421ZM62.0339 214.397V213.627H62.1879C62.5052 213.627 62.7712 213.608 62.9859 213.571C63.2006 213.524 63.3592 213.435 63.4619 213.305C63.5739 213.174 63.6299 212.978 63.6299 212.717L64.5399 213.557H67.2139V214.397H62.0339ZM64.7779 218.793C64.7779 219.185 64.8339 219.493 64.9459 219.717C65.0579 219.941 65.2212 220.099 65.4359 220.193C65.6506 220.286 65.9072 220.333 66.2059 220.333C66.4486 220.333 66.6726 220.319 66.8779 220.291C67.0832 220.253 67.2232 220.225 67.2979 220.207V221.047C67.2046 221.075 67.0879 221.103 66.9479 221.131C66.8079 221.159 66.6632 221.182 66.5139 221.201C66.3646 221.219 66.2106 221.229 66.0519 221.229C65.6132 221.229 65.2026 221.163 64.8199 221.033C64.4372 220.902 64.1246 220.664 63.8819 220.319C63.6486 219.964 63.5319 219.46 63.5319 218.807V213.767L63.6299 213.655V211.415H64.7779V218.793Z" fill="#5C5C5C"/>
<rect width="406" height="44" transform="translate(0 256.075)" fill="#F3F0F0"/>
<path d="M143.102 275.557H148.1V276.397H143.102V275.557ZM148.716 272.421V273.345C148.576 273.307 148.389 273.265 148.156 273.219C147.923 273.172 147.666 273.149 147.386 273.149C147.078 273.149 146.812 273.195 146.588 273.289C146.364 273.382 146.191 273.545 146.07 273.779C145.949 274.003 145.888 274.325 145.888 274.745V282.263C145.888 282.291 145.953 282.319 146.084 282.347C146.224 282.365 146.392 282.379 146.588 282.389C146.793 282.398 146.994 282.403 147.19 282.403H147.526V283.075H143.144V282.403H143.382C143.783 282.403 144.091 282.351 144.306 282.249C144.53 282.146 144.642 281.936 144.642 281.619V274.675C144.642 274.04 144.768 273.555 145.02 273.219C145.281 272.873 145.617 272.631 146.028 272.491C146.448 272.351 146.896 272.281 147.372 272.281C147.652 272.281 147.918 272.295 148.17 272.323C148.422 272.351 148.604 272.383 148.716 272.421ZM151.4 275.557V280.947C151.4 281.245 151.437 281.497 151.512 281.703C151.596 281.899 151.722 282.048 151.89 282.151C152.067 282.244 152.305 282.291 152.604 282.291C152.912 282.291 153.206 282.23 153.486 282.109C153.775 281.987 154.055 281.805 154.326 281.563C154.606 281.32 154.881 281.012 155.152 280.639V281.395C154.89 281.787 154.61 282.118 154.312 282.389C154.022 282.659 153.71 282.865 153.374 283.005C153.038 283.145 152.674 283.215 152.282 283.215C151.843 283.215 151.46 283.14 151.134 282.991C150.816 282.832 150.574 282.594 150.406 282.277C150.238 281.959 150.154 281.567 150.154 281.101V276.943C150.154 276.737 150.065 276.593 149.888 276.509C149.71 276.425 149.44 276.359 149.076 276.313L148.866 276.285V275.557H151.4ZM156.146 275.557V281.773C156.146 281.903 156.192 282.006 156.286 282.081C156.379 282.155 156.51 282.211 156.678 282.249C156.855 282.286 157.06 282.314 157.294 282.333L157.378 282.347V283.075H155.124L154.956 281.437L154.9 281.353V276.943C154.9 276.737 154.806 276.593 154.62 276.509C154.442 276.425 154.167 276.364 153.794 276.327L153.458 276.285V275.557H156.146ZM158.318 283.075V282.403H158.36C158.603 282.403 158.813 282.384 158.99 282.347C159.168 282.3 159.303 282.221 159.396 282.109C159.49 281.987 159.536 281.824 159.536 281.619V276.943C159.536 276.803 159.494 276.7 159.41 276.635C159.336 276.56 159.219 276.499 159.06 276.453C158.902 276.406 158.701 276.359 158.458 276.313L158.318 276.285V275.557H160.558L160.726 277.153L160.782 277.223V282.263C160.782 282.291 160.838 282.319 160.95 282.347C161.062 282.365 161.198 282.379 161.356 282.389C161.515 282.398 161.66 282.403 161.79 282.403H161.846V283.075H158.318ZM166.802 283.075H163.274V282.403H163.316C163.447 282.403 163.592 282.398 163.75 282.389C163.909 282.379 164.044 282.365 164.156 282.347C164.278 282.319 164.338 282.291 164.338 282.263V277.685C164.338 277.377 164.296 277.125 164.212 276.929C164.138 276.733 164.012 276.588 163.834 276.495C163.657 276.392 163.419 276.341 163.12 276.341C162.812 276.341 162.509 276.401 162.21 276.523C161.921 276.644 161.636 276.826 161.356 277.069C161.086 277.311 160.81 277.624 160.53 278.007V277.251C160.801 276.849 161.086 276.513 161.384 276.243C161.683 275.972 162 275.767 162.336 275.627C162.682 275.487 163.05 275.417 163.442 275.417C163.9 275.417 164.282 275.496 164.59 275.655C164.908 275.804 165.15 276.037 165.318 276.355C165.496 276.663 165.584 277.055 165.584 277.531V281.619C165.584 281.824 165.631 281.987 165.724 282.109C165.818 282.221 165.953 282.3 166.13 282.347C166.308 282.384 166.518 282.403 166.76 282.403H166.802V283.075ZM175.032 281.773C175.032 281.978 175.134 282.113 175.34 282.179C175.554 282.244 175.834 282.295 176.18 282.333L176.25 282.347V283.075H174.01L173.842 281.437L173.786 281.423V273.849C173.786 273.709 173.744 273.606 173.66 273.541C173.585 273.466 173.464 273.405 173.296 273.359C173.137 273.312 172.932 273.265 172.68 273.219L172.54 273.191V272.463H175.032V281.773ZM171.322 275.417C171.732 275.417 172.096 275.487 172.414 275.627C172.74 275.767 173.034 275.967 173.296 276.229C173.566 276.49 173.814 276.817 174.038 277.209L173.996 278.133C173.762 277.713 173.515 277.367 173.254 277.097C172.992 276.817 172.708 276.611 172.4 276.481C172.101 276.35 171.765 276.285 171.392 276.285C171.028 276.285 170.706 276.355 170.426 276.495C170.146 276.625 169.912 276.821 169.726 277.083C169.539 277.344 169.399 277.671 169.306 278.063C169.212 278.445 169.166 278.884 169.166 279.379C169.166 279.855 169.208 280.279 169.292 280.653C169.385 281.026 169.516 281.343 169.684 281.605C169.861 281.857 170.085 282.048 170.356 282.179C170.626 282.309 170.944 282.375 171.308 282.375C171.7 282.375 172.054 282.309 172.372 282.179C172.689 282.039 172.983 281.833 173.254 281.563C173.524 281.283 173.781 280.937 174.024 280.527L174.038 281.381C173.795 281.773 173.538 282.109 173.268 282.389C172.997 282.659 172.689 282.869 172.344 283.019C172.008 283.159 171.625 283.229 171.196 283.229C170.486 283.229 169.884 283.07 169.39 282.753C168.895 282.426 168.512 281.973 168.242 281.395C167.98 280.816 167.85 280.144 167.85 279.379C167.85 278.604 167.985 277.923 168.256 277.335C168.536 276.737 168.937 276.271 169.46 275.935C169.982 275.589 170.603 275.417 171.322 275.417ZM180.43 276.397V275.627H180.584C180.902 275.627 181.168 275.608 181.382 275.571C181.597 275.524 181.756 275.435 181.858 275.305C181.97 275.174 182.026 274.978 182.026 274.717L182.936 275.557H185.61V276.397H180.43ZM183.174 280.793C183.174 281.185 183.23 281.493 183.342 281.717C183.454 281.941 183.618 282.099 183.832 282.193C184.047 282.286 184.304 282.333 184.602 282.333C184.845 282.333 185.069 282.319 185.274 282.291C185.48 282.253 185.62 282.225 185.694 282.207V283.047C185.601 283.075 185.484 283.103 185.344 283.131C185.204 283.159 185.06 283.182 184.91 283.201C184.761 283.219 184.607 283.229 184.448 283.229C184.01 283.229 183.599 283.163 183.216 283.033C182.834 282.902 182.521 282.664 182.278 282.319C182.045 281.964 181.928 281.46 181.928 280.807V275.767L182.026 275.655V273.415H183.174V280.793ZM189.261 272.463V282.263C189.261 282.291 189.317 282.319 189.429 282.347C189.541 282.365 189.677 282.379 189.835 282.389C189.994 282.398 190.139 282.403 190.269 282.403H190.325V283.075H186.783V282.403H186.825C187.068 282.403 187.278 282.384 187.455 282.347C187.633 282.3 187.768 282.221 187.861 282.109C187.964 281.987 188.015 281.824 188.015 281.619V273.849C188.015 273.709 187.973 273.606 187.889 273.541C187.815 273.466 187.698 273.405 187.539 273.359C187.381 273.312 187.175 273.265 186.923 273.219L186.783 273.191V272.463H189.261ZM195.281 283.075H191.739V282.403H191.795C191.926 282.403 192.071 282.398 192.229 282.389C192.388 282.379 192.523 282.365 192.635 282.347C192.747 282.319 192.803 282.291 192.803 282.263V277.685C192.803 277.377 192.766 277.125 192.691 276.929C192.617 276.733 192.491 276.588 192.313 276.495C192.136 276.392 191.893 276.341 191.585 276.341C191.277 276.341 190.974 276.401 190.675 276.523C190.386 276.644 190.101 276.826 189.821 277.069C189.551 277.311 189.275 277.619 188.995 277.993V277.251C189.266 276.849 189.551 276.513 189.849 276.243C190.148 275.972 190.465 275.767 190.801 275.627C191.147 275.487 191.515 275.417 191.907 275.417C192.365 275.417 192.752 275.496 193.069 275.655C193.387 275.804 193.629 276.037 193.797 276.355C193.965 276.663 194.049 277.055 194.049 277.531V281.619C194.049 281.936 194.157 282.146 194.371 282.249C194.586 282.351 194.875 282.403 195.239 282.403H195.281V283.075ZM197.981 274.017C197.71 274.017 197.491 273.942 197.323 273.793C197.155 273.643 197.071 273.419 197.071 273.121C197.071 272.831 197.155 272.612 197.323 272.463C197.491 272.313 197.71 272.239 197.981 272.239C198.242 272.239 198.457 272.313 198.625 272.463C198.802 272.612 198.891 272.831 198.891 273.121C198.891 273.419 198.802 273.643 198.625 273.793C198.457 273.942 198.242 274.017 197.981 274.017ZM198.695 275.557V281.689C198.695 281.978 198.802 282.169 199.017 282.263C199.231 282.356 199.521 282.403 199.885 282.403H199.927V283.075H196.231V282.403H196.273C196.637 282.403 196.926 282.356 197.141 282.263C197.355 282.169 197.463 281.978 197.463 281.689V276.943C197.463 276.737 197.374 276.602 197.197 276.537C197.019 276.462 196.744 276.387 196.371 276.313L196.231 276.285V275.557H198.695ZM205.776 281.101C205.776 280.877 205.72 280.69 205.608 280.541C205.506 280.391 205.361 280.27 205.174 280.177C204.988 280.083 204.773 280.004 204.53 279.939C204.297 279.873 204.054 279.813 203.802 279.757C203.494 279.691 203.191 279.612 202.892 279.519C202.594 279.416 202.323 279.285 202.08 279.127C201.838 278.968 201.642 278.763 201.492 278.511C201.352 278.259 201.282 277.937 201.282 277.545C201.282 277.115 201.39 276.742 201.604 276.425C201.819 276.107 202.132 275.86 202.542 275.683C202.953 275.505 203.448 275.417 204.026 275.417C204.484 275.417 204.88 275.445 205.216 275.501C205.562 275.547 205.846 275.613 206.07 275.697C206.304 275.771 206.476 275.841 206.588 275.907V277.657H205.356V276.215C205.45 276.215 205.529 276.229 205.594 276.257C205.669 276.275 205.725 276.313 205.762 276.369C205.809 276.425 205.842 276.495 205.86 276.579C205.888 276.653 205.898 276.747 205.888 276.859C205.776 276.719 205.627 276.607 205.44 276.523C205.254 276.429 205.039 276.359 204.796 276.313C204.563 276.266 204.306 276.243 204.026 276.243C203.476 276.243 203.07 276.35 202.808 276.565C202.556 276.77 202.43 277.05 202.43 277.405C202.43 277.629 202.482 277.82 202.584 277.979C202.696 278.128 202.846 278.249 203.032 278.343C203.219 278.436 203.434 278.515 203.676 278.581C203.928 278.646 204.19 278.711 204.46 278.777C204.759 278.842 205.058 278.921 205.356 279.015C205.655 279.108 205.921 279.234 206.154 279.393C206.397 279.551 206.588 279.761 206.728 280.023C206.878 280.275 206.952 280.592 206.952 280.975C206.952 281.404 206.84 281.791 206.616 282.137C206.392 282.473 206.061 282.739 205.622 282.935C205.184 283.131 204.642 283.229 203.998 283.229C203.532 283.229 203.112 283.196 202.738 283.131C202.374 283.065 202.048 282.981 201.758 282.879C201.478 282.776 201.236 282.659 201.03 282.529V280.695H202.29V282.627C202.141 282.561 202.024 282.491 201.94 282.417C201.866 282.342 201.814 282.267 201.786 282.193C201.758 282.109 201.744 282.029 201.744 281.955C201.744 281.871 201.754 281.787 201.772 281.703C201.922 281.833 202.104 281.95 202.318 282.053C202.542 282.155 202.794 282.239 203.074 282.305C203.354 282.361 203.662 282.389 203.998 282.389C204.39 282.389 204.717 282.342 204.978 282.249C205.24 282.155 205.436 282.015 205.566 281.829C205.706 281.633 205.776 281.39 205.776 281.101ZM215.681 286.197H211.803V285.525H211.845C212.078 285.525 212.279 285.501 212.447 285.455C212.624 285.417 212.76 285.338 212.853 285.217C212.946 285.105 212.993 284.946 212.993 284.741V276.943C212.993 276.803 212.951 276.7 212.867 276.635C212.792 276.56 212.671 276.499 212.503 276.453C212.344 276.406 212.144 276.359 211.901 276.313L211.761 276.285V275.557H214.001L214.169 277.293L214.239 277.377V285.385C214.239 285.413 214.3 285.436 214.421 285.455C214.542 285.483 214.687 285.501 214.855 285.511C215.023 285.52 215.172 285.525 215.303 285.525H215.681V286.197ZM216.703 283.229C216.292 283.229 215.924 283.159 215.597 283.019C215.28 282.879 214.986 282.678 214.715 282.417C214.454 282.146 214.206 281.819 213.973 281.437L214.015 280.527C214.258 280.937 214.51 281.278 214.771 281.549C215.032 281.819 215.317 282.025 215.625 282.165C215.933 282.305 216.269 282.375 216.633 282.375C216.997 282.375 217.319 282.309 217.599 282.179C217.879 282.039 218.108 281.838 218.285 281.577C218.472 281.306 218.612 280.979 218.705 280.597C218.798 280.214 218.845 279.775 218.845 279.281C218.845 278.795 218.803 278.371 218.719 278.007C218.635 277.633 218.504 277.321 218.327 277.069C218.159 276.807 217.94 276.611 217.669 276.481C217.398 276.35 217.081 276.285 216.717 276.285C216.334 276.285 215.984 276.355 215.667 276.495C215.35 276.625 215.056 276.831 214.785 277.111C214.514 277.381 214.253 277.722 214.001 278.133L213.973 277.265C214.225 276.873 214.486 276.541 214.757 276.271C215.028 275.991 215.331 275.781 215.667 275.641C216.012 275.491 216.404 275.417 216.843 275.417C217.543 275.417 218.14 275.58 218.635 275.907C219.13 276.233 219.508 276.686 219.769 277.265C220.03 277.834 220.161 278.506 220.161 279.281C220.161 280.046 220.026 280.727 219.755 281.325C219.484 281.913 219.088 282.379 218.565 282.725C218.052 283.061 217.431 283.229 216.703 283.229ZM226.692 275.459V276.803C226.627 276.784 226.548 276.77 226.454 276.761C226.361 276.751 226.263 276.742 226.16 276.733C226.067 276.723 225.974 276.719 225.88 276.719C225.619 276.719 225.386 276.747 225.18 276.803C224.975 276.849 224.784 276.929 224.606 277.041C224.438 277.143 224.275 277.279 224.116 277.447C223.967 277.615 223.804 277.82 223.626 278.063V277.419C223.86 276.98 224.098 276.611 224.34 276.313C224.592 276.014 224.868 275.79 225.166 275.641C225.465 275.482 225.801 275.403 226.174 275.403C226.286 275.403 226.389 275.407 226.482 275.417C226.585 275.426 226.655 275.44 226.692 275.459ZM221.414 283.075V282.403H221.456C221.82 282.403 222.105 282.351 222.31 282.249C222.525 282.146 222.632 281.936 222.632 281.619V276.943C222.632 276.803 222.59 276.7 222.506 276.635C222.432 276.56 222.315 276.499 222.156 276.453C221.998 276.406 221.797 276.359 221.554 276.313L221.414 276.285V275.557H223.654L223.822 277.433L223.878 277.377V282.095C223.878 282.179 223.944 282.244 224.074 282.291C224.205 282.337 224.359 282.37 224.536 282.389C224.714 282.398 224.868 282.403 224.998 282.403H225.306V283.075H221.414ZM235.183 279.323C235.183 280.116 235.024 280.807 234.707 281.395C234.399 281.983 233.96 282.435 233.391 282.753C232.831 283.07 232.173 283.229 231.417 283.229C230.652 283.229 229.984 283.07 229.415 282.753C228.855 282.435 228.416 281.983 228.099 281.395C227.791 280.807 227.637 280.116 227.637 279.323C227.637 278.725 227.726 278.189 227.903 277.713C228.08 277.227 228.337 276.817 228.673 276.481C229.009 276.135 229.406 275.874 229.863 275.697C230.33 275.51 230.848 275.417 231.417 275.417C231.986 275.417 232.5 275.51 232.957 275.697C233.414 275.874 233.811 276.135 234.147 276.481C234.483 276.817 234.74 277.227 234.917 277.713C235.094 278.189 235.183 278.725 235.183 279.323ZM228.953 279.323C228.953 279.995 229.046 280.559 229.233 281.017C229.42 281.474 229.695 281.819 230.059 282.053C230.423 282.277 230.876 282.389 231.417 282.389C231.958 282.389 232.411 282.277 232.775 282.053C233.139 281.819 233.41 281.474 233.587 281.017C233.774 280.559 233.867 279.995 233.867 279.323C233.867 278.669 233.774 278.119 233.587 277.671C233.41 277.213 233.139 276.868 232.775 276.635C232.411 276.392 231.958 276.271 231.417 276.271C230.876 276.271 230.423 276.392 230.059 276.635C229.695 276.868 229.42 277.213 229.233 277.671C229.046 278.119 228.953 278.669 228.953 279.323ZM237.7 283.943V276.943C237.7 276.803 237.653 276.695 237.56 276.621C237.466 276.537 237.326 276.471 237.14 276.425C236.962 276.378 236.748 276.341 236.496 276.313L236.272 276.285V275.557H238.932V283.943C238.932 284.428 238.857 284.834 238.708 285.161C238.558 285.497 238.353 285.758 238.092 285.945C237.84 286.131 237.555 286.267 237.238 286.351C236.92 286.435 236.598 286.477 236.272 286.477C236.029 286.477 235.791 286.458 235.558 286.421C235.315 286.383 235.133 286.341 235.012 286.295V285.413C235.17 285.459 235.352 285.501 235.558 285.539C235.763 285.576 235.996 285.595 236.258 285.595C236.556 285.595 236.813 285.543 237.028 285.441C237.242 285.347 237.406 285.179 237.518 284.937C237.639 284.694 237.7 284.363 237.7 283.943ZM238.204 274.017C237.942 274.017 237.723 273.942 237.546 273.793C237.378 273.643 237.294 273.419 237.294 273.121C237.294 272.831 237.378 272.612 237.546 272.463C237.723 272.313 237.942 272.239 238.204 272.239C238.465 272.239 238.68 272.313 238.848 272.463C239.025 272.612 239.114 272.831 239.114 273.121C239.114 273.419 239.025 273.643 238.848 273.793C238.68 273.942 238.465 274.017 238.204 274.017ZM242.337 279.393C242.337 279.934 242.397 280.396 242.519 280.779C242.649 281.161 242.831 281.469 243.065 281.703C243.298 281.936 243.564 282.109 243.863 282.221C244.171 282.333 244.502 282.389 244.857 282.389C245.249 282.389 245.589 282.319 245.879 282.179C246.168 282.039 246.415 281.861 246.621 281.647C246.835 281.432 247.017 281.203 247.167 280.961L247.839 281.507C247.661 281.833 247.428 282.132 247.139 282.403C246.849 282.664 246.509 282.869 246.117 283.019C245.734 283.159 245.305 283.229 244.829 283.229C244.119 283.229 243.48 283.079 242.911 282.781C242.341 282.482 241.889 282.043 241.553 281.465C241.226 280.886 241.063 280.191 241.063 279.379C241.063 278.585 241.212 277.895 241.511 277.307C241.819 276.709 242.234 276.247 242.757 275.921C243.289 275.585 243.895 275.417 244.577 275.417C245.127 275.417 245.603 275.505 246.005 275.683C246.406 275.86 246.742 276.126 247.013 276.481C247.283 276.835 247.489 277.279 247.629 277.811C247.769 278.343 247.839 278.963 247.839 279.673H242.043V278.861H246.915L246.551 279.169C246.532 278.637 246.481 278.189 246.397 277.825C246.322 277.451 246.205 277.153 246.047 276.929C245.897 276.695 245.701 276.527 245.459 276.425C245.216 276.322 244.922 276.271 244.577 276.271C244.25 276.271 243.947 276.336 243.667 276.467C243.396 276.588 243.158 276.779 242.953 277.041C242.757 277.302 242.603 277.629 242.491 278.021C242.388 278.413 242.337 278.87 242.337 279.393ZM253.02 282.389C253.431 282.389 253.781 282.319 254.07 282.179C254.369 282.039 254.621 281.861 254.826 281.647C255.041 281.423 255.228 281.189 255.386 280.947L256.044 281.493C255.858 281.829 255.615 282.132 255.316 282.403C255.027 282.664 254.686 282.869 254.294 283.019C253.912 283.159 253.478 283.229 252.992 283.229C252.199 283.229 251.513 283.07 250.934 282.753C250.365 282.426 249.926 281.973 249.618 281.395C249.31 280.807 249.156 280.116 249.156 279.323C249.156 278.52 249.315 277.829 249.632 277.251C249.95 276.663 250.398 276.21 250.976 275.893C251.564 275.575 252.26 275.417 253.062 275.417C253.548 275.417 253.977 275.459 254.35 275.543C254.724 275.627 255.036 275.725 255.288 275.837C255.54 275.939 255.722 276.033 255.834 276.117V278.245H254.574V276.439C254.668 276.448 254.756 276.471 254.84 276.509C254.924 276.537 254.994 276.579 255.05 276.635C255.106 276.691 255.148 276.751 255.176 276.817C255.204 276.882 255.218 276.952 255.218 277.027C255.013 276.812 254.719 276.635 254.336 276.495C253.954 276.345 253.529 276.271 253.062 276.271C252.474 276.271 251.989 276.392 251.606 276.635C251.224 276.868 250.939 277.213 250.752 277.671C250.566 278.128 250.472 278.679 250.472 279.323C250.472 279.817 250.524 280.256 250.626 280.639C250.729 281.021 250.883 281.343 251.088 281.605C251.303 281.866 251.569 282.062 251.886 282.193C252.204 282.323 252.582 282.389 253.02 282.389ZM256.815 276.397V275.627H256.969C257.286 275.627 257.552 275.608 257.767 275.571C257.982 275.524 258.14 275.435 258.243 275.305C258.355 275.174 258.411 274.978 258.411 274.717L259.321 275.557H261.995V276.397H256.815ZM259.559 280.793C259.559 281.185 259.615 281.493 259.727 281.717C259.839 281.941 260.002 282.099 260.217 282.193C260.432 282.286 260.688 282.333 260.987 282.333C261.23 282.333 261.454 282.319 261.659 282.291C261.864 282.253 262.004 282.225 262.079 282.207V283.047C261.986 283.075 261.869 283.103 261.729 283.131C261.589 283.159 261.444 283.182 261.295 283.201C261.146 283.219 260.992 283.229 260.833 283.229C260.394 283.229 259.984 283.163 259.601 283.033C259.218 282.902 258.906 282.664 258.663 282.319C258.43 281.964 258.313 281.46 258.313 280.807V275.767L258.411 275.655V273.415H259.559V280.793Z" fill="#5C5C5C"/>
</g>
<defs>
<clipPath id="clip0_144_3843">
<rect width="406" height="300" fill="white" transform="translate(0 0.074707)"/>
</clipPath>
<clipPath id="clip1_144_3843">
<rect width="406" height="8" fill="white" transform="translate(0 0.074707)"/>
</clipPath>
</defs>
</svg>
