<svg width="176" height="41" viewBox="0 0 176 41" fill="none" xmlns="http://www.w3.org/2000/svg">
<rect width="31" height="31" rx="15.5" fill="#FF5C00"/>
<path d="M19.656 31.24C20.552 31.24 21.32 31.112 21.96 30.856C22.6213 30.6 23.1227 30.2053 23.464 29.672C23.8267 29.1173 24.008 28.424 24.008 27.592C24.008 26.8453 23.848 26.2267 23.528 25.736C23.208 25.224 22.76 24.808 22.184 24.488C21.6293 24.168 20.9787 23.8907 20.232 23.656C19.5067 23.4 18.7387 23.1547 17.928 22.92C17.096 22.6853 16.264 22.408 15.432 22.088C14.6213 21.768 13.8747 21.352 13.192 20.84C12.5307 20.328 12.008 19.688 11.624 18.92C11.24 18.152 11.048 17.2027 11.048 16.072C11.048 14.792 11.3573 13.704 11.976 12.808C12.616 11.8907 13.4693 11.1867 14.536 10.696C15.6027 10.2053 16.7653 9.96 18.024 9.96C19.0907 9.96 20.0507 10.1093 20.904 10.408C21.7787 10.6853 22.5573 11.176 23.24 11.88C23.944 12.584 24.5413 13.5653 25.032 14.824L23.72 14.792L24.232 10.28H26.184V16.232H23.976C23.6773 15.3573 23.2507 14.6107 22.696 13.992C22.1627 13.352 21.5333 12.8613 20.808 12.52C20.104 12.1787 19.3253 12.008 18.472 12.008C17.6187 12.008 16.8933 12.1467 16.296 12.424C15.72 12.68 15.272 13.064 14.952 13.576C14.6533 14.0667 14.504 14.6533 14.504 15.336C14.504 16.0187 14.664 16.584 14.984 17.032C15.304 17.48 15.7307 17.8533 16.264 18.152C16.8187 18.4293 17.4587 18.6853 18.184 18.92C18.9093 19.1333 19.656 19.336 20.424 19.528C21.3413 19.784 22.2267 20.072 23.08 20.392C23.9333 20.712 24.7013 21.128 25.384 21.64C26.0667 22.1307 26.6 22.7707 26.984 23.56C27.3893 24.328 27.592 25.2987 27.592 26.472C27.592 27.9013 27.2507 29.128 26.568 30.152C25.9067 31.176 24.9893 31.9653 23.816 32.52C22.664 33.0533 21.3627 33.32 19.912 33.32C18.6747 33.32 17.4907 33.128 16.36 32.744C15.2507 32.3387 14.2587 31.7093 13.384 30.856C12.5307 30.0027 11.8587 28.8613 11.368 27.432L12.904 27.72L12.392 33H10.312V25.928H12.584C12.9467 26.9947 13.4693 27.9333 14.152 28.744C14.8347 29.5547 15.6453 30.1733 16.584 30.6C17.544 31.0267 18.568 31.24 19.656 31.24ZM41.253 23.144V24.808C40.293 24.9147 39.4397 25.0533 38.693 25.224C37.9463 25.3733 37.2957 25.5653 36.741 25.8C36.1863 26.0347 35.7383 26.3013 35.397 26.6C35.0557 26.8987 34.789 27.24 34.597 27.624C34.4263 28.008 34.341 28.4347 34.341 28.904C34.341 29.416 34.4477 29.864 34.661 30.248C34.8743 30.6107 35.173 30.888 35.557 31.08C35.941 31.272 36.389 31.368 36.901 31.368C37.5623 31.368 38.149 31.208 38.661 30.888C39.1943 30.568 39.6637 30.1093 40.069 29.512C40.4743 28.9147 40.837 28.2107 41.157 27.4L41.221 29.512C40.901 30.3013 40.4743 30.984 39.941 31.56C39.429 32.1147 38.821 32.552 38.117 32.872C37.413 33.1707 36.6023 33.32 35.685 33.32C34.725 33.32 33.8503 33.1493 33.061 32.808C32.293 32.4667 31.685 31.976 31.237 31.336C30.789 30.6747 30.565 29.896 30.565 29C30.565 28.1253 30.789 27.368 31.237 26.728C31.685 26.0667 32.357 25.512 33.253 25.064C34.1703 24.5947 35.2903 24.2107 36.613 23.912C37.9357 23.592 39.4823 23.336 41.253 23.144ZM40.773 33V29.672L40.421 29.64V21.544C40.421 20.7547 40.3037 20.1253 40.069 19.656C39.8557 19.1653 39.5357 18.824 39.109 18.632C38.6823 18.4187 38.149 18.312 37.509 18.312C36.549 18.312 35.7597 18.5147 35.141 18.92C34.5223 19.304 34.0317 19.7733 33.669 20.328C33.5837 20.0933 33.5623 19.8693 33.605 19.656C33.6477 19.4427 33.7223 19.2507 33.829 19.08C33.957 18.888 34.117 18.7387 34.309 18.632C34.501 18.504 34.7143 18.3973 34.949 18.312V21.672H31.589V18.344C31.909 18.088 32.357 17.8107 32.933 17.512C33.509 17.192 34.213 16.9253 35.045 16.712C35.877 16.4773 36.8157 16.36 37.861 16.36C38.7357 16.36 39.5463 16.456 40.293 16.648C41.061 16.8187 41.733 17.1173 42.309 17.544C42.9063 17.9493 43.365 18.4933 43.685 19.176C44.0263 19.8373 44.197 20.6587 44.197 21.64V30.312C44.197 30.568 44.293 30.7813 44.485 30.952C44.6983 31.1013 44.965 31.208 45.285 31.272C45.6263 31.336 46.021 31.3787 46.469 31.4H46.533V33H40.773ZM58.8423 33.32C57.9463 33.32 57.1463 33.192 56.4423 32.936C55.7596 32.68 55.1303 32.296 54.5543 31.784C53.9996 31.272 53.4556 30.6 52.9223 29.768L53.0183 26.76C53.4876 27.7413 53.9783 28.5627 54.4903 29.224C55.0236 29.8853 55.5996 30.3867 56.2183 30.728C56.8369 31.048 57.5089 31.208 58.2343 31.208C58.9383 31.208 59.5463 31.0587 60.0583 30.76C60.5916 30.44 61.0289 29.992 61.3703 29.416C61.7329 28.84 61.9996 28.1573 62.1703 27.368C62.3623 26.5787 62.4583 25.6933 62.4583 24.712C62.4583 23.752 62.3729 22.888 62.2023 22.12C62.0316 21.352 61.7756 20.7013 61.4343 20.168C61.0929 19.6133 60.6663 19.1973 60.1543 18.92C59.6636 18.6213 59.0876 18.472 58.4263 18.472C57.6583 18.472 56.9543 18.6533 56.3142 19.016C55.6956 19.3573 55.1196 19.88 54.5863 20.584C54.0529 21.288 53.5303 22.1627 53.0183 23.208L52.9543 20.552C53.5516 19.592 54.1383 18.8027 54.7143 18.184C55.3116 17.5653 55.9623 17.1067 56.6663 16.808C57.3703 16.5093 58.1809 16.36 59.0983 16.36C60.5703 16.36 61.8609 16.712 62.9703 17.416C64.0796 18.0987 64.9329 19.0693 65.5303 20.328C66.1489 21.5653 66.4583 23.0267 66.4583 24.712C66.4583 26.3973 66.1383 27.8907 65.4983 29.192C64.8583 30.4933 63.9623 31.5067 62.8103 32.232C61.6796 32.9573 60.3569 33.32 58.8423 33.32ZM49.9463 12.424C49.9463 12.1467 49.8716 11.9333 49.7223 11.784C49.5729 11.6133 49.3489 11.4853 49.0503 11.4C48.7516 11.2933 48.3569 11.1973 47.8663 11.112L47.5463 11.048V9.448H53.7863V29.288L53.3703 29.64L52.3463 33.096H49.9463V12.424ZM75.0773 9.448V31.112C75.0773 31.176 75.1839 31.24 75.3973 31.304C75.6106 31.3467 75.8773 31.3787 76.1973 31.4C76.5173 31.4213 76.8159 31.432 77.0933 31.432H77.1892V33H68.8372V31.432H68.9013C69.3493 31.432 69.7439 31.4 70.0853 31.336C70.4266 31.272 70.7039 31.1653 70.9173 31.016C71.1306 30.8453 71.2373 30.6213 71.2373 30.344V12.424C71.2373 12.1467 71.1626 11.9333 71.0133 11.784C70.8639 11.6133 70.6399 11.4853 70.3413 11.4C70.0426 11.2933 69.6479 11.1973 69.1573 11.112L68.8372 11.048V9.448H75.0773ZM88.0373 33H79.7173V31.432H79.7813C80.0373 31.432 80.3253 31.4213 80.6453 31.4C80.9653 31.3787 81.2426 31.3467 81.4773 31.304C81.7119 31.24 81.8293 31.176 81.8293 31.112V21.832C81.8293 21.0853 81.7439 20.488 81.5733 20.04C81.4239 19.5707 81.1679 19.2293 80.8053 19.016C80.4639 18.8027 79.9946 18.696 79.3973 18.696C78.7573 18.696 78.1493 18.8347 77.5733 19.112C76.9973 19.3893 76.4533 19.8053 75.9413 20.36C75.4293 20.9147 74.9493 21.5973 74.5013 22.408L74.4373 20.072C74.9706 19.2613 75.5253 18.5787 76.1013 18.024C76.6986 17.4693 77.3493 17.0533 78.0533 16.776C78.7786 16.4987 79.5786 16.36 80.4533 16.36C81.4986 16.36 82.4053 16.552 83.1733 16.936C83.9626 17.32 84.5706 17.896 84.9973 18.664C85.4453 19.432 85.6693 20.424 85.6693 21.64V30.344C85.6693 30.7707 85.8826 31.0587 86.3093 31.208C86.7573 31.3573 87.3119 31.432 87.9733 31.432H88.0373V33ZM99.3838 30.824L98.5838 32.648L97.0158 33.928L90.7758 19.368C90.6478 19.0693 90.4878 18.8453 90.2958 18.696C90.1038 18.5253 89.8691 18.408 89.5918 18.344C89.3144 18.28 88.9731 18.248 88.5678 18.248H88.5358V16.68H97.0158V18.248H96.9518C96.5678 18.248 96.1731 18.2587 95.7678 18.28C95.3838 18.3013 95.0638 18.3333 94.8078 18.376C94.5518 18.3973 94.4238 18.4507 94.4238 18.536L99.3838 30.824ZM99.5118 32.456C98.9144 33.8427 98.3278 35.048 97.7517 36.072C97.1758 37.096 96.5784 37.928 95.9598 38.568C95.3624 39.208 94.7224 39.6773 94.0398 39.976C93.3571 40.296 92.6211 40.456 91.8318 40.456C91.2771 40.456 90.8078 40.392 90.4238 40.264C90.0398 40.136 89.7304 39.9867 89.4958 39.816V36.712C89.5598 36.7333 89.7091 36.7973 89.9438 36.904C90.1998 37.0107 90.5091 37.1173 90.8718 37.224C91.2344 37.3307 91.6184 37.384 92.0238 37.384C92.5358 37.384 93.0264 37.3093 93.4958 37.16C93.9651 37.0107 94.4344 36.7333 94.9038 36.328C95.3731 35.9227 95.8424 35.336 96.3118 34.568C96.7811 33.8213 97.2504 32.84 97.7198 31.624L98.1038 30.696L102.968 18.952C102.968 18.8027 102.85 18.6853 102.616 18.6C102.381 18.4933 102.082 18.408 101.72 18.344C101.357 18.28 100.984 18.248 100.6 18.248H100.504V16.68H107.096V18.248C106.776 18.248 106.477 18.2907 106.2 18.376C105.944 18.4613 105.698 18.6107 105.464 18.824C105.229 19.016 105.037 19.304 104.888 19.688L99.5118 32.456ZM118.816 23.144V24.808C117.856 24.9147 117.002 25.0533 116.256 25.224C115.509 25.3733 114.858 25.5653 114.304 25.8C113.749 26.0347 113.301 26.3013 112.96 26.6C112.618 26.8987 112.352 27.24 112.16 27.624C111.989 28.008 111.904 28.4347 111.904 28.904C111.904 29.416 112.01 29.864 112.224 30.248C112.437 30.6107 112.736 30.888 113.12 31.08C113.504 31.272 113.952 31.368 114.464 31.368C115.125 31.368 115.712 31.208 116.224 30.888C116.757 30.568 117.226 30.1093 117.632 29.512C118.037 28.9147 118.4 28.2107 118.72 27.4L118.784 29.512C118.464 30.3013 118.037 30.984 117.504 31.56C116.992 32.1147 116.384 32.552 115.68 32.872C114.976 33.1707 114.165 33.32 113.248 33.32C112.288 33.32 111.413 33.1493 110.624 32.808C109.856 32.4667 109.248 31.976 108.799 31.336C108.352 30.6747 108.128 29.896 108.128 29C108.128 28.1253 108.352 27.368 108.799 26.728C109.248 26.0667 109.92 25.512 110.816 25.064C111.733 24.5947 112.853 24.2107 114.176 23.912C115.498 23.592 117.045 23.336 118.816 23.144ZM118.336 33V29.672L117.984 29.64V21.544C117.984 20.7547 117.866 20.1253 117.632 19.656C117.418 19.1653 117.098 18.824 116.672 18.632C116.245 18.4187 115.712 18.312 115.072 18.312C114.112 18.312 113.322 18.5147 112.704 18.92C112.085 19.304 111.594 19.7733 111.232 20.328C111.146 20.0933 111.125 19.8693 111.168 19.656C111.21 19.4427 111.285 19.2507 111.391 19.08C111.52 18.888 111.68 18.7387 111.872 18.632C112.064 18.504 112.277 18.3973 112.512 18.312V21.672H109.152V18.344C109.472 18.088 109.92 17.8107 110.496 17.512C111.072 17.192 111.776 16.9253 112.608 16.712C113.44 16.4773 114.378 16.36 115.424 16.36C116.298 16.36 117.109 16.456 117.856 16.648C118.624 16.8187 119.296 17.1173 119.872 17.544C120.469 17.9493 120.928 18.4933 121.248 19.176C121.589 19.8373 121.76 20.6587 121.76 21.64V30.312C121.76 30.568 121.856 30.7813 122.048 30.952C122.261 31.1013 122.528 31.208 122.847 31.272C123.189 31.336 123.584 31.3787 124.032 31.4H124.096V33H118.336ZM124.443 18.6V16.84H124.571C125.168 16.84 125.669 16.7973 126.075 16.712C126.501 16.6267 126.821 16.4667 127.035 16.232C127.269 15.9973 127.387 15.6667 127.387 15.24L129.787 16.68H135.547V18.6H124.443ZM130.971 27.496C130.971 28.392 131.077 29.1173 131.291 29.672C131.525 30.2053 131.845 30.6 132.251 30.856C132.656 31.0907 133.136 31.208 133.691 31.208C134.139 31.208 134.555 31.1653 134.939 31.08C135.323 30.9947 135.632 30.9093 135.867 30.824V32.808C135.675 32.8933 135.429 32.968 135.131 33.032C134.853 33.1173 134.533 33.1813 134.171 33.224C133.829 33.288 133.445 33.32 133.019 33.32C131.973 33.32 131.003 33.1493 130.107 32.808C129.211 32.4667 128.485 31.8693 127.931 31.016C127.397 30.1627 127.131 29 127.131 27.528V17.16L127.387 16.936L127.419 12.232H130.971V27.496ZM148.503 23.144V24.808C147.543 24.9147 146.69 25.0533 145.943 25.224C145.196 25.3733 144.546 25.5653 143.991 25.8C143.436 26.0347 142.988 26.3013 142.647 26.6C142.306 26.8987 142.039 27.24 141.847 27.624C141.676 28.008 141.591 28.4347 141.591 28.904C141.591 29.416 141.698 29.864 141.911 30.248C142.124 30.6107 142.423 30.888 142.807 31.08C143.191 31.272 143.639 31.368 144.151 31.368C144.812 31.368 145.399 31.208 145.911 30.888C146.444 30.568 146.914 30.1093 147.319 29.512C147.724 28.9147 148.087 28.2107 148.407 27.4L148.471 29.512C148.151 30.3013 147.724 30.984 147.191 31.56C146.679 32.1147 146.071 32.552 145.367 32.872C144.663 33.1707 143.852 33.32 142.935 33.32C141.975 33.32 141.1 33.1493 140.311 32.808C139.543 32.4667 138.935 31.976 138.487 31.336C138.039 30.6747 137.815 29.896 137.815 29C137.815 28.1253 138.039 27.368 138.487 26.728C138.935 26.0667 139.607 25.512 140.503 25.064C141.42 24.5947 142.54 24.2107 143.863 23.912C145.186 23.592 146.732 23.336 148.503 23.144ZM148.023 33V29.672L147.671 29.64V21.544C147.671 20.7547 147.554 20.1253 147.319 19.656C147.106 19.1653 146.786 18.824 146.359 18.632C145.932 18.4187 145.399 18.312 144.759 18.312C143.799 18.312 143.01 18.5147 142.391 18.92C141.772 19.304 141.282 19.7733 140.919 20.328C140.834 20.0933 140.812 19.8693 140.855 19.656C140.898 19.4427 140.972 19.2507 141.079 19.08C141.207 18.888 141.367 18.7387 141.559 18.632C141.751 18.504 141.964 18.3973 142.199 18.312V21.672H138.839V18.344C139.159 18.088 139.607 17.8107 140.183 17.512C140.759 17.192 141.463 16.9253 142.295 16.712C143.127 16.4773 144.066 16.36 145.111 16.36C145.986 16.36 146.796 16.456 147.543 16.648C148.311 16.8187 148.983 17.1173 149.559 17.544C150.156 17.9493 150.615 18.4933 150.935 19.176C151.276 19.8373 151.447 20.6587 151.447 21.64V30.312C151.447 30.568 151.543 30.7813 151.735 30.952C151.948 31.1013 152.215 31.208 152.535 31.272C152.876 31.336 153.271 31.3787 153.719 31.4H153.783V33H148.023ZM161.452 9.448V31.112C161.452 31.176 161.559 31.24 161.772 31.304C161.986 31.3467 162.252 31.3787 162.572 31.4C162.892 31.4213 163.191 31.432 163.468 31.432H163.564V33H155.212V31.432H155.276C155.724 31.432 156.119 31.4 156.46 31.336C156.802 31.272 157.079 31.1653 157.292 31.016C157.506 30.8453 157.612 30.6213 157.612 30.344V12.424C157.612 12.1467 157.538 11.9333 157.388 11.784C157.239 11.6133 157.015 11.4853 156.716 11.4C156.418 11.2933 156.023 11.1973 155.532 11.112L155.212 11.048V9.448H161.452ZM174.412 33H166.092V31.432H166.156C166.412 31.432 166.7 31.4213 167.02 31.4C167.34 31.3787 167.618 31.3467 167.852 31.304C168.087 31.24 168.204 31.176 168.204 31.112V21.832C168.204 21.0853 168.119 20.488 167.948 20.04C167.799 19.5707 167.543 19.2293 167.18 19.016C166.839 18.8027 166.37 18.696 165.772 18.696C165.132 18.696 164.524 18.8347 163.948 19.112C163.372 19.3893 162.828 19.8053 162.316 20.36C161.804 20.9147 161.324 21.5973 160.876 22.408L160.812 20.072C161.346 19.2613 161.9 18.5787 162.476 18.024C163.074 17.4693 163.724 17.0533 164.428 16.776C165.154 16.4987 165.954 16.36 166.828 16.36C167.874 16.36 168.78 16.552 169.548 16.936C170.338 17.32 170.946 17.896 171.372 18.664C171.82 19.432 172.044 20.424 172.044 21.64V30.344C172.044 30.7707 172.258 31.0587 172.684 31.208C173.132 31.3573 173.687 31.432 174.348 31.432H174.412V33Z" fill="#303030"/>
</svg>
