<svg width="82" height="28" viewBox="0 0 82 28" fill="none" xmlns="http://www.w3.org/2000/svg">
<path d="M12.264 22.464L8.296 24.736L2.536 16.032C2.17333 15.4773 1.90667 15.008 1.736 14.624C1.56533 14.2187 1.48 13.8347 1.48 13.472C1.48 12.8747 1.72533 12.4053 2.216 12.064C2.728 11.7013 3.42133 11.52 4.296 11.52L4.808 12.192C5 12.448 5.21333 12.6613 5.448 12.832C5.704 13.0027 5.97067 13.088 6.248 13.088C6.80267 13.088 7.26133 12.864 7.624 12.416C8.008 11.968 8.2 11.2853 8.2 10.368C8.2 9.55733 8.072 8.84267 7.816 8.224C7.58133 7.60533 7.336 7.12533 7.08 6.784H0.68V3.456H23.944V6.784H21.384V24H16.968V16.64C16.712 16.7467 16.36 16.8427 15.912 16.928C15.4853 16.992 14.92 17.024 14.216 17.024C13.448 17.024 12.6587 16.928 11.848 16.736C11.0587 16.5227 10.3653 16.2453 9.768 15.904C9.02133 16.288 8.27467 16.48 7.528 16.48H7.4L12.264 22.464ZM13.736 13.472C14.504 13.472 15.144 13.3973 15.656 13.248C16.168 13.0773 16.6053 12.8427 16.968 12.544V6.784H11.592C11.8053 7.08267 12.04 7.57333 12.296 8.256C12.552 8.91733 12.68 9.77067 12.68 10.816C12.68 11.3067 12.6373 11.7547 12.552 12.16C12.4667 12.5653 12.3493 12.9493 12.2 13.312C12.4347 13.376 12.6907 13.4187 12.968 13.44C13.2667 13.4613 13.5227 13.472 13.736 13.472ZM51.273 6.784V24H46.857V19.392C46.6863 19.5627 46.2917 19.7547 45.673 19.968C45.0757 20.1813 44.2863 20.288 43.305 20.288C42.665 20.288 42.0357 20.2347 41.417 20.128C40.7983 20 40.201 19.808 39.625 19.552C39.049 19.296 38.5157 18.9653 38.025 18.56C37.5343 18.1333 37.097 17.6213 36.713 17.024H33.481V19.456C33.3103 19.6267 33.0437 19.7973 32.681 19.968C32.3183 20.1387 31.785 20.224 31.081 20.224C30.505 20.224 29.9503 20.128 29.417 19.936C28.8837 19.7227 28.4143 19.4347 28.009 19.072C27.6037 18.7093 27.273 18.2827 27.017 17.792C26.7823 17.3013 26.665 16.7787 26.665 16.224C26.665 15.7973 26.7397 15.424 26.889 15.104C27.0383 14.784 27.2303 14.5173 27.465 14.304C27.6997 14.0907 27.945 13.9307 28.201 13.824C28.4783 13.7173 28.745 13.664 29.001 13.664H29.097V8.288C29.097 7.15733 28.6703 6.592 27.817 6.592C27.4117 6.592 27.081 6.74133 26.825 7.04C26.569 7.33867 26.441 7.744 26.441 8.256C26.441 8.87467 26.5903 9.38667 26.889 9.792C27.209 10.176 27.4863 10.4427 27.721 10.592L25.129 12.8C24.873 12.6507 24.5957 12.4373 24.297 12.16C24.0197 11.8613 23.7637 11.5093 23.529 11.104C23.273 10.6987 23.0703 10.24 22.921 9.728C22.7503 9.19467 22.665 8.608 22.665 7.968C22.665 7.264 22.8037 6.624 23.081 6.048C23.337 5.472 23.6997 4.97067 24.169 4.544C24.6597 4.11733 25.225 3.78667 25.865 3.552C26.505 3.31733 27.1983 3.2 27.945 3.2C29.6303 3.2 30.9743 3.65867 31.977 4.576C32.9797 5.472 33.481 6.82667 33.481 8.64V13.664H35.465C35.4223 13.344 35.3903 13.0133 35.369 12.672C35.3477 12.3307 35.337 11.968 35.337 11.584L35.977 11.552C37.2357 11.488 38.1743 11.2747 38.793 10.912C39.4117 10.528 39.721 9.856 39.721 8.896C39.721 8.46933 39.6357 8.07467 39.465 7.712C39.2943 7.34933 39.0917 7.04 38.857 6.784H35.145V3.456H53.833V6.784H51.273ZM46.857 15.52V6.784H43.369C43.5823 7.08267 43.7743 7.46667 43.945 7.936C44.1157 8.40533 44.201 8.91733 44.201 9.472C44.201 10.2187 44.0837 10.8693 43.849 11.424C43.6357 11.9573 43.337 12.416 42.953 12.8C42.569 13.1627 42.121 13.4507 41.609 13.664C41.1183 13.856 40.5957 13.984 40.041 14.048C40.041 14.368 40.1157 14.688 40.265 15.008C40.4143 15.328 40.6277 15.6267 40.905 15.904C41.2037 16.1813 41.5663 16.4053 41.993 16.576C42.441 16.7467 42.9637 16.832 43.561 16.832C44.457 16.832 45.1823 16.6827 45.737 16.384C46.2917 16.064 46.665 15.776 46.857 15.52ZM61.852 13.568C60.892 13.568 60.1667 13.8133 59.676 14.304C59.1853 14.7947 58.94 15.488 58.94 16.384C58.94 17.5147 59.164 18.6453 59.612 19.776C60.0813 20.8853 60.6893 22.016 61.436 23.168L57.5 24.736C57.116 24.1813 56.7427 23.5733 56.38 22.912C56.0173 22.2293 55.6867 21.5147 55.388 20.768C55.1107 20.0213 54.8867 19.2533 54.716 18.464C54.5453 17.6533 54.46 16.832 54.46 16C54.46 14.976 54.6093 14.1013 54.908 13.376C55.228 12.6293 55.6653 12.0213 56.22 11.552C56.796 11.0613 57.468 10.6987 58.236 10.464C59.0253 10.2293 59.8893 10.112 60.828 10.112H65.308V6.784H53.18V3.456H72.284V6.784H69.724V24H65.308V13.568H61.852ZM74.2088 6.784H71.6487V3.456H81.1848V6.784H78.6248V24H74.2088V6.784Z" fill="#303030"/>
</svg>
